<svg width="294" height="99" viewBox="0 0 294 99" fill="none" xmlns="http://www.w3.org/2000/svg">
<circle cx="32.2471" cy="49.5" r="32.2471" fill="#5DB53E"/>
<path d="M34.3829 29.7761C40.1145 26.4671 47.2785 30.6032 47.2785 37.2214L47.2781 43.7964L51.8041 51.635C55.1132 57.3666 50.9765 64.5315 44.3583 64.5315L36.2139 64.5305L29.1599 68.6039C23.4285 71.9123 16.2645 67.7764 16.2642 61.1585L16.2649 52.1085L12.9758 46.4128C9.66669 40.6812 13.8034 33.5163 20.4216 33.5163L27.9036 33.5161L34.3829 29.7761Z" fill="white"/>
<path d="M112.954 74.54C111.817 74.6133 110.827 74.2833 109.984 73.55C109.141 72.8167 108.664 71.8817 108.554 70.745C108.481 69.6083 108.811 68.6183 109.544 67.775C110.277 66.895 111.212 66.4183 112.349 66.345C116.162 66.0883 119.096 65.0617 121.149 63.265C123.202 61.4683 124.229 58.9567 124.229 55.73C124.229 53.7867 123.606 52.0267 122.359 50.45C121.149 48.8367 119.462 47.6267 117.299 46.82C116.602 48.69 115.832 50.4683 114.989 52.155C114.182 53.8417 113.302 55.4367 112.349 56.94C112.569 57.0867 112.789 57.2517 113.009 57.435C113.229 57.5817 113.431 57.7467 113.614 57.93C114.567 58.5533 115.136 59.415 115.319 60.515C115.539 61.615 115.319 62.6417 114.659 63.595C114.036 64.5117 113.174 65.08 112.074 65.3C110.974 65.4833 109.947 65.2633 108.994 64.64C108.737 64.4567 108.462 64.255 108.169 64.035C107.876 63.815 107.582 63.595 107.289 63.375C106.226 64.4017 105.126 65.355 103.989 66.235C102.852 67.115 101.661 67.9033 100.414 68.6C98.6175 69.6267 96.8208 70.195 95.0241 70.305C93.2275 70.415 91.5958 70.1033 90.1291 69.37C88.6625 68.6367 87.4891 67.5183 86.6091 66.015C85.7291 64.5117 85.2891 62.6417 85.2891 60.405C85.2891 57.1783 85.9491 54.2633 87.2691 51.66C88.6258 49.0567 90.3858 46.8017 92.5491 44.895C91.8891 43.685 91.2841 42.4933 90.7341 41.32C90.1841 40.11 89.7075 38.9733 89.3041 37.91C88.9375 36.8467 88.9925 35.8017 89.4691 34.775C89.9825 33.7483 90.7708 33.0517 91.8341 32.685C92.8975 32.2817 93.9241 32.3367 94.9141 32.85C95.9408 33.3267 96.6375 34.0967 97.0041 35.16C97.3341 36.04 97.7008 36.9383 98.1041 37.855C98.5075 38.7717 98.9475 39.7067 99.4241 40.66C101.257 39.8533 103.146 39.2483 105.089 38.845C107.069 38.405 109.049 38.185 111.029 38.185H111.414C111.597 37.3417 111.781 36.48 111.964 35.6C112.184 34.6833 112.367 33.7667 112.514 32.85C112.697 31.7133 113.247 30.815 114.164 30.155C115.081 29.495 116.089 29.2567 117.189 29.44C118.326 29.6233 119.206 30.1917 119.829 31.145C120.489 32.0617 120.727 33.07 120.544 34.17C120.397 35.0867 120.232 35.985 120.049 36.865C119.902 37.7083 119.719 38.5517 119.499 39.395C123.532 40.6417 126.667 42.7133 128.904 45.61C131.141 48.47 132.259 51.8433 132.259 55.73C132.259 59.2867 131.489 62.4217 129.949 65.135C128.446 67.8483 126.264 70.0117 123.404 71.625C120.544 73.2383 117.061 74.21 112.954 74.54ZM96.7291 61.67C97.6458 61.1933 98.5075 60.6433 99.3141 60.02C100.157 59.36 100.964 58.645 101.734 57.875C100.854 56.9217 99.9925 55.9133 99.1491 54.85C98.3425 53.75 97.5358 52.65 96.7291 51.55C94.4558 54.0433 93.3191 56.8117 93.3191 59.855C93.3191 60.8817 93.6308 61.5783 94.2541 61.945C94.8775 62.3117 95.7025 62.22 96.7291 61.67ZM106.574 51.275C107.014 50.4317 107.454 49.5517 107.894 48.635C108.334 47.7183 108.737 46.765 109.104 45.775C108.077 45.8483 107.069 46.0133 106.079 46.27C105.089 46.49 104.172 46.765 103.329 47.095C104.356 48.5983 105.437 49.9917 106.574 51.275ZM161.244 76.85C158.347 76.85 155.781 76.3183 153.544 75.255C151.344 74.2283 149.602 72.67 148.319 70.58C147.072 68.4533 146.449 65.8133 146.449 62.66C146.449 61.78 146.614 60.3867 146.944 58.48C146.027 58.2967 145.166 58.1133 144.359 57.93C143.552 57.71 142.782 57.5083 142.049 57.325C141.022 57.0317 140.234 56.39 139.684 55.4C139.171 54.41 139.079 53.3833 139.409 52.32C139.702 51.2567 140.344 50.4683 141.334 49.955C142.324 49.4417 143.351 49.35 144.414 49.68C144.891 49.8267 145.459 49.9733 146.119 50.12C146.779 50.2667 147.512 50.4133 148.319 50.56C148.466 49.7167 148.612 48.8733 148.759 48.03C148.942 47.1867 149.107 46.3433 149.254 45.5C148.374 45.3167 147.567 45.1517 146.834 45.005C146.101 44.8217 145.514 44.675 145.074 44.565C144.011 44.2717 143.204 43.6483 142.654 42.695C142.141 41.705 142.031 40.6783 142.324 39.615C142.617 38.5517 143.241 37.7633 144.194 37.25C145.184 36.7 146.211 36.5717 147.274 36.865C147.604 36.9383 148.062 37.0483 148.649 37.195C149.272 37.305 149.969 37.4333 150.739 37.58C151.032 36.1133 151.271 34.7933 151.454 33.62C151.674 32.41 151.821 31.42 151.894 30.65C152.041 29.5133 152.572 28.6333 153.489 28.01C154.442 27.35 155.487 27.1117 156.624 27.295C157.724 27.4417 158.604 27.9917 159.264 28.945C159.924 29.8617 160.162 30.87 159.979 31.97C159.869 32.8133 159.704 33.84 159.484 35.05C159.264 36.26 159.007 37.5983 158.714 39.065C159.484 39.175 160.162 39.285 160.749 39.395C161.849 39.5417 162.747 40.055 163.444 40.935C164.141 41.7783 164.416 42.75 164.269 43.85C164.122 44.95 163.609 45.8483 162.729 46.545C161.849 47.205 160.859 47.4617 159.759 47.315C159.429 47.2783 159.044 47.2233 158.604 47.15C158.164 47.0767 157.687 47.0033 157.174 46.93C157.027 47.7367 156.862 48.5617 156.679 49.405C156.532 50.2117 156.386 51 156.239 51.77C156.752 51.8067 157.266 51.8617 157.779 51.935C158.329 51.9717 158.842 52.0083 159.319 52.045C160.456 52.1183 161.391 52.5767 162.124 53.42C162.857 54.2267 163.187 55.18 163.114 56.28C163.077 57.38 162.637 58.2967 161.794 59.03C160.987 59.7633 160.034 60.1117 158.934 60.075C158.274 60.0383 157.596 59.9833 156.899 59.91C156.202 59.8367 155.506 59.7817 154.809 59.745C154.699 60.405 154.607 60.9917 154.534 61.505C154.461 61.9817 154.424 62.3667 154.424 62.66C154.424 64.7133 154.974 66.235 156.074 67.225C157.211 68.1783 158.934 68.655 161.244 68.655C163.334 68.655 165.057 68.1417 166.414 67.115C167.771 66.0517 168.449 64.695 168.449 63.045C168.449 60.9917 167.496 58.975 165.589 56.995C164.819 56.1517 164.507 55.1617 164.654 54.025C164.801 52.8517 165.332 51.9167 166.249 51.22C167.166 50.4867 168.156 50.2117 169.219 50.395C170.319 50.5417 171.254 51.0367 172.024 51.88C173.564 53.4933 174.701 55.235 175.434 57.105C176.204 58.975 176.589 60.9183 176.589 62.935C176.589 65.7217 175.929 68.16 174.609 70.25C173.326 72.3033 171.529 73.9167 169.219 75.09C166.909 76.2633 164.251 76.85 161.244 76.85ZM205.959 74.76C204.969 74.9067 204.071 74.6683 203.264 74.045C202.494 73.4217 202.036 72.615 201.889 71.625C201.742 70.635 201.981 69.755 202.604 68.985C203.227 68.1783 204.034 67.7017 205.024 67.555C208.544 67.0783 211.257 66.3633 213.164 65.41C215.107 64.42 216.427 63.3017 217.124 62.055C217.821 60.7717 218.059 59.4517 217.839 58.095C217.582 56.3717 216.959 55.125 215.969 54.355C215.016 53.585 213.531 53.2733 211.514 53.42C210.341 53.53 208.966 53.695 207.389 53.915C205.849 54.135 204.254 54.41 202.604 54.74C200.954 55.0333 199.377 55.345 197.874 55.675C196.371 56.005 195.087 56.3167 194.024 56.61C193.071 56.8667 192.154 56.7567 191.274 56.28C190.394 55.7667 189.807 55.0333 189.514 54.08C189.257 53.1267 189.367 52.21 189.844 51.33C190.357 50.45 191.109 49.8817 192.099 49.625C193.272 49.295 194.647 48.965 196.224 48.635C197.837 48.2683 199.524 47.9383 201.284 47.645C203.044 47.3517 204.767 47.095 206.454 46.875C208.141 46.6183 209.644 46.435 210.964 46.325C214.887 46.0317 218.077 46.8017 220.534 48.635C222.991 50.4683 224.476 53.2 224.989 56.83C225.282 58.81 225.136 60.7717 224.549 62.715C223.962 64.6217 222.899 66.4183 221.359 68.105C219.856 69.755 217.821 71.1667 215.254 72.34C212.724 73.5133 209.626 74.32 205.959 74.76ZM271.299 75.475C261.472 76.8317 254.029 76.2633 248.969 73.77C243.909 71.3133 241.379 67.3533 241.379 61.89C241.379 58.6633 242.186 55.8583 243.799 53.475C245.412 51.055 247.667 48.9833 250.564 47.26C250.307 45.9033 249.941 44.3633 249.464 42.64C248.987 40.88 248.492 39.1383 247.979 37.415C247.466 35.655 247.007 34.1517 246.604 32.905C246.311 31.8417 246.439 30.815 246.989 29.825C247.576 28.7983 248.401 28.1383 249.464 27.845C250.601 27.5517 251.664 27.6983 252.654 28.285C253.681 28.835 254.341 29.6417 254.634 30.705C255.184 32.6483 255.734 34.7933 256.284 37.14C256.871 39.45 257.384 41.6867 257.824 43.85C259.437 43.2267 261.161 42.6583 262.994 42.145C264.827 41.6317 266.734 41.155 268.714 40.715C269.814 40.4583 270.841 40.6233 271.794 41.21C272.747 41.7967 273.352 42.64 273.609 43.74C273.866 44.84 273.682 45.8667 273.059 46.82C272.472 47.7367 271.629 48.305 270.529 48.525C266.019 49.4417 262.352 50.45 259.529 51.55C256.742 52.6133 254.616 53.7133 253.149 54.85C251.682 55.9867 250.674 57.1417 250.124 58.315C249.611 59.4517 249.354 60.5883 249.354 61.725C249.354 62.8617 249.684 63.9067 250.344 64.86C251.004 65.8133 252.122 66.5833 253.699 67.17C255.276 67.7567 257.402 68.0867 260.079 68.16C262.792 68.2333 266.184 67.9583 270.254 67.335C271.391 67.1517 272.399 67.4267 273.279 68.16C274.159 68.8567 274.672 69.755 274.819 70.855C275.002 71.9917 274.746 73 274.049 73.88C273.352 74.76 272.436 75.2917 271.299 75.475Z" fill="#404040"/>
</svg>
