<svg width="116" height="129" viewBox="0 0 116 129" fill="none" xmlns="http://www.w3.org/2000/svg">
<rect x="2.5" y="15.5" width="111" height="111" rx="9.5" fill="white" stroke="#1F6306" stroke-width="5"/>
<path d="M12 15.5H104C109.247 15.5 113.5 19.7533 113.5 25V43.5H2.5V25C2.5 19.7533 6.75329 15.5 12 15.5Z" fill="#BD92FF" stroke="#1F6306" stroke-width="5"/>
<path d="M37.964 104.728C37.196 104.728 36.524 104.456 35.948 103.912C35.404 103.368 35.132 102.696 35.132 101.896C35.132 101.128 35.404 100.472 35.948 99.928C36.524 99.352 37.196 99.064 37.964 99.064H54.428V82.744H41.084C40.284 82.744 39.612 82.472 39.068 81.928C38.524 81.352 38.252 80.68 38.252 79.912C38.252 79.112 38.524 78.44 39.068 77.896C39.612 77.352 40.284 77.08 41.084 77.08H54.428V66.376C54.428 65.448 54.732 64.696 55.34 64.12C55.948 63.544 56.668 63.256 57.5 63.256C58.332 63.256 59.052 63.544 59.66 64.12C60.268 64.696 60.572 65.448 60.572 66.376V77.08H74.156C74.956 77.08 75.628 77.352 76.172 77.896C76.716 78.44 76.988 79.112 76.988 79.912C76.988 80.68 76.716 81.352 76.172 81.928C75.628 82.472 74.956 82.744 74.156 82.744H60.572V99.064H77.276C78.076 99.064 78.748 99.352 79.292 99.928C79.836 100.472 80.108 101.128 80.108 101.896C80.108 102.696 79.836 103.368 79.292 103.912C78.748 104.456 78.076 104.728 77.276 104.728H37.964Z" fill="#404040"/>
<line x1="31.5" y1="2.5" x2="31.5" y2="23.5" stroke="#1F6306" stroke-width="5" stroke-linecap="round"/>
<line x1="89.5" y1="2.5" x2="89.5" y2="23.5" stroke="#1F6306" stroke-width="5" stroke-linecap="round"/>
</svg>
