<svg width="116" height="129" viewBox="0 0 116 129" fill="none" xmlns="http://www.w3.org/2000/svg">
<rect x="2.5" y="15.5" width="111" height="111" rx="9.5" fill="white" stroke="#1F6306" stroke-width="5"/>
<path d="M12 15.5H104C109.247 15.5 113.5 19.7533 113.5 25V43.5H2.5V25C2.5 19.7533 6.75329 15.5 12 15.5Z" fill="#FF3B30" stroke="#1F6306" stroke-width="5"/>
<path d="M63.26 106.696C62.364 106.696 61.612 106.392 61.004 105.784C60.428 105.176 60.108 104.424 60.044 103.528C60.012 102.632 60.284 101.896 60.86 101.32C61.468 100.712 62.204 100.376 63.068 100.312C64.412 100.248 65.276 100.056 65.66 99.736C66.076 99.384 66.284 98.648 66.284 97.528V90.376H50.156C49.708 93.576 48.86 96.424 47.612 98.92C46.396 101.416 44.652 103.656 42.38 105.64C41.74 106.216 40.972 106.504 40.076 106.504C39.18 106.536 38.412 106.216 37.772 105.544C37.196 104.904 36.924 104.184 36.956 103.384C37.02 102.616 37.388 101.944 38.06 101.368C39.756 99.896 41.084 98.312 42.044 96.616C43.004 94.92 43.692 92.984 44.108 90.808C44.524 88.632 44.732 86.12 44.732 83.272V73.048C44.732 69.752 45.5 67.448 47.036 66.136C48.572 64.792 51.132 64.12 54.716 64.12H62.252C65.836 64.12 68.396 64.792 69.932 66.136C71.468 67.448 72.236 69.752 72.236 73.048V98.536C72.236 101.416 71.532 103.496 70.124 104.776C68.748 106.056 66.46 106.696 63.26 106.696ZM50.588 85.096H66.284V79.912H50.636V83.224C50.636 83.544 50.636 83.864 50.636 84.184C50.636 84.472 50.62 84.776 50.588 85.096ZM50.636 74.632H66.284V73.384C66.284 71.944 65.98 70.936 65.372 70.36C64.764 69.784 63.612 69.496 61.916 69.496H55.004C53.34 69.496 52.188 69.784 51.548 70.36C50.94 70.936 50.636 71.944 50.636 73.384V74.632Z" fill="#404040"/>
<line x1="31.5" y1="2.5" x2="31.5" y2="23.5" stroke="#1F6306" stroke-width="5" stroke-linecap="round"/>
<line x1="89.5" y1="2.5" x2="89.5" y2="23.5" stroke="#1F6306" stroke-width="5" stroke-linecap="round"/>
</svg>
