<svg width="116" height="129" viewBox="0 0 116 129" fill="none" xmlns="http://www.w3.org/2000/svg">
<rect x="2.5" y="15.5" width="111" height="111" rx="9.5" fill="white" stroke="#1F6306" stroke-width="5"/>
<path d="M12 15.5H104C109.247 15.5 113.5 19.7533 113.5 25V43.5H2.5V25C2.5 19.7533 6.75329 15.5 12 15.5Z" fill="#FFD015" stroke="#1F6306" stroke-width="5"/>
<path d="M52.844 107.176C51.884 107.176 51.132 106.92 50.588 106.408C50.044 105.928 49.74 105.288 49.676 104.488C49.58 103.656 49.804 102.952 50.348 102.376C50.892 101.768 51.708 101.416 52.796 101.32C53.82 101.256 54.492 101.08 54.812 100.792C55.132 100.504 55.292 99.96 55.292 99.16V65.032C55.292 64.2 55.548 63.544 56.06 63.064C56.604 62.552 57.26 62.296 58.028 62.296C58.764 62.296 59.404 62.552 59.948 63.064C60.492 63.544 60.764 64.2 60.764 65.032V72.28C61.116 73.464 61.532 74.632 62.012 75.784C62.524 76.936 63.068 78.072 63.644 79.192C64.572 78.424 65.596 77.56 66.716 76.6C67.836 75.608 68.908 74.632 69.932 73.672C70.988 72.712 71.868 71.88 72.572 71.176C73.116 70.632 73.772 70.344 74.54 70.312C75.34 70.248 76.028 70.504 76.604 71.08C77.148 71.592 77.42 72.232 77.42 73C77.452 73.768 77.18 74.424 76.604 74.968C75.804 75.736 74.796 76.648 73.58 77.704C72.364 78.728 71.116 79.768 69.836 80.824C68.556 81.88 67.372 82.824 66.284 83.656C69.58 88.552 73.58 92.792 78.284 96.376C78.924 96.856 79.292 97.512 79.388 98.344C79.516 99.144 79.292 99.88 78.716 100.552C78.14 101.224 77.404 101.592 76.508 101.656C75.644 101.688 74.876 101.416 74.204 100.84C71.452 98.472 68.94 95.88 66.668 93.064C64.428 90.248 62.46 87.208 60.764 83.944V99.88C60.764 102.472 60.124 104.328 58.844 105.448C57.596 106.6 55.596 107.176 52.844 107.176ZM36.332 101.32C35.82 100.776 35.58 100.12 35.612 99.352C35.644 98.584 35.932 97.944 36.476 97.432C39.1 95.128 41.404 92.616 43.388 89.896C45.404 87.176 46.86 84.44 47.756 81.688C48.076 80.728 48.076 80.088 47.756 79.768C47.436 79.448 46.764 79.288 45.74 79.288H38.732C38.028 79.288 37.42 79.032 36.908 78.52C36.396 78.008 36.14 77.4 36.14 76.696C36.14 75.96 36.396 75.336 36.908 74.824C37.42 74.312 38.028 74.056 38.732 74.056H46.076C49.308 74.056 51.468 74.664 52.556 75.88C53.676 77.096 53.852 79.128 53.084 81.976C52.028 85.976 50.396 89.576 48.188 92.776C45.98 95.944 43.452 98.792 40.604 101.32C39.996 101.864 39.292 102.152 38.492 102.184C37.692 102.216 36.972 101.928 36.332 101.32Z" fill="#404040"/>
<line x1="31.5" y1="2.5" x2="31.5" y2="23.5" stroke="#1F6306" stroke-width="5" stroke-linecap="round"/>
<line x1="89.5" y1="2.5" x2="89.5" y2="23.5" stroke="#1F6306" stroke-width="5" stroke-linecap="round"/>
</svg>
