<svg width="116" height="129" viewBox="0 0 116 129" fill="none" xmlns="http://www.w3.org/2000/svg">
<rect x="2.5" y="15.5" width="111" height="111" rx="9.5" fill="white" stroke="#1F6306" stroke-width="5"/>
<path d="M12 15.5H104C109.247 15.5 113.5 19.7533 113.5 25V43.5H2.5V25C2.5 19.7533 6.75329 15.5 12 15.5Z" fill="#FF8000" stroke="#1F6306" stroke-width="5"/>
<path d="M41.036 105.928C40.14 106.344 39.292 106.472 38.492 106.312C37.692 106.152 37.068 105.704 36.62 104.968C36.204 104.232 36.108 103.448 36.332 102.616C36.588 101.784 37.18 101.16 38.108 100.744C43.516 98.408 47.564 95.24 50.252 91.24C52.94 87.208 54.284 82.248 54.284 76.36V66.04C54.284 65.112 54.572 64.36 55.148 63.784C55.756 63.208 56.492 62.92 57.356 62.92C58.188 62.92 58.908 63.208 59.516 63.784C60.124 64.36 60.428 65.112 60.428 66.04V77.56C60.588 82.872 62.156 87.432 65.132 91.24C68.108 95.048 72.204 98.056 77.42 100.264C78.284 100.616 78.86 101.208 79.148 102.04C79.436 102.84 79.388 103.624 79.004 104.392C78.588 105.256 77.916 105.8 76.988 106.024C76.092 106.248 75.212 106.168 74.348 105.784C70.284 103.992 66.86 101.704 64.076 98.92C61.324 96.104 59.244 92.904 57.836 89.32C56.332 92.776 54.172 95.944 51.356 98.824C48.572 101.672 45.132 104.04 41.036 105.928ZM40.268 88.264C39.468 87.912 38.94 87.368 38.684 86.632C38.428 85.896 38.46 85.176 38.78 84.472C39.228 83.48 39.708 82.28 40.22 80.872C40.764 79.432 41.26 77.992 41.708 76.552C42.188 75.08 42.54 73.848 42.764 72.856C42.988 72.024 43.42 71.416 44.06 71.032C44.732 70.616 45.484 70.488 46.316 70.648C47.148 70.808 47.788 71.24 48.236 71.944C48.684 72.616 48.796 73.4 48.572 74.296C48.316 75.416 47.932 76.744 47.42 78.28C46.94 79.784 46.428 81.288 45.884 82.792C45.34 84.264 44.828 85.544 44.348 86.632C43.996 87.4 43.42 87.944 42.62 88.264C41.852 88.584 41.068 88.584 40.268 88.264ZM66.092 86.536C65.484 86.12 65.084 85.528 64.892 84.76C64.7 83.992 64.828 83.304 65.276 82.696C65.724 82.056 66.22 81.288 66.764 80.392C67.34 79.496 67.916 78.536 68.492 77.512C69.068 76.488 69.596 75.512 70.076 74.584C70.588 73.656 71.004 72.856 71.324 72.184C71.708 71.352 72.3 70.808 73.1 70.552C73.932 70.264 74.748 70.328 75.548 70.744C76.284 71.16 76.78 71.752 77.036 72.52C77.292 73.256 77.228 74.008 76.844 74.776C76.364 75.736 75.74 76.888 74.972 78.232C74.236 79.544 73.468 80.856 72.668 82.168C71.868 83.48 71.132 84.616 70.46 85.576C69.98 86.28 69.324 86.744 68.492 86.968C67.66 87.192 66.86 87.048 66.092 86.536Z" fill="#404040"/>
<line x1="31.5" y1="2.5" x2="31.5" y2="23.5" stroke="#1F6306" stroke-width="5" stroke-linecap="round"/>
<line x1="89.5" y1="2.5" x2="89.5" y2="23.5" stroke="#1F6306" stroke-width="5" stroke-linecap="round"/>
</svg>
