<svg width="116" height="129" viewBox="0 0 116 129" fill="none" xmlns="http://www.w3.org/2000/svg">
<rect x="2.5" y="15.5" width="111" height="111" rx="9.5" fill="white" stroke="#1F6306" stroke-width="5"/>
<path d="M12 15.5H104C109.247 15.5 113.5 19.7533 113.5 25V43.5H2.5V25C2.5 19.7533 6.75329 15.5 12 15.5Z" fill="#AFDD30" stroke="#1F6306" stroke-width="5"/>
<path d="M57.5 107.128C56.7 107.128 56.028 106.872 55.484 106.36C54.94 105.848 54.668 105.16 54.668 104.296V83.608C53.42 85.56 52.028 87.528 50.492 89.512C48.956 91.464 47.356 93.336 45.692 95.128C44.028 96.888 42.348 98.472 40.652 99.88C39.98 100.456 39.196 100.76 38.3 100.792C37.436 100.792 36.716 100.456 36.14 99.784C35.628 99.144 35.42 98.44 35.516 97.672C35.612 96.872 35.98 96.216 36.62 95.704C37.9 94.712 39.244 93.544 40.652 92.2C42.06 90.824 43.468 89.352 44.876 87.784C46.284 86.216 47.612 84.648 48.86 83.08C50.108 81.48 51.212 79.96 52.172 78.52H38.828C38.092 78.52 37.468 78.264 36.956 77.752C36.444 77.208 36.188 76.584 36.188 75.88C36.188 75.144 36.444 74.52 36.956 74.008C37.468 73.496 38.092 73.24 38.828 73.24H54.668V65.416C54.668 64.552 54.94 63.864 55.484 63.352C56.028 62.84 56.7 62.584 57.5 62.584C58.268 62.584 58.924 62.84 59.468 63.352C60.012 63.864 60.284 64.552 60.284 65.416V73.24H76.268C77.004 73.24 77.612 73.496 78.092 74.008C78.604 74.52 78.86 75.144 78.86 75.88C78.86 76.584 78.604 77.208 78.092 77.752C77.612 78.264 77.004 78.52 76.268 78.52H62.924C64.3 80.472 65.884 82.488 67.676 84.568C69.5 86.648 71.372 88.664 73.292 90.616C75.212 92.536 77.036 94.248 78.764 95.752C79.372 96.264 79.708 96.936 79.772 97.768C79.868 98.6 79.644 99.32 79.1 99.928C78.556 100.536 77.852 100.888 76.988 100.984C76.124 101.048 75.372 100.792 74.732 100.216C73.132 98.808 71.468 97.176 69.74 95.32C68.012 93.464 66.332 91.512 64.7 89.464C63.1 87.384 61.628 85.352 60.284 83.368V104.296C60.284 105.16 60.012 105.848 59.468 106.36C58.924 106.872 58.268 107.128 57.5 107.128Z" fill="#404040"/>
<line x1="31.5" y1="2.5" x2="31.5" y2="23.5" stroke="#1F6306" stroke-width="5" stroke-linecap="round"/>
<line x1="89.5" y1="2.5" x2="89.5" y2="23.5" stroke="#1F6306" stroke-width="5" stroke-linecap="round"/>
</svg>
