<svg width="116" height="129" viewBox="0 0 116 129" fill="none" xmlns="http://www.w3.org/2000/svg">
<rect x="2.5" y="15.5" width="111" height="111" rx="9.5" fill="white" stroke="#1F6306" stroke-width="5"/>
<path d="M12 15.5H104C109.247 15.5 113.5 19.7533 113.5 25V43.5H2.5V25C2.5 19.7533 6.75329 15.5 12 15.5Z" fill="#F791B1" stroke="#1F6306" stroke-width="5"/>
<path d="M55.676 103.96C52.956 103.96 50.7 103.768 48.908 103.384C47.116 103.032 45.692 102.392 44.636 101.464C43.612 100.504 42.876 99.192 42.428 97.528C41.98 95.864 41.756 93.736 41.756 91.144V78.376C41.756 75.784 41.98 73.656 42.428 71.992C42.876 70.328 43.612 69.032 44.636 68.104C45.692 67.144 47.116 66.488 48.908 66.136C50.7 65.752 52.956 65.56 55.676 65.56H59.324C62.044 65.56 64.3 65.752 66.092 66.136C67.884 66.488 69.292 67.144 70.316 68.104C71.372 69.032 72.124 70.328 72.572 71.992C73.02 73.656 73.244 75.784 73.244 78.376V91.144C73.244 93.736 73.02 95.864 72.572 97.528C72.124 99.192 71.372 100.504 70.316 101.464C69.292 102.392 67.884 103.032 66.092 103.384C64.3 103.768 62.044 103.96 59.324 103.96H55.676ZM55.676 98.584H59.324C61.596 98.584 63.292 98.408 64.412 98.056C65.564 97.672 66.332 96.952 66.716 95.896C67.132 94.84 67.34 93.256 67.34 91.144V87.016H47.66V91.144C47.66 93.256 47.852 94.84 48.236 95.896C48.652 96.952 49.436 97.672 50.588 98.056C51.74 98.408 53.436 98.584 55.676 98.584ZM47.66 81.784H67.34V78.376C67.34 76.264 67.132 74.68 66.716 73.624C66.332 72.536 65.564 71.816 64.412 71.464C63.292 71.112 61.596 70.936 59.324 70.936H55.676C53.436 70.936 51.74 71.112 50.588 71.464C49.436 71.816 48.652 72.536 48.236 73.624C47.852 74.68 47.66 76.264 47.66 78.376V81.784Z" fill="#404040"/>
<line x1="31.5" y1="2.5" x2="31.5" y2="23.5" stroke="#1F6306" stroke-width="5" stroke-linecap="round"/>
<line x1="89.5" y1="2.5" x2="89.5" y2="23.5" stroke="#1F6306" stroke-width="5" stroke-linecap="round"/>
</svg>
