<svg width="167" height="98" viewBox="0 0 167 98" fill="none" xmlns="http://www.w3.org/2000/svg">
<mask id="path-1-outside-1_40001603_10728" maskUnits="userSpaceOnUse" x="25.213" y="13.089" width="118.597" height="82.2608" fill="black">
<rect fill="white" x="25.213" y="13.089" width="118.597" height="82.2608"/>
<path d="M46.2138 87.514C43.0156 88.0884 41.1292 86.7765 40.5548 83.5783L33.1395 42.2919C32.5651 39.0937 33.877 37.2074 37.0752 36.6329L49.0686 34.4788C54.0114 33.5911 58.5094 33.7086 62.5627 34.8314C66.616 35.9542 70.0196 38.1941 72.7734 41.5511C75.5273 44.9082 77.4351 49.5426 78.4969 55.4545C79.5413 61.2695 79.3611 66.254 77.9563 70.408C76.5428 74.5135 74.1357 77.822 70.7352 80.3336C67.3259 82.7967 63.1499 84.4722 58.2072 85.3599L46.2138 87.514ZM49.2992 77.956L55.9137 76.768C60.6626 75.915 64.2229 73.875 66.5945 70.6478C68.9662 67.4207 69.6385 62.9481 68.6115 57.23C67.5758 51.4635 65.3891 47.5044 62.0513 45.3527C58.7049 43.1525 54.6573 42.4789 49.9084 43.3319L43.2938 44.5199L49.2992 77.956ZM95.1215 78.7299C91.9233 79.3043 90.0369 77.9924 89.4625 74.7941L82.0472 33.5078C81.7165 31.6664 81.9748 30.3194 82.8221 29.467C83.6694 28.6145 85.0138 28.0229 86.8552 27.6921C89.375 27.2396 91.4607 27.9904 93.1123 29.9448L108.754 48.5196L116.821 25.7615C117.353 24.2654 118.064 23.2123 118.955 22.6021C119.894 21.9832 121.188 21.5258 122.835 21.2299C126.034 20.6555 127.92 21.9674 128.494 25.1656L135.91 66.4519C136.484 69.6502 135.172 71.5365 131.974 72.1109C128.776 72.6854 126.889 71.3734 126.315 68.1752L120.975 38.4461L114.913 56.4923C114.15 58.9302 112.8 60.3233 110.861 60.6714C108.923 61.0196 107.172 60.1835 105.609 58.1633L93.645 43.3548L98.9845 73.0839C99.559 76.2822 98.2713 78.1641 95.1215 78.7299Z"/>
</mask>
<path d="M46.2138 87.514C43.0156 88.0884 41.1292 86.7765 40.5548 83.5783L33.1395 42.2919C32.5651 39.0937 33.877 37.2074 37.0752 36.6329L49.0686 34.4788C54.0114 33.5911 58.5094 33.7086 62.5627 34.8314C66.616 35.9542 70.0196 38.1941 72.7734 41.5511C75.5273 44.9082 77.4351 49.5426 78.4969 55.4545C79.5413 61.2695 79.3611 66.254 77.9563 70.408C76.5428 74.5135 74.1357 77.822 70.7352 80.3336C67.3259 82.7967 63.1499 84.4722 58.2072 85.3599L46.2138 87.514ZM49.2992 77.956L55.9137 76.768C60.6626 75.915 64.2229 73.875 66.5945 70.6478C68.9662 67.4207 69.6385 62.9481 68.6115 57.23C67.5758 51.4635 65.3891 47.5044 62.0513 45.3527C58.7049 43.1525 54.6573 42.4789 49.9084 43.3319L43.2938 44.5199L49.2992 77.956ZM95.1215 78.7299C91.9233 79.3043 90.0369 77.9924 89.4625 74.7941L82.0472 33.5078C81.7165 31.6664 81.9748 30.3194 82.8221 29.467C83.6694 28.6145 85.0138 28.0229 86.8552 27.6921C89.375 27.2396 91.4607 27.9904 93.1123 29.9448L108.754 48.5196L116.821 25.7615C117.353 24.2654 118.064 23.2123 118.955 22.6021C119.894 21.9832 121.188 21.5258 122.835 21.2299C126.034 20.6555 127.92 21.9674 128.494 25.1656L135.91 66.4519C136.484 69.6502 135.172 71.5365 131.974 72.1109C128.776 72.6854 126.889 71.3734 126.315 68.1752L120.975 38.4461L114.913 56.4923C114.15 58.9302 112.8 60.3233 110.861 60.6714C108.923 61.0196 107.172 60.1835 105.609 58.1633L93.645 43.3548L98.9845 73.0839C99.559 76.2822 98.2713 78.1641 95.1215 78.7299Z" fill="white"/>
<path d="M62.5627 34.8314L64.1029 29.2712L64.1029 29.2712L62.5627 34.8314ZM72.7734 41.5511L68.3127 45.2104L68.3127 45.2104L72.7734 41.5511ZM77.9563 70.408L83.4116 72.2862L83.4167 72.2713L83.4218 72.2563L77.9563 70.408ZM70.7352 80.3336L74.114 85.0103L74.1385 84.9926L74.1629 84.9746L70.7352 80.3336ZM49.2992 77.956L43.6205 78.9759L44.6404 84.6546L50.3191 83.6347L49.2992 77.956ZM66.5945 70.6478L71.2436 74.0645L66.5945 70.6478ZM62.0513 45.3527L58.8818 50.1736L58.9034 50.1879L58.9252 50.2019L62.0513 45.3527ZM43.2938 44.5199L42.2739 38.8412L36.5952 39.8611L37.6151 45.5398L43.2938 44.5199ZM46.2138 87.514L45.1939 81.8353C44.8506 81.8969 44.7733 81.8645 44.8893 81.8813C45.0344 81.9023 45.3479 81.9831 45.6946 82.2242C46.0413 82.4654 46.2261 82.7312 46.2964 82.8599C46.3525 82.9627 46.2951 82.9016 46.2335 82.5583L40.5548 83.5783L34.8761 84.5982C35.3205 87.0726 36.4637 89.8597 39.1061 91.6975C41.7486 93.5353 44.7593 93.6371 47.2337 93.1927L46.2138 87.514ZM40.5548 83.5783L46.2335 82.5583L38.8182 41.272L33.1395 42.2919L27.4608 43.3118L34.8761 84.5982L40.5548 83.5783ZM33.1395 42.2919L38.8182 41.272C38.7566 40.9287 38.789 40.8515 38.7722 40.9674C38.7512 41.1125 38.6704 41.426 38.4293 41.7727C38.1881 42.1195 37.9223 42.3043 37.7936 42.3745C37.6908 42.4306 37.7519 42.3733 38.0952 42.3116L37.0752 36.6329L36.0553 30.9542C33.5809 31.3987 30.7938 32.5418 28.956 35.1843C27.1182 37.8267 27.0164 40.8374 27.4608 43.3118L33.1395 42.2919ZM37.0752 36.6329L38.0952 42.3116L50.0886 40.1575L49.0686 34.4788L48.0487 28.8002L36.0553 30.9542L37.0752 36.6329ZM49.0686 34.4788L50.0886 40.1575C54.3431 39.3934 57.9492 39.5403 61.0225 40.3916L62.5627 34.8314L64.1029 29.2712C59.0695 27.877 53.6796 27.7888 48.0487 28.8002L49.0686 34.4788ZM62.5627 34.8314L61.0225 40.3916C63.8907 41.1861 66.2872 42.7411 68.3127 45.2104L72.7734 41.5511L77.2341 37.8919C73.752 33.6471 69.3413 30.7223 64.1029 29.2712L62.5627 34.8314ZM72.7734 41.5511L68.3127 45.2104C70.2481 47.5696 71.867 51.1783 72.8182 56.4745L78.4969 55.4545L84.1756 54.4346C83.0032 47.907 80.8065 42.2468 77.2341 37.8919L72.7734 41.5511ZM78.4969 55.4545L72.8182 56.4745C73.7478 61.6502 73.4939 65.5936 72.4908 68.5596L77.9563 70.408L83.4218 72.2563C85.2283 66.9144 85.3348 60.8888 84.1756 54.4346L78.4969 55.4545ZM77.9563 70.408L72.501 68.5297C71.457 71.5621 69.7412 73.8951 67.3074 75.6926L70.7352 80.3336L74.1629 84.9746C78.5302 81.7489 81.6285 77.4649 83.4116 72.2862L77.9563 70.408ZM70.7352 80.3336L67.3564 75.6569C64.7714 77.5245 61.4418 78.9171 57.1873 79.6812L58.2072 85.3599L59.2271 91.0386C64.858 90.0272 69.8804 88.069 74.114 85.0103L70.7352 80.3336ZM58.2072 85.3599L57.1873 79.6812L45.1939 81.8353L46.2138 87.514L47.2337 93.1927L59.2271 91.0386L58.2072 85.3599ZM49.2992 77.956L50.3191 83.6347L56.9336 82.4467L55.9137 76.768L54.8938 71.0893L48.2792 72.2773L49.2992 77.956ZM55.9137 76.768L56.9336 82.4467C62.8215 81.3892 67.8235 78.7184 71.2436 74.0645L66.5945 70.6478L61.9454 67.2312C60.6223 69.0316 58.5037 70.4409 54.8938 71.0893L55.9137 76.768ZM66.5945 70.6478L71.2436 74.0645C74.9069 69.0798 75.4697 62.7772 74.2902 56.2101L68.6115 57.23L62.9328 58.2499C63.8073 63.119 63.0254 65.7616 61.9454 67.2312L66.5945 70.6478ZM68.6115 57.23L74.2902 56.2101C73.1068 49.6214 70.3909 43.8643 65.1775 40.5035L62.0513 45.3527L58.9252 50.2019C60.3873 51.1444 62.0448 53.3056 62.9328 58.2499L68.6115 57.23ZM62.0513 45.3527L65.2209 40.5318C60.3951 37.3589 54.7763 36.5957 48.8884 37.6532L49.9084 43.3319L50.9283 49.0105C54.5383 48.3622 57.0148 48.9462 58.8818 50.1736L62.0513 45.3527ZM49.9084 43.3319L48.8884 37.6532L42.2739 38.8412L43.2938 44.5199L44.3138 50.1986L50.9283 49.0105L49.9084 43.3319ZM43.2938 44.5199L37.6151 45.5398L43.6205 78.9759L49.2992 77.956L54.9779 76.9361L48.9725 43.4999L43.2938 44.5199ZM93.1123 29.9448L97.5256 26.2285L97.519 26.2207L93.1123 29.9448ZM108.754 48.5196L104.34 52.2359L110.827 59.9389L114.192 50.4473L108.754 48.5196ZM116.821 25.7615L111.385 23.8296L111.383 23.8338L116.821 25.7615ZM118.955 22.6021L115.781 17.7843L115.737 17.8128L115.695 17.8421L118.955 22.6021ZM120.975 38.4461L126.654 37.4262L115.506 36.6087L120.975 38.4461ZM114.913 56.4923L109.443 54.6549L109.424 54.7121L109.406 54.7698L114.913 56.4923ZM105.609 58.1633L110.172 54.6323L110.135 54.5845L110.097 54.5376L105.609 58.1633ZM93.645 43.3548L98.1329 39.7291L87.9663 44.3748L93.645 43.3548ZM95.1215 78.7299L94.1016 73.0512C93.7583 73.1128 93.681 73.0804 93.797 73.0972C93.9421 73.1182 94.2556 73.199 94.6023 73.4401C94.9491 73.6813 95.1339 73.9471 95.2041 74.0758C95.2602 74.1786 95.2029 74.1175 95.1412 73.7742L89.4625 74.7941L83.7838 75.8141C84.2283 78.2885 85.3714 81.0756 88.0138 82.9134C90.6563 84.7512 93.667 84.853 96.1414 84.4085L95.1215 78.7299ZM89.4625 74.7941L95.1412 73.7742L87.7259 32.4879L82.0472 33.5078L76.3685 34.5277L83.7838 75.8141L89.4625 74.7941ZM82.0472 33.5078L87.7259 32.4879C87.6432 32.027 87.7023 31.9784 87.6592 32.2031C87.6348 32.3303 87.5783 32.5389 87.452 32.7903C87.3228 33.0472 87.1428 33.3042 86.9142 33.5342L82.8221 29.467L78.73 25.3997C75.9416 28.2051 75.8964 31.899 76.3685 34.5277L82.0472 33.5078ZM82.8221 29.467L86.9142 33.5342C86.7304 33.7191 86.6355 33.7326 86.7898 33.6647C86.9491 33.5946 87.2875 33.4764 87.8751 33.3708L86.8552 27.6921L85.8353 22.0135C83.4313 22.4452 80.7588 23.3586 78.73 25.3997L82.8221 29.467ZM86.8552 27.6921L87.8751 33.3708C88.0951 33.3313 88.2284 33.3318 88.2908 33.3358C88.3487 33.3396 88.3632 33.3473 88.355 33.3443C88.3468 33.3414 88.3626 33.3446 88.4092 33.3783C88.4593 33.4146 88.5618 33.4987 88.7056 33.6688L93.1123 29.9448L97.519 26.2207C94.5365 22.6914 90.3819 21.1969 85.8353 22.0135L86.8552 27.6921ZM93.1123 29.9448L88.699 33.6611L104.34 52.2359L108.754 48.5196L113.167 44.8033L97.5255 26.2285L93.1123 29.9448ZM108.754 48.5196L114.192 50.4473L122.259 27.6892L116.821 25.7615L111.383 23.8338L103.316 46.5918L108.754 48.5196ZM116.821 25.7615L122.258 27.6934C122.399 27.2951 122.509 27.1167 122.535 27.0786C122.555 27.049 122.465 27.1914 122.216 27.3621L118.955 22.6021L115.695 17.8421C113.425 19.397 112.141 21.7005 111.385 23.8296L116.821 25.7615ZM118.955 22.6021L122.129 27.4199C122.129 27.42 122.137 27.4149 122.154 27.4054C122.171 27.3959 122.196 27.3823 122.231 27.3654C122.302 27.3312 122.407 27.2859 122.553 27.2343C122.85 27.1294 123.274 27.0129 123.855 26.9086L122.835 21.2299L121.815 15.5512C119.74 15.9239 117.61 16.5787 115.781 17.7843L118.955 22.6021ZM122.835 21.2299L123.855 26.9086C124.199 26.8469 124.276 26.8794 124.16 26.8626C124.015 26.8415 123.701 26.7608 123.355 26.5196C123.008 26.2785 122.823 26.0126 122.753 25.884C122.697 25.7811 122.754 25.8422 122.816 26.1855L128.494 25.1656L134.173 24.1457C133.729 21.6712 132.586 18.8841 129.943 17.0464C127.301 15.2086 124.29 15.1068 121.815 15.5512L122.835 21.2299ZM128.494 25.1656L122.816 26.1855L130.231 67.4719L135.91 66.4519L141.588 65.432L134.173 24.1457L128.494 25.1656ZM135.91 66.4519L130.231 67.4719C130.293 67.8151 130.26 67.8924 130.277 67.7765C130.298 67.6314 130.379 67.3179 130.62 66.9711C130.861 66.6244 131.127 66.4396 131.256 66.3694C131.358 66.3133 131.297 66.3706 130.954 66.4322L131.974 72.1109L132.994 77.7896C135.468 77.3452 138.255 76.2021 140.093 73.5596C141.931 70.9171 142.033 67.9065 141.588 65.432L135.91 66.4519ZM131.974 72.1109L130.954 66.4322C130.611 66.4939 130.533 66.4614 130.649 66.4783C130.794 66.4993 131.108 66.58 131.455 66.8212C131.801 67.0623 131.986 67.3282 132.056 67.4569C132.113 67.5597 132.055 67.4986 131.994 67.1553L126.315 68.1752L120.636 69.1951C121.081 71.6696 122.224 74.4567 124.866 76.2945C127.509 78.1322 130.519 78.234 132.994 77.7896L131.974 72.1109ZM126.315 68.1752L131.994 67.1553L126.654 37.4262L120.975 38.4461L115.297 39.4661L120.636 69.1951L126.315 68.1752ZM120.975 38.4461L115.506 36.6087L109.443 54.6549L114.913 56.4923L120.382 58.3297L126.445 40.2835L120.975 38.4461ZM114.913 56.4923L109.406 54.7698C109.212 55.3899 109.066 55.4722 109.185 55.3496C109.251 55.2821 109.359 55.1928 109.505 55.1154C109.651 55.0383 109.774 55.0048 109.841 54.9927L110.861 60.6714L111.881 66.3501C116.583 65.5057 119.238 61.9899 120.419 58.2148L114.913 56.4923ZM110.861 60.6714L109.841 54.9927C109.909 54.9806 110.036 54.9691 110.199 54.9907C110.363 55.0124 110.496 55.0585 110.58 55.099C110.734 55.1726 110.569 55.1462 110.172 54.6323L105.609 58.1633L101.046 61.6943C103.467 64.8225 107.18 67.1945 111.881 66.3501L110.861 60.6714ZM105.609 58.1633L110.097 54.5376L98.1329 39.7291L93.645 43.3548L89.1571 46.9806L101.121 61.7891L105.609 58.1633ZM93.645 43.3548L87.9663 44.3748L93.3059 74.1038L98.9845 73.0839L104.663 72.064L99.3237 42.3349L93.645 43.3548ZM98.9845 73.0839L93.3059 74.1038C93.3688 74.4545 93.3377 74.5406 93.3527 74.4336C93.3717 74.2985 93.4478 73.987 93.688 73.6361C93.9296 73.283 94.2022 73.0872 94.348 73.0068C94.4672 72.9411 94.4252 72.993 94.1016 73.0512L95.1215 78.7299L96.1414 84.4085C98.6138 83.9645 101.392 82.8106 103.211 80.1521C105.017 77.5124 105.104 74.5168 104.663 72.064L98.9845 73.0839Z" fill="#1F6306" mask="url(#path-1-outside-1_40001603_10728)"/>
<path d="M20.1514 63.2762C20.2986 63.2762 20.4459 63.2762 23.9088 63.2026C27.3717 63.1289 34.1459 62.9817 44.4833 61.5804C54.8208 60.1792 68.5163 57.5285 76.2343 55.942C85.3124 54.076 90.0302 52.8696 96.1193 51.6825C103.557 50.2325 107.001 48.8533 110.208 47.6618C114.608 46.0266 118.015 45.5778 127.587 42.6861C132.384 41.2368 136.463 40.071 139.582 39.5534C142.978 39.0357 147.164 38.1432 150.656 37.1771C152.086 36.8 152.823 36.6527 154.027 36.9473" stroke="#FF4141" stroke-width="11.5391" stroke-linecap="round"/>
</svg>
