<svg width="240" height="133" viewBox="0 0 240 133" fill="none" xmlns="http://www.w3.org/2000/svg">
<mask id="path-1-outside-1_40001603_10737" maskUnits="userSpaceOnUse" x="6.16468" y="17.8775" width="233.663" height="104.784" fill="black">
<rect fill="white" x="6.16468" y="17.8775" width="233.663" height="104.784"/>
<path d="M21.1774 73.6006C19.9971 70.9837 19.113 67.9553 18.5249 64.5155C17.9915 61.0326 17.7614 57.2878 17.8347 53.2811C17.9568 49.2802 18.3566 45.2375 19.0338 41.153C19.2605 39.6428 19.969 38.4619 21.1595 37.61C22.3988 36.764 23.7707 36.4787 25.2751 36.7542C26.7852 36.9809 27.9388 37.711 28.736 38.9446C29.5821 40.184 29.8674 41.5559 29.5918 43.0602C28.9574 46.3567 28.579 49.584 28.4565 52.7421C28.3829 55.906 28.512 58.8211 28.8438 61.4872C29.2302 64.1102 29.7415 66.3018 30.3778 68.0618C31.2559 70.2963 32.4759 71.3068 34.0376 71.0934C35.6482 70.8857 37.1835 69.2068 38.6434 66.0568C39.2987 64.6961 40.3295 63.7264 41.7358 63.1477C43.1909 62.5748 44.5989 62.616 45.9596 63.2712C47.3203 63.9265 48.2166 64.9487 48.6486 66.3378C49.1295 67.7326 49.0883 69.1405 48.5251 70.5616C46.8699 74.5314 44.7857 77.5091 42.2726 79.4947C39.7595 81.4803 37.1569 82.5383 34.4648 82.6687C31.7726 82.7992 29.2298 82.0796 26.8361 80.5101C24.4914 78.9463 22.6051 76.6431 21.1774 73.6006ZM74.9434 74.18C73.5169 74.5084 72.1319 74.2717 70.7884 73.4697C69.4938 72.6735 68.6333 71.5564 68.2071 70.1184C67.7607 68.4302 67.005 66.6314 65.94 64.722C64.9297 62.7694 63.7613 60.8974 62.4346 59.106C61.1569 57.3203 59.8232 55.8007 58.4335 54.5472C57.3142 53.5237 56.6422 52.2799 56.4173 50.816C56.247 49.3089 56.7038 47.9497 57.7877 46.7384C58.8055 45.668 60.0622 45.0966 61.5578 45.0242C63.0592 44.9028 64.3695 45.3539 65.4887 46.3774C67.592 48.3094 69.5415 50.4961 71.3372 52.9374C73.1875 55.3355 74.7574 57.7998 76.047 60.3304C77.3911 62.8179 78.3527 65.1861 78.9317 67.4351C79.309 68.8674 79.0967 70.2552 78.2947 71.5987C77.5416 72.948 76.4245 73.8084 74.9434 74.18ZM94.5251 82.2017C93.3448 79.5847 92.4607 76.5564 91.8726 73.1166C91.3392 69.6336 91.1091 65.8889 91.1824 61.8822C91.3046 57.8813 91.7043 53.8386 92.3815 49.754C92.6082 48.2439 93.3167 47.0629 94.5072 46.2111C95.7465 45.365 97.1184 45.0798 98.6228 45.3553C100.133 45.582 101.287 46.3121 102.084 47.5457C102.93 48.7851 103.215 50.1569 102.94 51.6613C102.305 54.9577 101.927 58.185 101.804 61.3432C101.731 64.5071 101.86 67.4222 102.191 70.0883C102.578 72.7113 103.089 74.9028 103.726 76.6629C104.604 78.8974 105.824 79.9079 107.385 79.6945C108.996 79.4868 110.531 77.8079 111.991 74.6579C112.646 73.2971 113.677 72.3275 115.083 71.7488C116.539 71.1759 117.947 71.217 119.307 71.8723C120.668 72.5276 121.564 73.5498 121.996 74.9388C122.477 76.3336 122.436 77.7416 121.873 79.1627C120.218 83.1325 118.133 86.1102 115.62 88.0958C113.107 90.0813 110.505 91.1394 107.812 91.2698C105.12 91.4003 102.577 90.6807 100.184 89.1112C97.8391 87.5474 95.9529 85.2442 94.5251 82.2017ZM148.291 82.7811C146.865 83.1095 145.48 82.8727 144.136 82.0708C142.841 81.2745 141.981 80.1574 141.555 78.7195C141.108 77.0313 140.353 75.2325 139.288 73.323C138.277 71.3704 137.109 69.4984 135.782 67.707C134.505 65.9214 133.171 64.4018 131.781 63.1482C130.662 62.1247 129.99 60.881 129.765 59.4171C129.595 57.91 130.052 56.5508 131.135 55.3395C132.153 54.2691 133.41 53.6977 134.906 53.6252C136.407 53.5039 137.717 53.9549 138.836 54.9785C140.94 56.9105 142.889 59.0972 144.685 61.5384C146.535 63.9365 148.105 66.4009 149.395 68.9315C150.739 71.419 151.7 73.7872 152.279 76.0362C152.657 77.4684 152.444 78.8563 151.642 80.1998C150.889 81.5491 149.772 82.4095 148.291 82.7811ZM176.319 110.085C174.852 109.913 173.665 109.253 172.759 108.106C171.852 106.959 171.485 105.651 171.657 104.185L173.085 92.0088C172.286 92.9065 171.511 93.8071 170.761 94.7105C170.016 95.565 169.271 96.4195 168.527 97.2741C167.601 98.4048 166.339 99.0251 164.739 99.135C163.195 99.2017 161.863 98.7233 160.744 97.6998C159.673 96.682 159.126 95.4282 159.103 93.9383C159.128 92.4541 159.653 91.1524 160.676 90.0332C162.433 88.1572 164.537 85.8511 166.99 83.1149C169.491 80.3843 172.197 77.6034 175.106 74.7721L175.837 68.5375C174.868 68.7709 173.793 69.0661 172.611 69.4232C171.429 69.7803 170.219 70.159 168.983 70.5593C167.539 71.0344 166.14 70.9199 164.785 70.2157C163.478 69.5173 162.588 68.4462 162.113 67.0025C161.643 65.5099 161.758 64.1105 162.456 62.8045C163.16 61.4495 164.234 60.5344 165.678 60.0593C166.659 59.7282 167.835 59.42 169.207 59.1347C170.579 58.8494 171.948 58.5886 173.314 58.3522C174.735 58.0727 176 57.8493 177.11 57.6821L178.22 48.2202C178.392 46.7533 179.052 45.5666 180.199 44.6601C181.346 43.7537 182.653 43.3864 184.12 43.5585C185.587 43.7305 186.774 44.3901 187.68 45.5374C188.587 46.6847 188.954 47.9918 188.782 49.4588L187.655 59.0673C188.38 59.6481 188.947 60.3094 189.356 61.0513C189.523 61.3187 189.662 61.6077 189.775 61.9183C189.942 62.1858 190.057 62.4719 190.12 62.7768C192.838 61.1622 195.561 59.92 198.29 59.0504C201.068 58.1864 203.778 57.9093 206.418 58.2189C212.873 58.9758 217.666 61.6446 220.797 66.2253C223.933 70.7571 225.058 76.8126 224.169 84.3919C223.676 88.5972 222.636 92.3913 221.049 95.7744C221.821 96.8067 222.562 97.885 223.273 99.0094C223.983 100.134 224.64 101.301 225.241 102.512C225.929 103.832 226.089 105.214 225.722 106.658C225.403 108.108 224.578 109.225 223.246 110.011C221.915 110.797 220.506 110.978 219.019 110.556C217.526 110.183 216.435 109.336 215.747 108.016C215.468 107.438 215.183 106.909 214.892 106.429C214.651 105.954 214.384 105.477 214.094 104.997C212.291 106.421 210.287 107.45 208.081 108.084C205.918 108.772 203.59 108.97 201.096 108.678C198.602 108.385 196.41 107.632 194.52 106.419C192.624 105.255 191.193 103.724 190.225 101.826C189.313 99.8851 189.003 97.6676 189.295 95.1738C189.571 92.8266 190.374 90.8388 191.705 89.2104C193.091 87.5387 194.819 86.3286 196.889 85.58C199.009 84.8371 201.34 84.6148 203.883 84.913C206.768 85.2513 209.646 86.2828 212.517 88.0074C212.755 87.2423 212.948 86.4469 213.094 85.6214C213.241 84.7958 213.362 83.9674 213.46 83.1361C213.798 80.2511 213.777 77.894 213.397 76.0649C213.022 74.1868 212.4 72.7259 211.531 71.6822C210.668 70.5895 209.694 69.8061 208.61 69.332C207.525 68.8578 206.421 68.5548 205.296 68.4229C203.438 68.205 201.413 68.5624 199.222 69.4951C197.036 70.379 194.75 71.6972 192.363 73.4497C190.031 75.1591 187.671 77.1129 185.281 79.3113L182.219 105.423C182.047 106.89 181.388 108.077 180.24 108.983C179.093 109.89 177.786 110.257 176.319 110.085ZM202.24 98.9224C203.267 99.0428 204.249 98.9101 205.186 98.5243C206.124 98.1386 207.008 97.5731 207.839 96.8278C207.071 96.1924 206.264 95.6764 205.418 95.2798C204.578 94.8343 203.694 94.5571 202.765 94.4482C201.884 94.345 201.15 94.4819 200.56 94.8589C199.976 95.187 199.644 95.6933 199.564 96.3779C199.489 97.0136 199.695 97.583 200.182 98.0862C200.674 98.5404 201.36 98.8192 202.24 98.9224Z"/>
</mask>
<path d="M21.1774 73.6006C19.9971 70.9837 19.113 67.9553 18.5249 64.5155C17.9915 61.0326 17.7614 57.2878 17.8347 53.2811C17.9568 49.2802 18.3566 45.2375 19.0338 41.153C19.2605 39.6428 19.969 38.4619 21.1595 37.61C22.3988 36.764 23.7707 36.4787 25.2751 36.7542C26.7852 36.9809 27.9388 37.711 28.736 38.9446C29.5821 40.184 29.8674 41.5559 29.5918 43.0602C28.9574 46.3567 28.579 49.584 28.4565 52.7421C28.3829 55.906 28.512 58.8211 28.8438 61.4872C29.2302 64.1102 29.7415 66.3018 30.3778 68.0618C31.2559 70.2963 32.4759 71.3068 34.0376 71.0934C35.6482 70.8857 37.1835 69.2068 38.6434 66.0568C39.2987 64.6961 40.3295 63.7264 41.7358 63.1477C43.1909 62.5748 44.5989 62.616 45.9596 63.2712C47.3203 63.9265 48.2166 64.9487 48.6486 66.3378C49.1295 67.7326 49.0883 69.1405 48.5251 70.5616C46.8699 74.5314 44.7857 77.5091 42.2726 79.4947C39.7595 81.4803 37.1569 82.5383 34.4648 82.6687C31.7726 82.7992 29.2298 82.0796 26.8361 80.5101C24.4914 78.9463 22.6051 76.6431 21.1774 73.6006ZM74.9434 74.18C73.5169 74.5084 72.1319 74.2717 70.7884 73.4697C69.4938 72.6735 68.6333 71.5564 68.2071 70.1184C67.7607 68.4302 67.005 66.6314 65.94 64.722C64.9297 62.7694 63.7613 60.8974 62.4346 59.106C61.1569 57.3203 59.8232 55.8007 58.4335 54.5472C57.3142 53.5237 56.6422 52.2799 56.4173 50.816C56.247 49.3089 56.7038 47.9497 57.7877 46.7384C58.8055 45.668 60.0622 45.0966 61.5578 45.0242C63.0592 44.9028 64.3695 45.3539 65.4887 46.3774C67.592 48.3094 69.5415 50.4961 71.3372 52.9374C73.1875 55.3355 74.7574 57.7998 76.047 60.3304C77.3911 62.8179 78.3527 65.1861 78.9317 67.4351C79.309 68.8674 79.0967 70.2552 78.2947 71.5987C77.5416 72.948 76.4245 73.8084 74.9434 74.18ZM94.5251 82.2017C93.3448 79.5847 92.4607 76.5564 91.8726 73.1166C91.3392 69.6336 91.1091 65.8889 91.1824 61.8822C91.3046 57.8813 91.7043 53.8386 92.3815 49.754C92.6082 48.2439 93.3167 47.0629 94.5072 46.2111C95.7465 45.365 97.1184 45.0798 98.6228 45.3553C100.133 45.582 101.287 46.3121 102.084 47.5457C102.93 48.7851 103.215 50.1569 102.94 51.6613C102.305 54.9577 101.927 58.185 101.804 61.3432C101.731 64.5071 101.86 67.4222 102.191 70.0883C102.578 72.7113 103.089 74.9028 103.726 76.6629C104.604 78.8974 105.824 79.9079 107.385 79.6945C108.996 79.4868 110.531 77.8079 111.991 74.6579C112.646 73.2971 113.677 72.3275 115.083 71.7488C116.539 71.1759 117.947 71.217 119.307 71.8723C120.668 72.5276 121.564 73.5498 121.996 74.9388C122.477 76.3336 122.436 77.7416 121.873 79.1627C120.218 83.1325 118.133 86.1102 115.62 88.0958C113.107 90.0813 110.505 91.1394 107.812 91.2698C105.12 91.4003 102.577 90.6807 100.184 89.1112C97.8391 87.5474 95.9529 85.2442 94.5251 82.2017ZM148.291 82.7811C146.865 83.1095 145.48 82.8727 144.136 82.0708C142.841 81.2745 141.981 80.1574 141.555 78.7195C141.108 77.0313 140.353 75.2325 139.288 73.323C138.277 71.3704 137.109 69.4984 135.782 67.707C134.505 65.9214 133.171 64.4018 131.781 63.1482C130.662 62.1247 129.99 60.881 129.765 59.4171C129.595 57.91 130.052 56.5508 131.135 55.3395C132.153 54.2691 133.41 53.6977 134.906 53.6252C136.407 53.5039 137.717 53.9549 138.836 54.9785C140.94 56.9105 142.889 59.0972 144.685 61.5384C146.535 63.9365 148.105 66.4009 149.395 68.9315C150.739 71.419 151.7 73.7872 152.279 76.0362C152.657 77.4684 152.444 78.8563 151.642 80.1998C150.889 81.5491 149.772 82.4095 148.291 82.7811ZM176.319 110.085C174.852 109.913 173.665 109.253 172.759 108.106C171.852 106.959 171.485 105.651 171.657 104.185L173.085 92.0088C172.286 92.9065 171.511 93.8071 170.761 94.7105C170.016 95.565 169.271 96.4195 168.527 97.2741C167.601 98.4048 166.339 99.0251 164.739 99.135C163.195 99.2017 161.863 98.7233 160.744 97.6998C159.673 96.682 159.126 95.4282 159.103 93.9383C159.128 92.4541 159.653 91.1524 160.676 90.0332C162.433 88.1572 164.537 85.8511 166.99 83.1149C169.491 80.3843 172.197 77.6034 175.106 74.7721L175.837 68.5375C174.868 68.7709 173.793 69.0661 172.611 69.4232C171.429 69.7803 170.219 70.159 168.983 70.5593C167.539 71.0344 166.14 70.9199 164.785 70.2157C163.478 69.5173 162.588 68.4462 162.113 67.0025C161.643 65.5099 161.758 64.1105 162.456 62.8045C163.16 61.4495 164.234 60.5344 165.678 60.0593C166.659 59.7282 167.835 59.42 169.207 59.1347C170.579 58.8494 171.948 58.5886 173.314 58.3522C174.735 58.0727 176 57.8493 177.11 57.6821L178.22 48.2202C178.392 46.7533 179.052 45.5666 180.199 44.6601C181.346 43.7537 182.653 43.3864 184.12 43.5585C185.587 43.7305 186.774 44.3901 187.68 45.5374C188.587 46.6847 188.954 47.9918 188.782 49.4588L187.655 59.0673C188.38 59.6481 188.947 60.3094 189.356 61.0513C189.523 61.3187 189.662 61.6077 189.775 61.9183C189.942 62.1858 190.057 62.4719 190.12 62.7768C192.838 61.1622 195.561 59.92 198.29 59.0504C201.068 58.1864 203.778 57.9093 206.418 58.2189C212.873 58.9758 217.666 61.6446 220.797 66.2253C223.933 70.7571 225.058 76.8126 224.169 84.3919C223.676 88.5972 222.636 92.3913 221.049 95.7744C221.821 96.8067 222.562 97.885 223.273 99.0094C223.983 100.134 224.64 101.301 225.241 102.512C225.929 103.832 226.089 105.214 225.722 106.658C225.403 108.108 224.578 109.225 223.246 110.011C221.915 110.797 220.506 110.978 219.019 110.556C217.526 110.183 216.435 109.336 215.747 108.016C215.468 107.438 215.183 106.909 214.892 106.429C214.651 105.954 214.384 105.477 214.094 104.997C212.291 106.421 210.287 107.45 208.081 108.084C205.918 108.772 203.59 108.97 201.096 108.678C198.602 108.385 196.41 107.632 194.52 106.419C192.624 105.255 191.193 103.724 190.225 101.826C189.313 99.8851 189.003 97.6676 189.295 95.1738C189.571 92.8266 190.374 90.8388 191.705 89.2104C193.091 87.5387 194.819 86.3286 196.889 85.58C199.009 84.8371 201.34 84.6148 203.883 84.913C206.768 85.2513 209.646 86.2828 212.517 88.0074C212.755 87.2423 212.948 86.4469 213.094 85.6214C213.241 84.7958 213.362 83.9674 213.46 83.1361C213.798 80.2511 213.777 77.894 213.397 76.0649C213.022 74.1868 212.4 72.7259 211.531 71.6822C210.668 70.5895 209.694 69.8061 208.61 69.332C207.525 68.8578 206.421 68.5548 205.296 68.4229C203.438 68.205 201.413 68.5624 199.222 69.4951C197.036 70.379 194.75 71.6972 192.363 73.4497C190.031 75.1591 187.671 77.1129 185.281 79.3113L182.219 105.423C182.047 106.89 181.388 108.077 180.24 108.983C179.093 109.89 177.786 110.257 176.319 110.085ZM202.24 98.9224C203.267 99.0428 204.249 98.9101 205.186 98.5243C206.124 98.1386 207.008 97.5731 207.839 96.8278C207.071 96.1924 206.264 95.6764 205.418 95.2798C204.578 94.8343 203.694 94.5571 202.765 94.4482C201.884 94.345 201.15 94.4819 200.56 94.8589C199.976 95.187 199.644 95.6933 199.564 96.3779C199.489 97.0136 199.695 97.583 200.182 98.0862C200.674 98.5404 201.36 98.8192 202.24 98.9224Z" fill="white"/>
<path d="M21.1774 73.6006L15.918 75.9726L15.9358 76.0123L15.9543 76.0516L21.1774 73.6006ZM18.5249 64.5155L12.8218 65.389L12.8294 65.4384L12.8379 65.4878L18.5249 64.5155ZM17.8347 53.2811L12.0678 53.105L12.0667 53.1403L12.0661 53.1756L17.8347 53.2811ZM19.0338 41.153L24.7257 42.0967L24.7329 42.0531L24.7395 42.0093L19.0338 41.153ZM21.1595 37.61L17.9064 32.845L17.8538 32.8809L17.8021 32.918L21.1595 37.61ZM25.2751 36.7542L24.2356 42.4294L24.3269 42.4461L24.4187 42.4599L25.2751 36.7542ZM28.736 38.9446L23.8902 42.0761L23.9298 42.1374L23.971 42.1977L28.736 38.9446ZM29.5918 43.0602L35.2574 44.1506L35.2623 44.1252L35.267 44.0997L29.5918 43.0602ZM28.4565 52.7421L22.6913 52.5185L22.6895 52.5633L22.6885 52.608L28.4565 52.7421ZM28.8438 61.4872L23.1184 62.1997L23.1264 62.264L23.1358 62.3281L28.8438 61.4872ZM30.3778 68.0618L24.952 70.0234L24.979 70.0981L25.008 70.172L30.3778 68.0618ZM34.0376 71.0934L33.2997 65.3712L33.278 65.374L33.2564 65.377L34.0376 71.0934ZM38.6434 66.0568L33.4452 63.5535L33.4267 63.592L33.4088 63.6307L38.6434 66.0568ZM41.7358 63.1477L39.6221 57.7793L39.5811 57.7954L39.5403 57.8122L41.7358 63.1477ZM45.9596 63.2712L48.4629 58.073L48.4629 58.073L45.9596 63.2712ZM48.6486 66.3378L43.1393 68.051L43.1654 68.135L43.1941 68.2182L48.6486 66.3378ZM48.5251 70.5616L53.8503 72.7819L53.8699 72.7348L53.8887 72.6873L48.5251 70.5616ZM42.2726 79.4947L45.8494 84.0218L42.2726 79.4947ZM34.4648 82.6687L34.744 88.4315L34.4648 82.6687ZM26.8361 80.5101L23.6348 85.3101L23.6536 85.3226L23.6724 85.3349L26.8361 80.5101ZM74.9434 74.18L76.2379 79.8025L76.2928 79.7898L76.3474 79.7761L74.9434 74.18ZM70.7884 73.4697L67.7658 78.3842L67.7984 78.4042L67.8312 78.4238L70.7884 73.4697ZM68.2071 70.1184L62.6293 71.5935L62.6512 71.6761L62.6754 71.758L68.2071 70.1184ZM65.94 64.722L60.8158 67.3733L60.8572 67.4535L60.9012 67.5323L65.94 64.722ZM62.4346 59.106L57.7426 62.4634L57.77 62.5017L57.798 62.5396L62.4346 59.106ZM58.4335 54.5472L54.5399 58.8049L54.5545 58.8182L54.5691 58.8314L58.4335 54.5472ZM56.4173 50.816L50.6842 51.4637L50.6971 51.5782L50.7146 51.6921L56.4173 50.816ZM57.7877 46.7384L53.6066 42.7626L53.5464 42.826L53.4881 42.8911L57.7877 46.7384ZM61.5578 45.0242L61.837 50.787L61.93 50.7824L62.0227 50.775L61.5578 45.0242ZM65.4887 46.3774L69.3918 42.1284L69.3823 42.1197L65.4887 46.3774ZM71.3372 52.9374L66.6895 56.356L66.7288 56.4094L66.7693 56.4619L71.3372 52.9374ZM76.047 60.3304L70.9063 62.9499L70.938 63.012L70.9711 63.0733L76.047 60.3304ZM78.9317 67.4351L73.3443 68.8735L73.3483 68.8893L73.3525 68.905L78.9317 67.4351ZM78.2947 71.5987L73.3406 68.6416L73.2976 68.7136L73.2567 68.7869L78.2947 71.5987ZM21.1774 73.6006L26.4368 71.2286C25.4956 69.1419 24.7345 66.5999 24.2119 63.5433L18.5249 64.5155L12.8379 65.4878C13.4914 69.3107 14.4986 72.8254 15.918 75.9726L21.1774 73.6006ZM18.5249 64.5155L24.228 63.6421C23.7503 60.5235 23.5352 57.1094 23.6033 53.3866L17.8347 53.2811L12.0661 53.1756C11.9876 57.4662 12.2326 61.5417 12.8218 65.389L18.5249 64.5155ZM17.8347 53.2811L23.6015 53.4572C23.7156 49.7222 24.0891 45.936 24.7257 42.0967L19.0338 41.153L13.342 40.2092C12.624 44.539 12.1981 48.8382 12.0678 53.105L17.8347 53.2811ZM19.0338 41.153L24.7395 42.0093C24.7469 41.9597 24.7523 41.952 24.744 41.976C24.7352 42.0012 24.7163 42.0468 24.6826 42.103C24.6487 42.1594 24.6102 42.2095 24.5731 42.2492C24.5366 42.2882 24.5135 42.3045 24.5169 42.3021L21.1595 37.61L17.8021 32.918C15.2821 34.7211 13.7753 37.3176 13.3282 40.2966L19.0338 41.153ZM21.1595 37.61L24.4125 42.3751C24.4365 42.3587 24.4347 42.3629 24.4075 42.3747C24.3795 42.3868 24.3396 42.4005 24.2925 42.4103C24.2455 42.42 24.2095 42.4222 24.1911 42.4223C24.1738 42.4223 24.1868 42.4205 24.2356 42.4294L25.2751 36.7542L26.3145 31.0791C23.3474 30.5356 20.4276 31.1238 17.9064 32.845L21.1595 37.61ZM25.2751 36.7542L24.4187 42.4599C24.4753 42.4684 24.364 42.4588 24.1874 42.347C24.1057 42.2953 24.0346 42.2369 23.9782 42.1801C23.9226 42.1242 23.8954 42.0841 23.8902 42.0761L28.736 38.9446L33.5818 35.8132C31.846 33.1271 29.2052 31.5099 26.1314 31.0486L25.2751 36.7542ZM28.736 38.9446L23.971 42.1977C23.9873 42.2216 23.9832 42.2199 23.9714 42.1927C23.9593 42.1647 23.9456 42.1247 23.9358 42.0777C23.9261 42.0307 23.9239 41.9946 23.9238 41.9763C23.9238 41.959 23.9256 41.972 23.9167 42.0207L29.5918 43.0602L35.267 44.0997C35.8104 41.1326 35.2222 38.2128 33.5011 35.6916L28.736 38.9446ZM29.5918 43.0602L23.9262 41.9699C23.2402 45.5347 22.8257 49.052 22.6913 52.5185L28.4565 52.7421L34.2217 52.9657C34.3322 50.1159 34.6747 47.1786 35.2574 44.1506L29.5918 43.0602ZM28.4565 52.7421L22.6885 52.608C22.6094 56.0065 22.7461 59.2086 23.1184 62.1997L28.8438 61.4872L34.5692 60.7748C34.2778 58.4336 34.1563 55.8056 34.2245 52.8763L28.4565 52.7421ZM28.8438 61.4872L23.1358 62.3281C23.5573 65.189 24.1427 67.7849 24.952 70.0234L30.3778 68.0618L35.8037 66.1001C35.3404 64.8186 34.9031 63.0315 34.5517 60.6464L28.8438 61.4872ZM30.3778 68.0618L25.008 70.172C25.6349 71.7671 26.6199 73.5711 28.2708 74.9387C30.1172 76.4682 32.429 77.1364 34.8188 76.8098L34.0376 71.0934L33.2564 65.377C33.5877 65.3317 34.031 65.3376 34.5197 65.4777C35.0078 65.6175 35.3822 65.8456 35.6319 66.0525C36.0629 66.4095 35.9989 66.5909 35.7477 65.9516L30.3778 68.0618ZM34.0376 71.0934L34.7755 76.8156C37.3876 76.4787 39.3322 75.0182 40.6547 73.572C41.9727 72.1308 43.0159 70.3433 43.8781 68.4829L38.6434 66.0568L33.4088 63.6307C33.1212 64.2512 32.8595 64.7345 32.6314 65.1023C32.401 65.4738 32.2314 65.6842 32.1393 65.7849C31.9266 66.0176 32.2982 65.5004 33.2997 65.3712L34.0376 71.0934ZM38.6434 66.0568L43.8416 68.5601C43.8646 68.5124 43.879 68.4926 43.8797 68.4915C43.8801 68.491 43.8736 68.4996 43.8612 68.5113C43.8489 68.5229 43.8414 68.5274 43.8454 68.5248C43.8501 68.5219 43.8757 68.5061 43.9312 68.4832L41.7358 63.1477L39.5403 57.8122C36.8281 58.9282 34.7226 60.901 33.4452 63.5535L38.6434 66.0568ZM41.7358 63.1477L43.8494 68.5162C43.8954 68.498 43.9018 68.5002 43.8718 68.5057C43.8404 68.5116 43.7856 68.5181 43.7144 68.516C43.6429 68.5139 43.5767 68.5038 43.5227 68.4902C43.4699 68.4769 43.4468 68.4649 43.4563 68.4695L45.9596 63.2712L48.4629 58.073C45.5969 56.6929 42.5127 56.6412 39.6221 57.7793L41.7358 63.1477ZM45.9596 63.2712L43.4563 68.4695C43.5153 68.4979 43.4318 68.4671 43.3144 68.3333C43.2604 68.2717 43.2165 68.2075 43.1841 68.1486C43.1522 68.0907 43.1402 68.0541 43.1393 68.051L48.6486 66.3378L54.1579 64.6245C53.2306 61.6424 51.2034 59.3928 48.4629 58.073L45.9596 63.2712ZM48.6486 66.3378L43.1941 68.2182C43.2081 68.2588 43.2112 68.2786 43.2115 68.2805C43.2117 68.2819 43.2111 68.2773 43.2113 68.2712C43.2114 68.2653 43.212 68.2711 43.2074 68.2928C43.2026 68.3153 43.1906 68.3622 43.1614 68.4358L48.5251 70.5616L53.8887 72.6873C54.9399 70.0351 55.0507 67.2059 54.1031 64.4573L48.6486 66.3378ZM48.5251 70.5616L43.1999 68.3412C41.7976 71.7044 40.2205 73.763 38.6958 74.9676L42.2726 79.4947L45.8494 84.0218C49.3509 81.2553 51.9421 77.3584 53.8503 72.7819L48.5251 70.5616ZM42.2726 79.4947L38.6958 74.9676C36.944 76.3517 35.4637 76.844 34.1855 76.9059L34.4648 82.6687L34.744 88.4315C38.8501 88.2326 42.575 86.6088 45.8494 84.0218L42.2726 79.4947ZM34.4648 82.6687L34.1855 76.9059C32.7891 76.9736 31.4409 76.6302 29.9998 75.6853L26.8361 80.5101L23.6724 85.3349C27.0187 87.5291 30.7562 88.6248 34.744 88.4315L34.4648 82.6687ZM26.8361 80.5101L30.0374 75.7101C28.7237 74.834 27.4678 73.4241 26.4004 71.1496L21.1774 73.6006L15.9543 76.0516C17.7425 79.8622 20.2591 83.0586 23.6348 85.3101L26.8361 80.5101ZM74.9434 74.18L73.6489 68.5575C73.6408 68.5594 73.6573 68.555 73.6933 68.5539C73.7299 68.5527 73.7698 68.5553 73.807 68.5617C73.8437 68.568 73.8614 68.575 73.8565 68.5732C73.8506 68.5709 73.8137 68.5563 73.7456 68.5156L70.7884 73.4697L67.8312 78.4238C70.3558 79.9308 73.2547 80.4893 76.2379 79.8025L74.9434 74.18ZM70.7884 73.4697L73.8109 68.5552C73.758 68.5227 73.7341 68.5021 73.7294 68.4979C73.7252 68.4942 73.732 68.4998 73.743 68.5141C73.754 68.5284 73.7602 68.5396 73.7613 68.5418C73.7621 68.5434 73.7525 68.5251 73.7388 68.4788L68.2071 70.1184L62.6754 71.758C63.5118 74.5796 65.2777 76.8539 67.7658 78.3842L70.7884 73.4697ZM68.2071 70.1184L73.7849 68.6433C73.1889 66.3897 72.2224 64.1413 70.9789 61.9117L65.94 64.722L60.9012 67.5323C61.7875 69.1215 62.3324 70.4707 62.6293 71.5935L68.2071 70.1184ZM65.94 64.722L71.0643 62.0706C69.9106 59.8409 68.5784 57.7076 67.0712 55.6723L62.4346 59.106L57.798 62.5396C58.9441 64.0871 59.9489 65.6979 60.8158 67.3733L65.94 64.722ZM62.4346 59.106L67.1267 55.7486C65.6477 53.6816 64.0436 51.8377 62.2979 50.263L58.4335 54.5472L54.5691 58.8314C55.6027 59.7637 56.6661 60.959 57.7426 62.4634L62.4346 59.106ZM58.4335 54.5472L62.327 50.2895C62.2086 50.1812 62.1736 50.1182 62.1659 50.1039C62.159 50.0911 62.1368 50.0498 62.1199 49.9399L56.4173 50.816L50.7146 51.6921C51.1444 54.49 52.475 56.9166 54.5399 58.8049L58.4335 54.5472ZM56.4173 50.816L62.1503 50.1683C62.1512 50.1759 62.155 50.2184 62.1481 50.2873C62.1411 50.3574 62.1253 50.4324 62.1011 50.5043C62.0489 50.6597 61.9978 50.6856 62.0872 50.5857L57.7877 46.7384L53.4881 42.8911C51.3963 45.2289 50.3149 48.1948 50.6842 51.4637L56.4173 50.816ZM57.7877 46.7384L61.9687 50.7141C61.9903 50.6914 61.9924 50.6931 61.9726 50.7073C61.9521 50.7221 61.9207 50.7414 61.8816 50.7592C61.8426 50.7769 61.8114 50.7861 61.7951 50.7899C61.7798 50.7935 61.7913 50.7892 61.837 50.787L61.5578 45.0242L61.2786 39.2614C58.3237 39.4045 55.6625 40.6006 53.6066 42.7626L57.7877 46.7384ZM61.5578 45.0242L62.0227 50.775C62.0434 50.7733 62.0252 50.7765 61.9761 50.7708C61.9256 50.7648 61.8603 50.7515 61.7885 50.7268C61.7169 50.7021 61.6593 50.6732 61.6199 50.6493C61.5816 50.626 61.5742 50.6159 61.5952 50.6351L65.4887 46.3774L69.3823 42.1197C67.0899 40.0234 64.2039 39.0219 61.0929 39.2734L61.5578 45.0242ZM65.4887 46.3774L61.5856 50.6264C63.3983 52.2915 65.1012 54.1967 66.6895 56.356L71.3372 52.9374L75.9848 49.5187C73.9817 46.7955 71.7856 44.3274 69.3918 42.1284L65.4887 46.3774ZM71.3372 52.9374L66.7693 56.4619C68.4154 58.5953 69.7896 60.7584 70.9063 62.9499L76.047 60.3304L81.1876 57.7109C79.7253 54.8412 77.9596 52.0756 75.9051 49.4128L71.3372 52.9374ZM76.047 60.3304L70.9711 63.0733C72.1387 65.2341 72.9042 67.1641 73.3443 68.8735L78.9317 67.4351L84.519 65.9967C83.8011 63.2081 82.6435 60.4016 81.1228 57.5876L76.047 60.3304ZM78.9317 67.4351L73.3525 68.905C73.3539 68.9103 73.3472 68.8862 73.3444 68.838C73.3415 68.7889 73.3437 68.7332 73.3522 68.6777C73.3606 68.6227 73.3723 68.5867 73.3769 68.5743C73.3811 68.5631 73.3742 68.5853 73.3406 68.6416L78.2947 71.5987L83.2488 74.5559C84.7956 71.9645 85.3074 68.989 84.5108 65.9653L78.9317 67.4351ZM78.2947 71.5987L73.2567 68.7869C73.2377 68.821 73.2355 68.8179 73.2577 68.7917C73.2807 68.7645 73.3188 68.7257 73.3714 68.6851C73.4242 68.6445 73.4747 68.6151 73.514 68.5965C73.5523 68.5784 73.5646 68.5776 73.5394 68.5839L74.9434 74.18L76.3474 79.7761C79.3926 79.0121 81.8145 77.1306 83.3327 74.4106L78.2947 71.5987ZM94.5251 82.2017L89.2657 84.5737L89.2836 84.6133L89.302 84.6527L94.5251 82.2017ZM91.8726 73.1166L86.1696 73.99L86.1771 74.0395L86.1856 74.0888L91.8726 73.1166ZM91.1824 61.8822L85.4155 61.7061L85.4144 61.7414L85.4138 61.7767L91.1824 61.8822ZM92.3815 49.754L98.0734 50.6978L98.0806 50.6541L98.0872 50.6104L92.3815 49.754ZM94.5072 46.2111L91.2541 41.4461L91.2016 41.482L91.1498 41.519L94.5072 46.2111ZM98.6228 45.3553L97.5833 51.0305L97.6746 51.0472L97.7664 51.061L98.6228 45.3553ZM102.084 47.5457L97.2379 50.6772L97.2776 50.7385L97.3187 50.7987L102.084 47.5457ZM102.94 51.6613L108.605 52.7517L108.61 52.7263L108.615 52.7008L102.94 51.6613ZM101.804 61.3432L96.039 61.1196L96.0372 61.1643L96.0362 61.2091L101.804 61.3432ZM102.191 70.0883L96.4661 70.8008L96.4741 70.8651L96.4835 70.9292L102.191 70.0883ZM103.726 76.6629L98.2997 78.6245L98.3267 78.6992L98.3558 78.773L103.726 76.6629ZM107.385 79.6945L106.647 73.9723L106.626 73.9751L106.604 73.9781L107.385 79.6945ZM111.991 74.6579L106.793 72.1546L106.774 72.193L106.756 72.2318L111.991 74.6579ZM115.083 71.7488L112.97 66.3804L112.929 66.3965L112.888 66.4133L115.083 71.7488ZM119.307 71.8723L121.811 66.6741L121.811 66.6741L119.307 71.8723ZM121.996 74.9388L116.487 76.6521L116.513 76.7361L116.542 76.8193L121.996 74.9388ZM121.873 79.1627L127.198 81.383L127.218 81.3359L127.236 81.2884L121.873 79.1627ZM115.62 88.0958L119.197 92.6229L115.62 88.0958ZM107.812 91.2698L108.092 97.0326L107.812 91.2698ZM100.184 89.1112L96.9826 93.9111L97.0013 93.9236L97.0202 93.936L100.184 89.1112ZM148.291 82.7811L149.586 88.4035L149.64 88.3909L149.695 88.3772L148.291 82.7811ZM144.136 82.0708L141.114 86.9852L141.146 87.0053L141.179 87.0249L144.136 82.0708ZM141.555 78.7195L135.977 80.1946L135.999 80.2772L136.023 80.3591L141.555 78.7195ZM139.288 73.323L134.163 75.9744L134.205 76.0545L134.249 76.1333L139.288 73.323ZM135.782 67.707L131.09 71.0644L131.118 71.1028L131.146 71.1407L135.782 67.707ZM131.781 63.1482L127.888 67.4059L127.902 67.4192L127.917 67.4324L131.781 63.1482ZM129.765 59.4171L124.032 60.0648L124.045 60.1793L124.062 60.2932L129.765 59.4171ZM131.135 55.3395L126.954 51.3637L126.894 51.4271L126.836 51.4922L131.135 55.3395ZM134.906 53.6252L135.185 59.388L135.278 59.3835L135.37 59.376L134.906 53.6252ZM138.836 54.9785L142.74 50.7295L142.73 50.7208L138.836 54.9785ZM144.685 61.5384L140.037 64.9571L140.077 65.0105L140.117 65.0629L144.685 61.5384ZM149.395 68.9315L144.254 71.551L144.286 71.6131L144.319 71.6744L149.395 68.9315ZM152.279 76.0362L146.692 77.4746L146.696 77.4903L146.7 77.5061L152.279 76.0362ZM151.642 80.1998L146.688 77.2426L146.645 77.3147L146.604 77.3879L151.642 80.1998ZM94.5251 82.2017L99.7845 79.8297C98.8434 77.7429 98.0822 75.201 97.5597 72.1444L91.8726 73.1166L86.1856 74.0888C86.8391 77.9117 87.8463 81.4265 89.2657 84.5737L94.5251 82.2017ZM91.8726 73.1166L97.5757 72.2432C97.0981 69.1246 96.8829 65.7104 96.951 61.9877L91.1824 61.8822L85.4138 61.7767C85.3353 66.0673 85.5803 70.1427 86.1696 73.99L91.8726 73.1166ZM91.1824 61.8822L96.9493 62.0583C97.0633 58.3233 97.4368 54.5371 98.0734 50.6978L92.3815 49.754L86.6897 48.8103C85.9718 53.1401 85.5458 57.4393 85.4155 61.7061L91.1824 61.8822ZM92.3815 49.754L98.0872 50.6104C98.0946 50.5608 98.1 50.5531 98.0917 50.5771C98.083 50.6023 98.064 50.6479 98.0303 50.704C97.9965 50.7605 97.9579 50.8106 97.9208 50.8503C97.8843 50.8893 97.8612 50.9056 97.8646 50.9032L94.5072 46.2111L91.1498 41.519C88.6298 43.3222 87.123 45.9186 86.6759 48.8977L92.3815 49.754ZM94.5072 46.2111L97.7602 50.9762C97.7842 50.9598 97.7824 50.964 97.7553 50.9757C97.7272 50.9879 97.6873 51.0015 97.6402 51.0113C97.5933 51.0211 97.5572 51.0233 97.5388 51.0233C97.5216 51.0234 97.5346 51.0215 97.5833 51.0305L98.6228 45.3553L99.6623 39.6802C96.6951 39.1367 93.7753 39.7249 91.2541 41.4461L94.5072 46.2111ZM98.6228 45.3553L97.7664 51.061C97.823 51.0695 97.7117 51.0598 97.5351 50.9481C97.4534 50.8964 97.3824 50.838 97.3259 50.7811C97.2704 50.7252 97.2431 50.6852 97.2379 50.6772L102.084 47.5457L106.93 44.4143C105.194 41.7282 102.553 40.111 99.4791 39.6497L98.6228 45.3553ZM102.084 47.5457L97.3187 50.7987C97.3351 50.8227 97.3309 50.821 97.3191 50.7938C97.307 50.7658 97.2933 50.7258 97.2835 50.6787C97.2738 50.6318 97.2716 50.5957 97.2715 50.5774C97.2715 50.5601 97.2733 50.5731 97.2644 50.6218L102.94 51.6613L108.615 52.7008C109.158 49.7337 108.57 46.8139 106.849 44.2927L102.084 47.5457ZM102.94 51.6613L97.2739 50.5709C96.5879 54.1358 96.1734 57.6531 96.039 61.1196L101.804 61.3432L107.569 61.5668C107.68 58.717 108.022 55.7797 108.605 52.7517L102.94 51.6613ZM101.804 61.3432L96.0362 61.2091C95.9572 64.6075 96.0939 67.8097 96.4661 70.8008L102.191 70.0883L107.917 69.3759C107.626 67.0347 107.504 64.4067 107.572 61.4774L101.804 61.3432ZM102.191 70.0883L96.4835 70.9292C96.905 73.7901 97.4904 76.386 98.2997 78.6245L103.726 76.6629L109.151 74.7012C108.688 73.4197 108.251 71.6325 107.899 69.2474L102.191 70.0883ZM103.726 76.6629L98.3558 78.773C98.9826 80.3682 99.9676 82.1722 101.619 83.5398C103.465 85.0693 105.777 85.7375 108.167 85.4109L107.385 79.6945L106.604 73.9781C106.935 73.9328 107.379 73.9387 107.867 74.0787C108.356 74.2186 108.73 74.4466 108.98 74.6535C109.411 75.0106 109.347 75.192 109.095 74.5527L103.726 76.6629ZM107.385 79.6945L108.123 85.4167C110.735 85.0798 112.68 83.6193 114.002 82.1731C115.32 80.7318 116.364 78.9444 117.226 77.084L111.991 74.6579L106.756 72.2318C106.469 72.8522 106.207 73.3356 105.979 73.7034C105.749 74.0749 105.579 74.2853 105.487 74.386C105.274 74.6187 105.646 74.1015 106.647 73.9723L107.385 79.6945ZM111.991 74.6579L117.189 77.1611C117.212 77.1134 117.227 77.0936 117.227 77.0926C117.228 77.0921 117.221 77.1007 117.209 77.1124C117.197 77.124 117.189 77.1285 117.193 77.1259C117.198 77.123 117.223 77.1072 117.279 77.0843L115.083 71.7488L112.888 66.4133C110.176 67.5293 108.07 69.5021 106.793 72.1546L111.991 74.6579ZM115.083 71.7488L117.197 77.1172C117.243 77.0991 117.25 77.1012 117.22 77.1068C117.188 77.1126 117.133 77.1192 117.062 77.1171C116.991 77.115 116.924 77.1048 116.87 77.0913C116.818 77.078 116.795 77.066 116.804 77.0705L119.307 71.8723L121.811 66.6741C118.945 65.294 115.86 65.2423 112.97 66.3804L115.083 71.7488ZM119.307 71.8723L116.804 77.0705C116.863 77.0989 116.78 77.0682 116.662 76.9343C116.608 76.8728 116.564 76.8086 116.532 76.7497C116.5 76.6918 116.488 76.6552 116.487 76.6521L121.996 74.9388L127.506 73.2256C126.578 70.2435 124.551 67.9939 121.811 66.6741L119.307 71.8723ZM121.996 74.9388L116.542 76.8193C116.556 76.8599 116.559 76.8797 116.559 76.8816C116.559 76.883 116.559 76.8784 116.559 76.8722C116.559 76.8663 116.56 76.8722 116.555 76.8939C116.55 76.9163 116.538 76.9633 116.509 77.0369L121.873 79.1627L127.236 81.2884C128.288 78.6362 128.398 75.807 127.451 73.0584L121.996 74.9388ZM121.873 79.1627L116.548 76.9423C115.145 80.3055 113.568 82.3641 112.044 83.5687L115.62 88.0958L119.197 92.6229C122.699 89.8564 125.29 85.9595 127.198 81.383L121.873 79.1627ZM115.62 88.0958L112.044 83.5687C110.292 84.9528 108.811 85.4451 107.533 85.507L107.812 91.2698L108.092 97.0326C112.198 96.8336 115.923 95.2099 119.197 92.6229L115.62 88.0958ZM107.812 91.2698L107.533 85.507C106.137 85.5747 104.789 85.2313 103.348 84.2864L100.184 89.1112L97.0202 93.936C100.366 96.1301 104.104 97.2258 108.092 97.0326L107.812 91.2698ZM100.184 89.1112L103.385 84.3112C102.071 83.435 100.815 82.0252 99.7481 79.7507L94.5251 82.2017L89.302 84.6527C91.0902 88.4633 93.6068 91.6597 96.9826 93.9111L100.184 89.1112ZM148.291 82.7811L146.997 77.1586C146.989 77.1605 147.005 77.1561 147.041 77.1549C147.078 77.1537 147.117 77.1564 147.155 77.1628C147.191 77.169 147.209 77.1761 147.204 77.1742C147.198 77.172 147.161 77.1574 147.093 77.1167L144.136 82.0708L141.179 87.0249C143.704 88.5318 146.602 89.0904 149.586 88.4035L148.291 82.7811ZM144.136 82.0708L147.159 77.1563C147.106 77.1238 147.082 77.1032 147.077 77.099C147.073 77.0953 147.08 77.1009 147.091 77.1152C147.102 77.1295 147.108 77.1407 147.109 77.1429C147.11 77.1445 147.1 77.1261 147.087 77.0798L141.555 78.7195L136.023 80.3591C136.859 83.1807 138.625 85.455 141.114 86.9852L144.136 82.0708ZM141.555 78.7195L147.133 77.2444C146.537 74.9908 145.57 72.7424 144.327 70.5128L139.288 73.323L134.249 76.1333C135.135 77.7226 135.68 79.0718 135.977 80.1946L141.555 78.7195ZM139.288 73.323L144.412 70.6717C143.258 68.4419 141.926 66.3087 140.419 64.2734L135.782 67.707L131.146 71.1407C132.292 72.6882 133.297 74.2989 134.163 75.9744L139.288 73.323ZM135.782 67.707L140.474 64.3496C138.995 62.2826 137.391 60.4388 135.646 58.8641L131.781 63.1482L127.917 67.4324C128.95 68.3648 130.014 69.5601 131.09 71.0644L135.782 67.707ZM131.781 63.1482L135.675 58.8905C135.556 58.7823 135.521 58.7193 135.514 58.705C135.507 58.6922 135.484 58.6509 135.468 58.541L129.765 59.4171L124.062 60.2932C124.492 63.0911 125.823 65.5176 127.888 67.4059L131.781 63.1482ZM129.765 59.4171L135.498 58.7694C135.499 58.777 135.503 58.8195 135.496 58.8884C135.489 58.9584 135.473 59.0335 135.449 59.1054C135.397 59.2608 135.346 59.2867 135.435 59.1867L131.135 55.3395L126.836 51.4922C124.744 53.8299 123.663 56.7959 124.032 60.0648L129.765 59.4171ZM131.135 55.3395L135.316 59.3152C135.338 59.2925 135.34 59.2941 135.32 59.3084C135.3 59.3232 135.268 59.3425 135.229 59.3603C135.19 59.378 135.159 59.3872 135.143 59.391C135.128 59.3946 135.139 59.3902 135.185 59.388L134.906 53.6252L134.626 47.8624C131.671 48.0056 129.01 49.2017 126.954 51.3637L131.135 55.3395ZM134.906 53.6252L135.37 59.376C135.391 59.3744 135.373 59.3776 135.324 59.3718C135.273 59.3659 135.208 59.3526 135.136 59.3279C135.065 59.3032 135.007 59.2743 134.968 59.2503C134.929 59.2271 134.922 59.217 134.943 59.2362L138.836 54.9785L142.73 50.7208C140.438 48.6244 137.552 47.6229 134.441 47.8744L134.906 53.6252ZM138.836 54.9785L134.933 59.2274C136.746 60.8926 138.449 62.7978 140.037 64.9571L144.685 61.5384L149.333 58.1198C147.329 55.3965 145.133 52.9285 142.74 50.7295L138.836 54.9785ZM144.685 61.5384L140.117 65.0629C141.763 67.1964 143.137 69.3595 144.254 71.551L149.395 68.9315L154.535 66.312C153.073 63.4423 151.307 60.6766 149.253 58.0139L144.685 61.5384ZM149.395 68.9315L144.319 71.6744C145.486 73.8352 146.252 75.7652 146.692 77.4746L152.279 76.0362L157.867 74.5978C157.149 71.8092 155.991 69.0027 154.471 66.1886L149.395 68.9315ZM152.279 76.0362L146.7 77.5061C146.702 77.5114 146.695 77.4873 146.692 77.4391C146.689 77.39 146.691 77.3343 146.7 77.2788C146.708 77.2238 146.72 77.1878 146.725 77.1754C146.729 77.1641 146.722 77.1864 146.688 77.2426L151.642 80.1998L156.596 83.157C158.143 80.5655 158.655 77.59 157.859 74.5663L152.279 76.0362ZM151.642 80.1998L146.604 77.3879C146.585 77.4221 146.583 77.4189 146.605 77.3928C146.628 77.3656 146.667 77.3267 146.719 77.2862C146.772 77.2455 146.822 77.2162 146.862 77.1976C146.9 77.1794 146.912 77.1786 146.887 77.185L148.291 82.7811L149.695 88.3772C152.74 87.6132 155.162 85.7317 156.68 83.0117L151.642 80.1998ZM173.085 92.0088L178.815 92.6808L180.947 74.5022L168.776 88.1722L173.085 92.0088ZM170.761 94.7105L175.11 98.5009L175.155 98.4494L175.199 98.3968L170.761 94.7105ZM168.527 97.2741L164.177 93.4837L164.119 93.5506L164.062 93.6192L168.527 97.2741ZM164.739 99.135L164.988 104.899L165.062 104.896L165.135 104.891L164.739 99.135ZM160.744 97.6998L156.768 101.881L156.809 101.92L156.85 101.958L160.744 97.6998ZM159.103 93.9383L153.334 93.8399L153.333 93.9347L153.334 94.0296L159.103 93.9383ZM160.676 90.0332L156.465 86.0896L156.441 86.1145L156.418 86.1396L160.676 90.0332ZM166.99 83.1149L162.735 79.2176L162.714 79.2407L162.693 79.2641L166.99 83.1149ZM175.106 74.7721L179.13 78.9071L180.598 77.4785L180.837 75.444L175.106 74.7721ZM175.837 68.5375L181.568 69.2095L182.531 60.9915L174.487 62.9283L175.837 68.5375ZM172.611 69.4232L174.279 74.9462L174.279 74.9462L172.611 69.4232ZM168.983 70.5593L167.206 65.0701L167.192 65.0744L167.179 65.0789L168.983 70.5593ZM164.785 70.2157L162.064 75.3035L162.094 75.3195L162.124 75.3352L164.785 70.2157ZM162.113 67.0025L156.609 68.7333L156.62 68.7698L156.632 68.8061L162.113 67.0025ZM162.456 62.8045L167.544 65.5252L167.56 65.4952L167.576 65.465L162.456 62.8045ZM165.678 60.0593L167.482 65.5397L167.503 65.5327L167.524 65.5256L165.678 60.0593ZM169.207 59.1347L170.382 64.7834L169.207 59.1347ZM173.314 58.3522L174.298 64.0373L174.363 64.026L174.428 64.0133L173.314 58.3522ZM177.11 57.6821L177.97 63.3873L182.327 62.7308L182.841 58.354L177.11 57.6821ZM187.655 59.0673L181.925 58.3954L181.552 61.5714L184.048 63.5705L187.655 59.0673ZM189.356 61.0513L184.302 63.8352L184.378 63.9729L184.461 64.1063L189.356 61.0513ZM189.775 61.9183L184.349 63.88L184.557 64.4548L184.88 64.9733L189.775 61.9183ZM190.12 62.7768L184.471 63.9514L186.117 71.8662L193.067 67.7368L190.12 62.7768ZM198.29 59.0504L196.577 53.5411L196.558 53.547L196.538 53.5531L198.29 59.0504ZM220.797 66.2253L216.034 69.4811L216.043 69.4951L216.053 69.509L220.797 66.2253ZM221.049 95.7744L215.826 93.3249L214.357 96.4566L216.427 99.2276L221.049 95.7744ZM223.273 99.0094L228.149 95.9262L228.149 95.9261L223.273 99.0094ZM225.241 102.512L220.074 105.079L220.099 105.129L220.125 105.178L225.241 102.512ZM225.722 106.658L220.13 105.234L220.107 105.326L220.087 105.419L225.722 106.658ZM223.246 110.011L220.314 105.042L220.314 105.042L223.246 110.011ZM219.019 110.556L220.594 105.006L220.507 104.981L220.418 104.959L219.019 110.556ZM215.747 108.016L210.552 110.526L210.59 110.605L210.631 110.683L215.747 108.016ZM214.893 106.429L209.752 109.048L209.848 109.236L209.957 109.417L214.893 106.429ZM214.094 104.997L219.03 102.009L215.645 96.4181L210.517 100.47L214.094 104.997ZM208.081 108.084L206.488 102.539L206.409 102.561L206.331 102.586L208.081 108.084ZM194.52 106.419L197.636 101.564L197.588 101.533L197.539 101.503L194.52 106.419ZM190.225 101.826L185.004 104.281L185.043 104.364L185.085 104.446L190.225 101.826ZM191.705 89.2104L187.263 85.5283L187.25 85.5436L187.238 85.559L191.705 89.2104ZM196.889 85.58L194.981 80.1352L194.954 80.1446L194.928 80.1542L196.889 85.58ZM212.517 88.0074L209.546 92.9533L215.841 96.7344L218.025 89.7239L212.517 88.0074ZM213.094 85.6214L207.413 84.6141L207.413 84.6141L213.094 85.6214ZM213.397 76.0649L207.739 77.1935L207.743 77.2165L207.748 77.2395L213.397 76.0649ZM211.531 71.6822L207.004 75.259L207.05 75.317L207.098 75.3738L211.531 71.6822ZM208.61 69.332L210.921 64.0456L210.921 64.0456L208.61 69.332ZM199.222 69.4951L201.385 74.8439L201.433 74.8243L201.481 74.8038L199.222 69.4951ZM192.363 73.4497L195.774 78.103L195.778 78.1001L192.363 73.4497ZM185.281 79.3113L181.375 75.0655L179.8 76.5142L179.551 78.6393L185.281 79.3113ZM180.24 108.983L176.664 104.456L180.24 108.983ZM205.186 98.5243L202.991 93.1888L205.186 98.5243ZM207.839 96.8278L211.691 101.123L216.678 96.6508L211.516 92.3819L207.839 96.8278ZM205.418 95.2798L202.715 100.377L202.84 100.443L202.969 100.504L205.418 95.2798ZM200.56 94.8589L203.387 99.8884L203.53 99.8079L203.669 99.7194L200.56 94.8589ZM200.182 98.0862L196.033 102.096L196.147 102.214L196.268 102.325L200.182 98.0862ZM176.319 110.085L176.991 104.355C176.96 104.351 176.965 104.349 176.997 104.359C177.03 104.369 177.078 104.388 177.132 104.418C177.186 104.448 177.23 104.481 177.261 104.508C177.292 104.534 177.299 104.545 177.286 104.529L172.759 108.106L168.232 111.683C170.098 114.044 172.678 115.467 175.647 115.815L176.319 110.085ZM172.759 108.106L177.286 104.529C177.273 104.513 177.283 104.522 177.301 104.558C177.32 104.595 177.341 104.645 177.358 104.705C177.375 104.764 177.382 104.815 177.385 104.85C177.387 104.883 177.384 104.888 177.388 104.856L171.657 104.185L165.927 103.513C165.579 106.482 166.366 109.321 168.232 111.683L172.759 108.106ZM171.657 104.185L177.388 104.856L178.815 92.6808L173.085 92.0088L167.355 91.3369L165.927 103.513L171.657 104.185ZM173.085 92.0088L168.776 88.1722C167.934 89.1181 167.116 90.0687 166.322 91.0241L170.761 94.7105L175.199 98.3968C175.906 97.5454 176.638 96.6949 177.394 95.8454L173.085 92.0088ZM170.761 94.7105L166.411 90.9201C165.952 91.4469 166.311 91.0342 165.852 91.561C165.814 91.6049 165.332 92.158 165.294 92.2019C164.781 92.7909 164.69 92.8947 164.177 93.4837L168.527 97.2741L172.877 101.064C172.878 101.063 172.879 101.061 172.881 101.059C172.882 101.058 172.884 101.056 172.885 101.054C172.893 101.046 172.886 101.053 172.894 101.044C172.895 101.043 172.897 101.041 172.898 101.039C172.9 101.038 172.901 101.036 172.903 101.034C172.925 101.008 172.889 101.05 172.911 101.024C172.968 100.959 172.872 101.07 172.929 101.004C172.94 100.991 172.935 100.998 172.946 100.984C172.948 100.983 172.949 100.981 172.951 100.979C172.952 100.978 172.954 100.976 172.955 100.974C172.963 100.965 172.956 100.973 172.964 100.964C172.975 100.951 172.97 100.958 172.981 100.944C172.983 100.943 172.984 100.941 172.986 100.939C172.987 100.938 172.988 100.936 172.99 100.934C172.998 100.925 172.991 100.933 172.999 100.924C173.01 100.911 173.005 100.918 173.016 100.904C173.018 100.903 173.019 100.901 173.02 100.899C173.022 100.898 173.023 100.896 173.025 100.894C173.033 100.885 173.026 100.893 173.034 100.884C173.035 100.883 173.036 100.881 173.038 100.879C173.039 100.878 173.041 100.876 173.042 100.874C173.065 100.848 173.028 100.89 173.051 100.864C173.108 100.799 173.012 100.909 173.068 100.844C173.08 100.831 173.074 100.837 173.086 100.824C173.087 100.822 173.089 100.821 173.09 100.819C173.092 100.817 173.093 100.816 173.095 100.814C173.102 100.805 173.096 100.813 173.103 100.804C173.115 100.791 173.109 100.797 173.121 100.784C173.122 100.782 173.124 100.781 173.125 100.779C173.127 100.777 173.128 100.776 173.13 100.774C173.137 100.765 173.131 100.773 173.138 100.764C173.15 100.751 173.144 100.757 173.156 100.744C173.157 100.742 173.159 100.741 173.16 100.739C173.162 100.737 173.163 100.736 173.164 100.734C173.172 100.725 173.165 100.733 173.173 100.724C173.175 100.722 173.176 100.721 173.178 100.719C173.179 100.717 173.18 100.716 173.182 100.714C173.205 100.688 173.168 100.73 173.191 100.704C173.248 100.639 173.151 100.749 173.208 100.684C173.22 100.671 173.214 100.677 173.226 100.664C173.227 100.662 173.228 100.661 173.23 100.659C173.231 100.657 173.233 100.656 173.234 100.654C173.242 100.645 173.235 100.653 173.243 100.644C173.255 100.631 173.249 100.637 173.26 100.624C173.262 100.622 173.263 100.62 173.265 100.619C173.266 100.617 173.268 100.615 173.269 100.614C173.277 100.605 173.27 100.613 173.278 100.604C173.29 100.59 173.284 100.597 173.295 100.584C173.297 100.582 173.298 100.58 173.3 100.579C173.301 100.577 173.303 100.575 173.304 100.574C173.312 100.565 173.305 100.573 173.313 100.564C173.314 100.562 173.316 100.56 173.317 100.559C173.319 100.557 173.32 100.555 173.322 100.554C173.344 100.528 173.308 100.57 173.33 100.544C173.387 100.478 173.291 100.589 173.348 100.524C173.359 100.51 173.354 100.517 173.365 100.504C173.367 100.502 173.368 100.5 173.37 100.499C173.371 100.497 173.372 100.495 173.374 100.494C173.382 100.485 173.375 100.493 173.383 100.484C173.394 100.47 173.388 100.477 173.4 100.464C173.402 100.462 173.403 100.46 173.404 100.459C173.406 100.457 173.407 100.455 173.409 100.454C173.417 100.445 173.41 100.452 173.418 100.444C173.429 100.43 173.423 100.437 173.435 100.424C173.473 100.38 173.955 99.8266 173.993 99.7827C174.261 99.4754 174.005 99.7695 174.273 99.4622C174.54 99.1549 174.284 99.4491 174.552 99.1418C174.82 98.8345 174.843 98.8082 175.11 98.5009L170.761 94.7105ZM168.527 97.2741L164.062 93.6192C164.076 93.6026 164.109 93.5657 164.164 93.5216C164.22 93.4771 164.281 93.4385 164.341 93.4091C164.469 93.3462 164.5 93.3683 164.344 93.379L164.739 99.135L165.135 104.891C168.151 104.684 170.953 103.418 172.991 100.929L168.527 97.2741ZM164.739 99.135L164.49 93.3708C164.438 93.3731 164.423 93.3693 164.438 93.3715C164.455 93.3738 164.489 93.3806 164.532 93.3963C164.576 93.4122 164.613 93.4307 164.637 93.4458C164.661 93.4604 164.661 93.4635 164.637 93.4421L160.744 97.6998L156.85 101.958C159.121 104.034 161.951 105.03 164.988 104.899L164.739 99.135ZM160.744 97.6998L164.719 93.5188C164.704 93.5038 164.715 93.5119 164.739 93.546C164.764 93.5809 164.793 93.6298 164.819 93.6892C164.845 93.7485 164.86 93.8005 164.867 93.8369C164.875 93.8721 164.872 93.8783 164.872 93.847L159.103 93.9383L153.334 94.0296C153.382 97.0527 154.564 99.7852 156.768 101.881L160.744 97.6998ZM159.103 93.9383L164.872 94.0367C164.872 93.9923 164.876 93.9741 164.876 93.9764C164.875 93.9792 164.873 93.9906 164.867 94.0049C164.861 94.0192 164.858 94.0232 164.863 94.0149C164.869 94.0058 164.889 93.9759 164.934 93.9267L160.676 90.0332L156.418 86.1396C154.468 88.2725 153.384 90.9154 153.334 93.8399L159.103 93.9383ZM160.676 90.0332L164.888 93.9768C166.682 92.0603 168.817 89.7211 171.286 86.9656L166.99 83.1149L162.693 79.2641C160.258 81.9811 158.183 84.2541 156.465 86.0896L160.676 90.0332ZM166.99 83.1149L171.244 87.0121C173.664 84.3703 176.292 81.6686 179.13 78.9071L175.106 74.7721L171.083 70.6371C168.101 73.5382 165.318 76.3983 162.735 79.2176L166.99 83.1149ZM175.106 74.7721L180.837 75.444L181.568 69.2095L175.837 68.5375L170.107 67.8656L169.376 74.1001L175.106 74.7721ZM175.837 68.5375L174.487 62.9283C173.389 63.1925 172.206 63.5185 170.942 63.9002L172.611 69.4232L174.279 74.9462C175.38 74.6137 176.347 74.3492 177.188 74.1468L175.837 68.5375ZM172.611 69.4232L170.942 63.9002C169.722 64.2688 168.477 64.6588 167.206 65.0701L168.983 70.5593L170.759 76.0484C171.962 75.6592 173.135 75.2918 174.279 74.9462L172.611 69.4232ZM168.983 70.5593L167.179 65.0789C167.148 65.0892 167.15 65.0854 167.182 65.0813C167.215 65.0771 167.264 65.0747 167.321 65.0794C167.378 65.084 167.424 65.0942 167.453 65.1028C167.481 65.1112 167.479 65.1138 167.445 65.0962L164.785 70.2157L162.124 75.3352C164.85 76.7521 167.859 77.0031 170.786 76.0396L168.983 70.5593ZM164.785 70.2157L167.505 65.1279C167.48 65.1146 167.483 65.1133 167.502 65.1289C167.522 65.145 167.548 65.1693 167.573 65.1998C167.599 65.2301 167.613 65.2535 167.617 65.2619C167.621 65.2694 167.611 65.2517 167.593 65.1989L162.113 67.0025L156.632 68.8061C157.558 71.6175 159.412 73.8856 162.064 75.3035L164.785 70.2157ZM162.113 67.0025L167.617 65.2716C167.597 65.2092 167.595 65.1859 167.597 65.1978C167.598 65.211 167.601 65.2487 167.597 65.3041C167.592 65.3601 167.582 65.4148 167.567 65.4619C167.554 65.5081 167.541 65.53 167.544 65.5252L162.456 62.8045L157.369 60.0837C155.894 62.8411 155.704 65.8543 156.609 68.7333L162.113 67.0025ZM162.456 62.8045L167.576 65.465C167.597 65.424 167.606 65.4156 167.596 65.4285C167.585 65.4421 167.564 65.4664 167.532 65.4935C167.5 65.5207 167.471 65.5391 167.454 65.5489C167.437 65.5582 167.443 65.5526 167.482 65.5397L165.678 60.0593L163.874 54.5789C160.992 55.5275 158.732 57.4592 157.337 60.1439L162.456 62.8045ZM165.678 60.0593L167.524 65.5256C168.223 65.2894 169.163 65.0367 170.382 64.7834L169.207 59.1347L168.032 53.486C166.507 53.8032 165.094 54.1669 163.832 54.593L165.678 60.0593ZM169.207 59.1347L170.382 64.7834C171.691 64.5112 172.996 64.2625 174.298 64.0373L173.314 58.3522L172.33 52.6671C170.9 52.9147 169.467 53.1876 168.032 53.486L169.207 59.1347ZM173.314 58.3522L174.428 64.0133C175.787 63.7459 176.965 63.5386 177.97 63.3873L177.11 57.6821L176.251 51.9769C175.035 52.16 173.683 52.3995 172.2 52.6912L173.314 58.3522ZM177.11 57.6821L182.841 58.354L183.95 48.8922L178.22 48.2202L172.49 47.5483L171.38 57.0101L177.11 57.6821ZM178.22 48.2202L183.95 48.8922C183.954 48.8608 183.956 48.8658 183.946 48.898C183.935 48.9313 183.917 48.979 183.886 49.0331C183.856 49.0873 183.824 49.1314 183.797 49.1626C183.771 49.1932 183.759 49.2 183.776 49.1872L180.199 44.6601L176.622 40.133C174.26 41.9989 172.838 44.5789 172.49 47.5483L178.22 48.2202ZM180.199 44.6601L183.776 49.1872C183.792 49.1743 183.783 49.1839 183.747 49.2025C183.71 49.2215 183.66 49.2426 183.6 49.2594C183.541 49.2761 183.49 49.2834 183.455 49.2859C183.421 49.2882 183.417 49.2851 183.448 49.2887L184.12 43.5585L184.792 37.8282C181.823 37.48 178.984 38.2672 176.622 40.133L180.199 44.6601ZM184.12 43.5585L183.448 49.2887C183.48 49.2924 183.475 49.2945 183.442 49.2844C183.409 49.274 183.361 49.2551 183.307 49.225C183.253 49.1949 183.209 49.1627 183.178 49.1357C183.147 49.1094 183.14 49.0979 183.153 49.1142L187.68 45.5374L192.207 41.9606C190.342 39.5991 187.762 38.1764 184.792 37.8282L184.12 43.5585ZM187.68 45.5374L183.153 49.1142C183.166 49.1305 183.157 49.1211 183.138 49.0853C183.119 49.0487 183.098 48.9983 183.081 48.9387C183.064 48.8791 183.057 48.8283 183.055 48.7935C183.052 48.7598 183.055 48.7554 183.052 48.7868L188.782 49.4588L194.512 50.1307C194.86 47.1614 194.073 44.3222 192.207 41.9606L187.68 45.5374ZM188.782 49.4588L183.052 48.7868L181.925 58.3954L187.655 59.0673L193.385 59.7393L194.512 50.1307L188.782 49.4588ZM187.655 59.0673L184.048 63.5705C184.24 63.7244 184.292 63.817 184.302 63.8352L189.356 61.0513L194.409 58.2674C193.602 56.8017 192.52 55.5717 191.262 54.5642L187.655 59.0673ZM189.356 61.0513L184.461 64.1063C184.403 64.013 184.368 63.9334 184.349 63.88L189.775 61.9183L195.2 59.9567C194.957 59.2821 194.642 58.6245 194.25 57.9963L189.356 61.0513ZM189.775 61.9183L184.88 64.9733C184.691 64.6707 184.548 64.3213 184.471 63.9514L190.12 62.7768L195.769 61.6021C195.565 60.6225 195.192 59.7009 194.669 58.8634L189.775 61.9183ZM190.12 62.7768L193.067 67.7368C195.446 66.3233 197.771 65.2713 200.042 64.5476L198.29 59.0504L196.538 53.5531C193.351 54.5688 190.229 56.001 187.173 57.8167L190.12 62.7768ZM198.29 59.0504L200.003 64.5597C202.084 63.9126 203.98 63.7422 205.746 63.9492L206.418 58.2189L207.09 52.4886C203.575 52.0764 200.052 52.4602 196.577 53.5411L198.29 59.0504ZM206.418 58.2189L205.746 63.9492C210.856 64.5485 214.009 66.5187 216.034 69.4811L220.797 66.2253L225.56 62.9695C221.323 56.7706 214.889 53.4032 207.09 52.4886L206.418 58.2189ZM220.797 66.2253L216.053 69.509C218.129 72.5083 219.227 76.9988 218.438 83.7199L224.169 84.3919L229.899 85.0639C230.888 76.6265 229.738 69.006 225.541 62.9416L220.797 66.2253ZM224.169 84.3919L218.438 83.7199C218.008 87.3902 217.116 90.5725 215.826 93.3249L221.049 95.7744L226.273 98.224C228.155 94.2102 229.343 89.8042 229.899 85.0639L224.169 84.3919ZM221.049 95.7744L216.427 99.2276C217.106 100.136 217.762 101.091 218.396 102.093L223.273 99.0094L228.149 95.9261C227.361 94.6793 226.535 93.4773 225.671 92.3212L221.049 95.7744ZM223.273 99.0094L218.396 102.093C219 103.047 219.559 104.043 220.074 105.079L225.241 102.512L230.408 99.9445C229.72 98.5599 228.967 97.22 228.149 95.9262L223.273 99.0094ZM225.241 102.512L220.125 105.178C220.148 105.223 220.154 105.243 220.153 105.241C220.153 105.241 220.152 105.237 220.15 105.229C220.149 105.222 220.147 105.212 220.146 105.203C220.145 105.193 220.144 105.183 220.144 105.176C220.144 105.172 220.144 105.169 220.144 105.167C220.144 105.166 220.144 105.165 220.144 105.165C220.144 105.164 220.144 105.164 220.144 105.164C220.144 105.164 220.144 105.164 220.144 105.165C220.144 105.166 220.144 105.167 220.144 105.168C220.144 105.17 220.143 105.174 220.142 105.18C220.14 105.191 220.137 105.209 220.13 105.234L225.722 106.658L231.313 108.081C232.03 105.264 231.702 102.425 230.358 99.8454L225.241 102.512ZM225.722 106.658L220.087 105.419C220.086 105.422 220.093 105.39 220.117 105.335C220.142 105.279 220.177 105.217 220.222 105.157C220.319 105.025 220.388 104.999 220.314 105.042L223.246 110.011L226.179 114.98C228.825 113.418 230.678 110.983 231.357 107.897L225.722 106.658ZM223.246 110.011L220.314 105.042C220.282 105.061 220.282 105.057 220.313 105.047C220.345 105.035 220.393 105.022 220.453 105.014C220.513 105.007 220.563 105.007 220.597 105.01C220.629 105.013 220.63 105.016 220.594 105.006L219.019 110.556L217.443 116.106C220.449 116.96 223.488 116.568 226.179 114.98L223.246 110.011ZM219.019 110.556L220.418 104.959C220.36 104.944 220.463 104.962 220.619 105.084C220.692 105.14 220.752 105.201 220.798 105.257C220.821 105.284 220.837 105.307 220.848 105.324C220.853 105.332 220.857 105.338 220.86 105.343C220.863 105.347 220.864 105.35 220.864 105.35L215.747 108.016L210.631 110.683C212.111 113.522 214.587 115.395 217.619 116.153L219.019 110.556ZM215.747 108.016L220.943 105.507C220.595 104.788 220.225 104.097 219.828 103.441L214.893 106.429L209.957 109.417C210.141 109.721 210.341 110.089 210.552 110.526L215.747 108.016ZM214.893 106.429L220.033 103.809C219.724 103.203 219.389 102.603 219.03 102.009L214.094 104.997L209.158 107.985C209.38 108.351 209.577 108.706 209.752 109.048L214.893 106.429ZM214.094 104.997L210.517 100.47C209.302 101.43 207.972 102.112 206.488 102.539L208.081 108.084L209.674 113.629C212.601 112.788 215.28 111.413 217.671 109.524L214.094 104.997ZM208.081 108.084L206.331 102.586C205.03 103 203.534 103.154 201.768 102.947L201.096 108.678L200.424 114.408C203.645 114.786 206.807 114.544 209.83 113.582L208.081 108.084ZM201.096 108.678L201.768 102.947C200.041 102.745 198.706 102.25 197.636 101.564L194.52 106.419L191.404 111.275C194.115 113.015 197.163 114.026 200.424 114.408L201.096 108.678ZM194.52 106.419L197.539 101.503C196.506 100.869 195.829 100.115 195.366 99.2067L190.225 101.826L185.085 104.446C186.556 107.333 188.742 109.642 191.501 111.336L194.52 106.419ZM190.225 101.826L195.447 99.3717C195.066 98.5609 194.837 97.4556 195.026 95.8457L189.295 95.1738L183.565 94.5018C183.169 97.8796 183.56 101.209 185.004 104.281L190.225 101.826ZM189.295 95.1738L195.026 95.8457C195.189 94.4526 195.621 93.5355 196.172 92.8618L191.705 89.2104L187.238 85.559C185.126 88.1422 183.952 91.2006 183.565 94.5018L189.295 95.1738ZM191.705 89.2104L196.147 92.8925C196.866 92.0244 197.733 91.4099 198.851 91.0059L196.889 85.58L194.928 80.1542C191.904 81.2474 189.315 83.0531 187.263 85.5283L191.705 89.2104ZM196.889 85.58L198.798 91.0248C199.981 90.61 201.416 90.4328 203.211 90.6433L203.883 84.913L204.555 79.1827C201.264 78.7967 198.037 79.0643 194.981 80.1352L196.889 85.58ZM203.883 84.913L203.211 90.6433C205.167 90.8727 207.27 91.5861 209.546 92.9533L212.517 88.0074L215.488 83.0616C212.022 80.9795 208.368 79.6299 204.555 79.1827L203.883 84.913ZM212.517 88.0074L218.025 89.7239C218.339 88.7158 218.588 87.683 218.775 86.6287L213.094 85.6214L207.413 84.6141C207.307 85.2108 207.171 85.7687 207.009 86.291L212.517 88.0074ZM213.094 85.6214L218.775 86.6287C218.941 85.692 219.08 84.7518 219.19 83.8081L213.46 83.1361L207.73 82.4642C207.645 83.183 207.54 83.8996 207.413 84.6141L213.094 85.6214ZM213.46 83.1361L219.19 83.8081C219.565 80.6094 219.602 77.5661 219.046 74.8903L213.397 76.0649L207.748 77.2395C207.952 78.222 208.031 79.8929 207.73 82.4642L213.46 83.1361ZM213.397 76.0649L219.055 74.9363C218.565 72.4798 217.65 70.0142 215.965 67.9905L211.531 71.6822L207.098 75.3738C207.151 75.4377 207.48 75.8939 207.739 77.1935L213.397 76.0649ZM211.531 71.6822L216.058 68.1054C214.712 66.4009 213.014 64.9609 210.921 64.0456L208.61 69.332L206.298 74.6183C206.374 74.6514 206.624 74.7782 207.004 75.259L211.531 71.6822ZM208.61 69.332L210.921 64.0456C209.339 63.3538 207.683 62.8937 205.968 62.6926L205.296 68.4229L204.624 74.1532C205.158 74.2158 205.712 74.3618 206.298 74.6183L208.61 69.332ZM205.296 68.4229L205.968 62.6926C202.876 62.33 199.83 62.9658 196.962 64.1865L199.222 69.4951L201.481 74.8038C202.996 74.159 204 74.08 204.624 74.1532L205.296 68.4229ZM199.222 69.4951L197.059 64.1464C194.332 65.249 191.628 66.8317 188.948 68.7993L192.363 73.4497L195.778 78.1001C197.872 76.5626 199.74 75.509 201.385 74.8439L199.222 69.4951ZM192.363 73.4497L188.952 68.7964C186.428 70.6465 183.903 72.7395 181.375 75.0655L185.281 79.3113L189.188 83.5571C191.438 81.4864 193.634 79.6716 195.774 78.103L192.363 73.4497ZM185.281 79.3113L179.551 78.6393L176.489 104.751L182.219 105.423L187.95 106.095L191.012 79.9833L185.281 79.3113ZM182.219 105.423L176.489 104.751C176.485 104.782 176.483 104.778 176.493 104.745C176.504 104.712 176.523 104.664 176.553 104.61C176.583 104.556 176.615 104.512 176.642 104.481C176.668 104.45 176.68 104.443 176.664 104.456L180.24 108.983L183.817 113.51C186.179 111.644 187.601 109.064 187.95 106.095L182.219 105.423ZM180.24 108.983L176.664 104.456C176.647 104.469 176.657 104.459 176.692 104.441C176.729 104.422 176.779 104.401 176.839 104.384C176.899 104.367 176.949 104.36 176.984 104.357C177.018 104.355 177.022 104.358 176.991 104.355L176.319 110.085L175.647 115.815C178.616 116.163 181.456 115.376 183.817 113.51L180.24 108.983ZM202.24 98.9224L201.568 104.653C203.548 104.885 205.519 104.626 207.382 103.86L205.186 98.5243L202.991 93.1888C202.977 93.1944 202.971 93.1961 202.971 93.1962C202.97 93.1963 202.972 93.1959 202.974 93.1956C202.976 93.1953 202.974 93.1957 202.966 93.1958C202.958 93.1958 202.941 93.1955 202.912 93.1921L202.24 98.9224ZM205.186 98.5243L207.382 103.86C208.985 103.2 210.421 102.263 211.691 101.123L207.839 96.8278L203.987 92.5327C203.596 92.8835 203.263 93.077 202.991 93.1888L205.186 98.5243ZM207.839 96.8278L211.516 92.3819C210.398 91.4572 209.182 90.6726 207.868 90.0561L205.418 95.2798L202.969 100.504C203.346 100.68 203.744 100.928 204.162 101.274L207.839 96.8278ZM205.418 95.2798L208.121 90.1827C206.66 89.4077 205.088 88.9115 203.437 88.7179L202.765 94.4482L202.093 100.178C202.299 100.203 202.496 100.261 202.715 100.377L205.418 95.2798ZM202.765 94.4482L203.437 88.7179C201.594 88.5018 199.435 88.7301 197.452 89.9984L200.56 94.8589L203.669 99.7194C202.865 100.234 202.175 100.188 202.093 100.178L202.765 94.4482ZM200.56 94.8589L197.733 89.8294C195.485 91.0928 194.122 93.2515 193.834 95.706L199.564 96.3779L205.294 97.0499C205.245 97.4734 205.087 98.0548 204.698 98.6484C204.305 99.2474 203.814 99.6483 203.387 99.8884L200.56 94.8589ZM199.564 96.3779L193.834 95.706C193.537 98.2349 194.472 100.48 196.033 102.096L200.182 98.0862L204.33 94.0767C204.565 94.3195 204.875 94.7297 205.088 95.3201C205.307 95.9257 205.355 96.5302 205.294 97.0499L199.564 96.3779ZM200.182 98.0862L196.268 102.325C197.906 103.838 199.865 104.453 201.568 104.653L202.24 98.9224L202.912 93.1921C202.854 93.1853 203.442 93.2434 204.095 93.8471L200.182 98.0862Z" fill="#1F6306" mask="url(#path-1-outside-1_40001603_10737)"/>
<path d="M6.06348 51.6895C10.2394 51.6895 25.8993 52.7439 38.4398 55.4082C42.7629 56.3266 56.7391 59.3825 76.9243 64.1717C95.2108 68.5103 101.454 69.7917 115.181 73.3785C121.555 75.0438 128.396 75.6553 133.178 76.3184C137.372 76.8999 140.755 77.253 145.525 77.9161C149.441 78.4606 153.94 78.8507 162.767 80.1769C169.08 81.1251 174.146 82.5734 179.059 83.1087C185.498 83.8102 191.523 85.4973 198.414 86.5677C211.181 88.5508 218.768 90.8337 222.843 91.4967C225.773 91.6325 228.324 91.8961 230.004 92.4274C230.85 92.695 231.683 92.9586 233.384 93.2302" stroke="#FF4141" stroke-width="11.5391" stroke-linecap="round"/>
</svg>
