<svg width="116" height="129" viewBox="0 0 116 129" fill="none" xmlns="http://www.w3.org/2000/svg">
<rect x="2.5" y="15.5" width="111" height="111" rx="9.5" fill="white" stroke="#1F6306" stroke-width="5"/>
<path d="M12 15.5H104C109.247 15.5 113.5 19.7533 113.5 25V43.5H2.5V25C2.5 19.7533 6.75329 15.5 12 15.5Z" fill="#00BBFF" stroke="#1F6306" stroke-width="5"/>
<path d="M39.116 105.256C38.348 105.256 37.74 105.016 37.292 104.536C36.844 104.056 36.62 103.48 36.62 102.808C36.62 102.104 36.844 101.512 37.292 101.032C37.74 100.552 38.348 100.312 39.116 100.312H47.372C47.276 100.248 47.18 100.168 47.084 100.072C47.02 99.976 46.956 99.88 46.892 99.784C46.636 99.368 46.284 98.856 45.836 98.248C45.42 97.608 44.988 97 44.54 96.424C44.092 95.816 43.74 95.352 43.484 95.032C43.036 94.488 42.844 93.864 42.908 93.16C43.004 92.424 43.324 91.848 43.868 91.432C44.508 90.952 45.212 90.744 45.98 90.808C46.748 90.872 47.388 91.208 47.9 91.816C48.156 92.136 48.508 92.616 48.956 93.256C49.436 93.864 49.9 94.472 50.348 95.08C50.796 95.688 51.132 96.168 51.356 96.52C51.804 97.128 51.964 97.8 51.836 98.536C51.74 99.24 51.404 99.832 50.828 100.312H54.476V90.712H42.092C41.292 90.712 40.668 90.456 40.22 89.944C39.772 89.432 39.548 88.824 39.548 88.12C39.548 87.416 39.772 86.824 40.22 86.344C40.668 85.832 41.292 85.576 42.092 85.576H54.476V81.784H48.62C47.852 81.784 47.244 81.544 46.796 81.064C46.348 80.584 46.124 79.992 46.124 79.288C46.124 78.648 46.3 78.104 46.652 77.656C45.308 78.616 43.964 79.544 42.62 80.44C41.308 81.304 40.076 82.072 38.924 82.744C38.156 83.16 37.356 83.288 36.524 83.128C35.724 82.968 35.1 82.536 34.652 81.832C34.204 81.096 34.092 80.36 34.316 79.624C34.572 78.856 35.036 78.296 35.708 77.944C37.18 77.176 38.732 76.264 40.364 75.208C41.996 74.152 43.612 73.016 45.212 71.8C46.812 70.584 48.3 69.368 49.676 68.152C51.084 66.936 52.3 65.784 53.324 64.696C54.636 63.352 56.028 62.664 57.5 62.632C58.972 62.568 60.332 63.16 61.58 64.408C62.604 65.432 63.836 66.536 65.276 67.72C66.748 68.904 68.3 70.088 69.932 71.272C71.564 72.456 73.18 73.544 74.78 74.536C76.38 75.528 77.836 76.344 79.148 76.984C79.884 77.336 80.38 77.96 80.636 78.856C80.892 79.752 80.796 80.568 80.348 81.304C79.836 82.104 79.148 82.616 78.284 82.84C77.42 83.032 76.572 82.888 75.74 82.408C74.524 81.704 73.148 80.856 71.612 79.864C70.108 78.84 68.572 77.752 67.004 76.6C65.468 75.416 64.012 74.248 62.636 73.096C61.26 71.912 60.108 70.808 59.18 69.784C58.22 68.728 57.244 68.712 56.252 69.736C55.228 70.792 53.964 71.944 52.46 73.192C50.956 74.44 49.356 75.688 47.66 76.936C47.916 76.808 48.236 76.744 48.62 76.744H66.236C67.004 76.744 67.612 77 68.06 77.512C68.54 77.992 68.78 78.584 68.78 79.288C68.78 79.992 68.54 80.584 68.06 81.064C67.612 81.544 67.004 81.784 66.236 81.784H60.524V85.576H72.764C73.532 85.576 74.14 85.832 74.588 86.344C75.068 86.824 75.308 87.416 75.308 88.12C75.308 88.824 75.068 89.432 74.588 89.944C74.14 90.456 73.532 90.712 72.764 90.712H60.524V100.312H64.028C63.548 99.864 63.26 99.32 63.164 98.68C63.068 98.04 63.212 97.448 63.596 96.904C63.82 96.584 64.124 96.12 64.508 95.512C64.892 94.872 65.276 94.232 65.66 93.592C66.044 92.952 66.332 92.472 66.524 92.152C66.908 91.48 67.468 91.048 68.204 90.856C68.94 90.664 69.644 90.744 70.316 91.096C70.988 91.448 71.42 91.992 71.612 92.728C71.804 93.464 71.724 94.152 71.372 94.792C71.148 95.176 70.844 95.704 70.46 96.376C70.076 97.016 69.692 97.656 69.308 98.296C68.924 98.904 68.604 99.384 68.348 99.736C68.284 99.864 68.204 99.976 68.108 100.072C68.044 100.136 67.964 100.216 67.868 100.312H75.5C76.268 100.312 76.876 100.552 77.324 101.032C77.772 101.512 77.996 102.104 77.996 102.808C77.996 103.48 77.772 104.056 77.324 104.536C76.876 105.016 76.268 105.256 75.5 105.256H39.116Z" fill="#404040"/>
<line x1="31.5" y1="2.5" x2="31.5" y2="23.5" stroke="#1F6306" stroke-width="5" stroke-linecap="round"/>
<line x1="89.5" y1="2.5" x2="89.5" y2="23.5" stroke="#1F6306" stroke-width="5" stroke-linecap="round"/>
</svg>
