<svg width="212" height="57" viewBox="0 0 212 57" fill="none" xmlns="http://www.w3.org/2000/svg">
<g clip-path="url(#clip0_40001603_10842)">
<g clip-path="url(#clip1_40001603_10842)">
<g clip-path="url(#clip2_40001603_10842)">
<path fill-rule="evenodd" clip-rule="evenodd" d="M19.7848 18.3244C15.9952 17.6085 13.5632 17.1491 15.6918 13.9595C20.4963 8.06877 28.0821 7.74576 35.1176 12.441C42.1531 17.1362 44.9671 24.3996 41.1696 30.9623C39.041 34.1519 37.6835 32.0824 35.5682 28.8576C34.0135 26.4874 32.0495 23.4932 29.0691 21.5042C26.0887 19.5152 22.5701 18.8505 19.7848 18.3244Z" fill="#5DB53E"/>
<rect width="2.3" height="3.26843" rx="1.15" transform="matrix(-0.831784 -0.555099 -0.555099 0.831784 37.4863 10.9653)" fill="#5DB53E"/>
<rect width="2.3" height="3.26843" rx="1.15" transform="matrix(-0.831784 -0.555099 -0.555099 0.831784 15.5117 43.8945)" fill="#5DB53E"/>
<path fill-rule="evenodd" clip-rule="evenodd" d="M14.9586 19.2414C15.8333 19.6177 17.1014 19.8573 18.5748 20.1356C21.3601 20.6618 24.8787 21.3265 27.8591 23.3155C30.8395 25.3044 32.8035 28.2987 34.3582 30.6688C35.1809 31.9231 35.889 33.0026 36.5724 33.6658C35.8781 35.3006 35.0029 36.9302 33.9466 38.513C27.7668 47.7731 19.7291 49.2566 13.5279 45.1181C7.3266 40.9796 5.31007 32.7864 11.4899 23.5263C12.5463 21.9434 13.7153 20.5098 14.9586 19.2414Z" fill="#5DB53E"/>
</g>
<path d="M78.534 46.0902C77.7294 46.1421 77.0286 45.9085 76.4316 45.3893C75.8346 44.8702 75.4972 44.2083 75.4193 43.4037C75.3674 42.5991 75.601 41.8982 76.1201 41.3013C76.6392 40.6783 77.3011 40.3409 78.1057 40.289C80.8052 40.1073 82.8817 39.3805 84.3352 38.1087C85.7888 36.8368 86.5155 35.0588 86.5155 32.7747C86.5155 31.399 86.0743 30.1531 85.1918 29.037C84.3352 27.8949 83.1412 27.0384 81.6098 26.4673C81.1167 27.7911 80.5716 29.05 79.9746 30.2439C79.4035 31.4379 78.7806 32.567 78.1057 33.6312C78.2615 33.735 78.4172 33.8518 78.573 33.9816C78.7287 34.0855 78.8714 34.2023 79.0012 34.332C79.6761 34.7733 80.0784 35.3833 80.2082 36.1619C80.3639 36.9406 80.2082 37.6674 79.741 38.3423C79.2997 38.9912 78.6898 39.3935 77.9111 39.5492C77.1324 39.679 76.4056 39.5233 75.7308 39.082C75.5491 38.9522 75.3544 38.8095 75.1467 38.6537C74.9391 38.498 74.7314 38.3423 74.5238 38.1865C73.7711 38.9133 72.9924 39.5882 72.1877 40.2111C71.3831 40.834 70.5395 41.3921 69.657 41.8853C68.3852 42.612 67.1133 43.0144 65.8415 43.0922C64.5696 43.1701 63.4146 42.9495 62.3763 42.4303C61.3381 41.9112 60.5075 41.1196 59.8845 40.0554C59.2616 38.9912 58.9501 37.6674 58.9501 36.0841C58.9501 33.7999 59.4173 31.7364 60.3518 29.8935C61.3121 28.0507 62.558 26.4544 64.0894 25.1046C63.6222 24.2481 63.194 23.4045 62.8046 22.5739C62.4153 21.7174 62.0778 20.9127 61.7923 20.16C61.5328 19.4073 61.5717 18.6675 61.9091 17.9407C62.2725 17.214 62.8306 16.7208 63.5833 16.4613C64.336 16.1757 65.0628 16.2147 65.7636 16.5781C66.4904 16.9155 66.9835 17.4606 67.2431 18.2133C67.4767 18.8362 67.7363 19.4722 68.0218 20.1211C68.3073 20.77 68.6188 21.4318 68.9562 22.1067C70.254 21.5357 71.5908 21.1074 72.9664 20.8219C74.3681 20.5104 75.7697 20.3547 77.1713 20.3547H77.4439C77.5736 19.7577 77.7034 19.1477 77.8332 18.5248C77.9889 17.8759 78.1187 17.227 78.2225 16.5781C78.3523 15.7734 78.7417 15.1375 79.3906 14.6703C80.0395 14.2031 80.7533 14.0344 81.5319 14.1641C82.3366 14.2939 82.9595 14.6962 83.4008 15.3711C83.868 16.02 84.0367 16.7338 83.9069 17.5125C83.8031 18.1614 83.6863 18.7973 83.5565 19.4203C83.4527 20.0172 83.3229 20.6142 83.1672 21.2112C86.0224 22.0937 88.2416 23.5602 89.8249 25.6108C91.4083 27.6354 92.1999 30.0233 92.1999 32.7747C92.1999 35.2924 91.6548 37.5117 90.5647 39.4324C89.5005 41.3532 87.9561 42.8846 85.9315 44.0266C83.9069 45.1687 81.4411 45.8566 78.534 46.0902ZM67.0484 36.9796C67.6973 36.6421 68.3073 36.2528 68.8783 35.8115C69.4753 35.3443 70.0464 34.8382 70.5914 34.2931C69.9685 33.6182 69.3585 32.9045 68.7615 32.1517C68.1905 31.373 67.6195 30.5944 67.0484 29.8157C65.4392 31.5807 64.6345 33.5404 64.6345 35.6947C64.6345 36.4215 64.8551 36.9147 65.2964 37.1742C65.7377 37.4338 66.3217 37.3689 67.0484 36.9796ZM74.0177 29.621C74.3291 29.024 74.6406 28.4011 74.9521 27.7522C75.2635 27.1033 75.5491 26.4284 75.8086 25.7276C75.0819 25.7795 74.3681 25.8963 73.6672 26.078C72.9664 26.2337 72.3175 26.4284 71.7205 26.662C72.4473 27.7262 73.213 28.7125 74.0177 29.621ZM116.612 47.7254C114.561 47.7254 112.744 47.349 111.161 46.5963C109.603 45.8695 108.371 44.7664 107.462 43.2869C106.58 41.7814 106.138 39.9126 106.138 37.6804C106.138 37.0574 106.255 36.0711 106.489 34.7214C105.84 34.5916 105.23 34.4618 104.659 34.332C104.088 34.1763 103.543 34.0335 103.024 33.9038C102.297 33.6961 101.739 33.2419 101.349 32.5411C100.986 31.8403 100.921 31.1135 101.155 30.3608C101.362 29.608 101.817 29.05 102.517 28.6866C103.218 28.3232 103.945 28.2583 104.698 28.4919C105.035 28.5957 105.438 28.6996 105.905 28.8034C106.372 28.9072 106.891 29.011 107.462 29.1149C107.566 28.5179 107.67 27.9209 107.774 27.3239C107.903 26.7269 108.02 26.1299 108.124 25.5329C107.501 25.4031 106.93 25.2863 106.411 25.1825C105.892 25.0527 105.476 24.9489 105.165 24.871C104.412 24.6634 103.841 24.2221 103.452 23.5473C103.089 22.8465 103.011 22.1197 103.218 21.367C103.426 20.6142 103.867 20.0562 104.542 19.6928C105.243 19.3034 105.97 19.2126 106.722 19.4203C106.956 19.4722 107.28 19.55 107.696 19.6539C108.137 19.7317 108.63 19.8226 109.175 19.9264C109.383 18.8881 109.552 17.9537 109.681 17.1231C109.837 16.2666 109.941 15.5658 109.993 15.0207C110.097 14.216 110.473 13.5931 111.122 13.1518C111.797 12.6846 112.537 12.5159 113.341 12.6457C114.12 12.7495 114.743 13.1389 115.21 13.8137C115.677 14.4626 115.846 15.1764 115.716 15.9551C115.638 16.5521 115.521 17.2789 115.366 18.1354C115.21 18.992 115.028 19.9394 114.821 20.9776C115.366 21.0555 115.846 21.1334 116.261 21.2112C117.04 21.315 117.676 21.6784 118.169 22.3014C118.662 22.8984 118.857 23.5862 118.753 24.3649C118.649 25.1436 118.286 25.7795 117.663 26.2727C117.04 26.7399 116.339 26.9216 115.56 26.8177C115.327 26.7918 115.054 26.7529 114.743 26.7009C114.431 26.649 114.094 26.5971 113.731 26.5452C113.627 27.1162 113.51 27.7002 113.38 28.2972C113.276 28.8683 113.172 29.4263 113.069 29.9714C113.432 29.9974 113.795 30.0363 114.159 30.0882C114.548 30.1142 114.912 30.1401 115.249 30.1661C116.054 30.218 116.715 30.5424 117.235 31.1394C117.754 31.7105 117.987 32.3853 117.935 33.164C117.909 33.9427 117.598 34.5916 117.001 35.1107C116.43 35.6298 115.755 35.8764 114.976 35.8505C114.509 35.8245 114.029 35.7856 113.536 35.7337C113.043 35.6818 112.55 35.6428 112.056 35.6169C111.978 36.0841 111.914 36.4994 111.862 36.8628C111.81 37.2002 111.784 37.4727 111.784 37.6804C111.784 39.1339 112.173 40.2111 112.952 40.9119C113.756 41.5868 114.976 41.9242 116.612 41.9242C118.091 41.9242 119.311 41.5608 120.271 40.834C121.232 40.0813 121.712 39.1209 121.712 37.9529C121.712 36.4994 121.037 35.0718 119.687 33.6702C119.142 33.0732 118.922 32.3724 119.026 31.5677C119.129 30.7371 119.506 30.0752 120.155 29.5821C120.804 29.0629 121.504 28.8683 122.257 28.9981C123.036 29.1019 123.698 29.4523 124.243 30.0493C125.333 31.1913 126.138 32.4243 126.657 33.748C127.202 35.0718 127.474 36.4475 127.474 37.875C127.474 39.8477 127.007 41.5738 126.073 43.0533C125.164 44.5068 123.892 45.6489 122.257 46.4795C120.622 47.3101 118.74 47.7254 116.612 47.7254ZM152.159 46.2459C151.458 46.3497 150.822 46.181 150.251 45.7397C149.706 45.2985 149.381 44.7275 149.277 44.0266C149.174 43.3258 149.342 42.7029 149.784 42.1578C150.225 41.5868 150.796 41.2493 151.497 41.1455C153.988 40.8081 155.909 40.3019 157.259 39.6271C158.635 38.9263 159.569 38.1346 160.062 37.2521C160.555 36.3436 160.724 35.4092 160.568 34.4488C160.387 33.2289 159.945 32.3464 159.245 31.8013C158.57 31.2562 157.518 31.0356 156.091 31.1394C155.26 31.2173 154.287 31.3341 153.171 31.4898C152.081 31.6456 150.952 31.8402 149.784 32.0739C148.616 32.2815 147.499 32.5021 146.435 32.7357C145.371 32.9693 144.463 33.19 143.71 33.3976C143.035 33.5793 142.386 33.5014 141.763 33.164C141.14 32.8006 140.725 32.2815 140.517 31.6066C140.336 30.9318 140.413 30.2829 140.751 29.6599C141.114 29.037 141.646 28.6347 142.347 28.453C143.178 28.2194 144.151 27.9858 145.267 27.7522C146.409 27.4926 147.603 27.259 148.849 27.0513C150.095 26.8437 151.315 26.662 152.509 26.5063C153.703 26.3246 154.767 26.1948 155.702 26.1169C158.479 25.9093 160.737 26.4544 162.476 27.7522C164.215 29.05 165.266 30.9837 165.63 33.5534C165.837 34.955 165.734 36.3436 165.318 37.7193C164.903 39.069 164.15 40.3409 163.06 41.5349C161.996 42.7029 160.555 43.7022 158.738 44.5328C156.947 45.3634 154.754 45.9344 152.159 46.2459ZM202.306 46.752C195.35 47.7124 190.08 47.3101 186.498 45.5451C182.917 43.806 181.126 41.0028 181.126 37.1353C181.126 34.8512 181.697 32.8655 182.839 31.1784C183.981 29.4653 185.577 27.9987 187.628 26.7788C187.446 25.8184 187.186 24.7283 186.849 23.5083C186.511 22.2624 186.161 21.0295 185.798 19.8096C185.434 18.5637 185.11 17.4995 184.824 16.617C184.617 15.8643 184.707 15.1375 185.097 14.4367C185.512 13.7099 186.096 13.2427 186.849 13.035C187.654 12.8274 188.406 12.9312 189.107 13.3465C189.834 13.7359 190.301 14.3069 190.509 15.0596C190.898 16.4353 191.287 17.9537 191.677 19.6149C192.092 21.2502 192.455 22.8335 192.767 24.3649C193.909 23.9236 195.129 23.5213 196.427 23.1579C197.724 22.7945 199.074 22.4571 200.476 22.1456C201.255 21.9639 201.981 22.0808 202.656 22.496C203.331 22.9113 203.759 23.5083 203.941 24.287C204.123 25.0657 203.993 25.7925 203.552 26.4673C203.136 27.1162 202.539 27.5186 201.761 27.6743C198.568 28.3232 195.972 29.037 193.974 29.8157C192.001 30.5684 190.496 31.3471 189.457 32.1517C188.419 32.9564 187.705 33.774 187.316 34.6046C186.953 35.4092 186.771 36.2139 186.771 37.0185C186.771 37.8231 187.005 38.5629 187.472 39.2377C187.939 39.9126 188.731 40.4577 189.847 40.873C190.963 41.2883 192.468 41.5219 194.363 41.5738C196.284 41.6257 198.685 41.431 201.566 40.9898C202.371 40.86 203.084 41.0547 203.707 41.5738C204.33 42.067 204.694 42.7029 204.798 43.4816C204.927 44.2862 204.746 45 204.252 45.6229C203.759 46.2459 203.11 46.6223 202.306 46.752Z" fill="#404040"/>
</g>
</g>
<defs>
<clipPath id="clip0_40001603_10842">
<rect width="212" height="56.2721" fill="white" transform="matrix(-1 8.74228e-08 8.74228e-08 1 212 0)"/>
</clipPath>
<clipPath id="clip1_40001603_10842">
<rect width="212" height="56.272" fill="white"/>
</clipPath>
<clipPath id="clip2_40001603_10842">
<rect width="30.6303" height="42.8566" fill="white" transform="matrix(-0.831784 -0.555099 -0.555099 0.831784 49.2676 18.8276)"/>
</clipPath>
</defs>
</svg>
