<svg width="165" height="165" viewBox="0 0 165 165" fill="none" xmlns="http://www.w3.org/2000/svg">
<mask id="mask0_40001603_10785" style="mask-type:alpha" maskUnits="userSpaceOnUse" x="0" y="0" width="165" height="165">
<rect width="165" height="165" rx="32.2266" fill="#FAFAFA"/>
</mask>
<g mask="url(#mask0_40001603_10785)">
<path d="M138.908 39.3171C73.1652 29.4138 30.2706 90.0249 10.012 137.829C3.55939 153.055 12.0228 169.831 27.4198 175.865L203.797 244.986C223.023 252.521 244.276 240.283 247.409 219.872L262.362 122.483C263.284 116.481 262.618 110.257 259.337 105.149C245.564 83.7092 208.6 49.8152 138.908 39.3171Z" fill="#C5DEBC"/>
<ellipse cx="82.8375" cy="85.2725" rx="6.46538" ry="9.69807" transform="rotate(23.4706 82.8375 85.2725)" fill="#5DB53E"/>
<ellipse cx="115.455" cy="99.4356" rx="6.46538" ry="9.69807" transform="rotate(23.4706 115.455 99.4356)" fill="#5DB53E"/>
<path d="M77.8926 120.677C82.2028 127.142 93.8944 139.75 106.179 138.457" stroke="#5DB53E" stroke-width="5.06686" stroke-linecap="round"/>
</g>
<rect x="0.580986" y="0.580986" width="163.838" height="163.838" rx="31.6456" stroke="#CCCCCC" stroke-width="1.16197"/>
</svg>
