<svg width="261" height="261" viewBox="0 0 261 261" fill="none" xmlns="http://www.w3.org/2000/svg">
<g filter="url(#filter0_d_40001603_10821)">
<rect x="10" width="251" height="251" rx="36" fill="white"/>
<rect x="12.5" y="2.5" width="246" height="246" rx="33.5" stroke="#1F6306" stroke-width="5"/>
</g>
<line x1="54" y1="70.5" x2="167" y2="70.5" stroke="#404040" stroke-width="3"/>
<line x1="54" y1="102.5" x2="130" y2="102.5" stroke="#404040" stroke-width="3"/>
<line x1="54" y1="134.5" x2="207" y2="134.5" stroke="#404040" stroke-width="3"/>
<line x1="54" y1="166.5" x2="179" y2="166.5" stroke="#404040" stroke-width="3"/>
<line x1="54" y1="198.5" x2="155" y2="198.5" stroke="#404040" stroke-width="3"/>
<path d="M227.333 44H231.3C232.239 44 233 44.7387 233 45.65V64.35C233 65.2613 232.239 66 231.3 66H200.7C199.761 66 199 65.2613 199 64.35V45.65C199 44.7387 199.761 44 200.7 44H204.667M227.333 44V33C227.333 29.3333 225.067 22 216 22C206.933 22 204.667 29.3333 204.667 33V44M227.333 44H204.667" stroke="#404040" stroke-width="5.51862" stroke-linecap="round" stroke-linejoin="round"/>
<defs>
<filter id="filter0_d_40001603_10821" x="0" y="0" width="261" height="261" filterUnits="userSpaceOnUse" color-interpolation-filters="sRGB">
<feFlood flood-opacity="0" result="BackgroundImageFix"/>
<feColorMatrix in="SourceAlpha" type="matrix" values="0 0 0 0 0 0 0 0 0 0 0 0 0 0 0 0 0 0 127 0" result="hardAlpha"/>
<feOffset dx="-10" dy="10"/>
<feComposite in2="hardAlpha" operator="out"/>
<feColorMatrix type="matrix" values="0 0 0 0 0.0508921 0 0 0 0 0.15486 0 0 0 0 0.0126685 0 0 0 1 0"/>
<feBlend mode="normal" in2="BackgroundImageFix" result="effect1_dropShadow_40001603_10821"/>
<feBlend mode="normal" in="SourceGraphic" in2="effect1_dropShadow_40001603_10821" result="shape"/>
</filter>
</defs>
</svg>
