<svg width="318" height="140" viewBox="0 0 318 140" fill="none" xmlns="http://www.w3.org/2000/svg">
<mask id="path-1-outside-1_40001603_10734" maskUnits="userSpaceOnUse" x="19.8536" y="17.4572" width="286.169" height="110.185" fill="black">
<rect fill="white" x="19.8536" y="17.4572" width="286.169" height="110.185"/>
<path d="M48.7811 118.452C47.5009 119.391 46.0503 119.705 44.4291 119.395C42.8624 119.128 41.6339 118.352 40.7435 117.066C39.7987 115.737 39.438 114.317 39.6615 112.804C39.8795 111.243 40.6313 110.018 41.917 109.127C44.6673 107.178 46.9333 105.11 48.7151 102.924C50.4969 100.738 51.8237 98.2571 52.6957 95.4814C53.6165 92.7002 54.139 89.469 54.2631 85.7877C54.3873 82.1065 54.1697 77.8202 53.6104 72.9287C53.3811 70.9232 53.056 68.7304 52.6352 66.3504C52.2144 63.9703 51.795 62.0361 51.377 60.5477C51.0024 59.0048 51.2587 57.5632 52.1461 56.2229C53.0335 54.8825 54.227 54.0523 55.7265 53.7322C57.275 53.4065 58.6922 53.6656 59.978 54.5097C61.3127 55.3481 62.1674 56.5388 62.5421 58.0817C62.9992 59.9125 63.4193 62.0696 63.8024 64.5531C64.2288 66.9821 64.5734 69.346 64.8363 71.645C65.6306 78.5909 65.7567 84.8947 65.2148 90.5563C64.6729 96.2179 63.1289 101.35 60.5828 105.952C58.0311 110.506 54.0972 114.672 48.7811 118.452ZM37.583 95.2769C36.0065 95.3581 34.662 94.8676 33.5495 93.8055C32.4859 92.7378 31.9295 91.3396 31.8805 89.6108C31.8273 88.2789 31.6861 86.6102 31.4567 84.6047C31.2274 82.5992 30.9324 80.4525 30.5717 78.1647C30.211 75.8769 29.8314 73.6408 29.433 71.4564C29.0345 69.2721 28.6179 67.3623 28.1832 65.7272C27.7917 64.0375 28.0425 62.547 28.9355 61.2556C29.8229 59.9152 31.0163 59.085 32.5159 58.7649C34.07 58.4881 35.4872 58.7472 36.7674 59.5424C38.0476 60.3375 38.8751 61.5065 39.2497 63.0494C39.5587 64.4512 39.9179 66.2932 40.3276 68.5754C40.7372 70.8576 41.1419 73.3138 41.5418 75.944C41.9361 78.5253 42.2975 81.036 42.6261 83.4762C42.9491 85.8674 43.1567 87.9002 43.2491 89.5745C43.3792 91.1453 42.8614 92.4682 41.6959 93.543C40.5304 94.6178 39.1594 95.1957 37.583 95.2769ZM116.017 109.054C114.501 109.227 113.116 108.815 111.862 107.819C110.614 106.872 109.9 105.615 109.721 104.05C109.542 102.485 109.954 101.1 110.956 99.8949C111.952 98.6412 113.209 97.9277 114.725 97.7543C116.584 97.5417 117.776 97.1329 118.301 96.5277C118.827 95.9225 118.994 94.7884 118.804 93.1253L116.497 72.9479L97.7872 75.0874C96.2708 75.2607 94.913 74.8709 93.7139 73.9178C92.5147 72.9648 91.8284 71.73 91.655 70.2137C91.4816 68.6973 91.8715 67.3396 92.8245 66.1404C93.7776 64.9412 95.0123 64.2549 96.5287 64.0815L115.239 61.9421L114.408 54.6782C114.229 53.113 114.616 51.7307 115.569 50.5316C116.522 49.3324 117.781 48.6433 119.347 48.4643C120.912 48.2853 122.27 48.6752 123.42 49.6338C124.619 50.5869 125.308 51.8461 125.487 53.4114L126.318 60.6752L143.707 58.6868C145.272 58.5078 146.63 58.8977 147.78 59.8563C148.979 60.8094 149.666 62.0441 149.839 63.5605C150.013 65.0768 149.623 66.4346 148.67 67.6338C147.765 68.8274 146.531 69.5136 144.965 69.6926L127.576 71.681L130.009 92.959C130.591 98.0461 129.788 101.855 127.599 104.384C125.405 106.865 121.544 108.422 116.017 109.054ZM100.755 100.392C99.5239 101.326 98.1277 101.684 96.5666 101.466C95.0055 101.248 93.7553 100.499 92.8161 99.2189C91.8768 97.9388 91.5462 96.5643 91.8242 95.0954C92.0967 93.5776 92.8184 92.3058 93.9895 91.2799C95.6051 89.8067 97.3016 88.1757 99.0792 86.3867C100.851 84.5487 102.458 82.7793 103.898 81.0784C104.9 79.8736 106.069 79.0462 107.405 78.5961C108.736 78.0971 110.063 78.2179 111.387 78.9585C112.759 79.6935 113.654 80.8053 114.072 82.2937C114.539 83.7764 114.353 85.1852 113.515 86.52C111.93 89.1293 109.967 91.6828 107.627 94.1804C105.329 96.6235 103.039 98.6942 100.755 100.392ZM154.922 92.4145C153.866 93.5759 152.574 94.1944 151.046 94.27C149.513 94.2967 148.12 93.8118 146.866 92.8154C145.334 91.5535 143.544 90.1972 141.495 88.7467C139.446 87.2961 137.362 85.9734 135.243 84.7786C133.92 84.038 133.027 82.9508 132.566 81.5169C132.148 80.0285 132.285 78.6253 132.977 77.3073C133.712 75.9349 134.799 75.0425 136.239 74.6301C137.727 74.2121 139.13 74.349 140.448 75.0407C142.458 76.1489 144.773 77.5442 147.394 79.2267C150.014 80.9093 152.366 82.6225 154.448 84.3666C155.696 85.3141 156.339 86.6033 156.377 88.2343C156.458 89.8107 155.973 91.2041 154.922 92.4145ZM146.254 56.9089C144.151 57.1494 142.257 56.6227 140.573 55.3286C138.932 53.9801 137.991 52.2541 137.751 50.1508C137.51 48.0474 138.04 46.1782 139.339 44.5429C140.682 42.8532 142.406 41.888 144.509 41.6475C146.612 41.407 148.484 41.961 150.125 43.3096C151.76 44.6092 152.698 46.3107 152.939 48.4141C153.179 50.5174 152.652 52.4111 151.358 54.0953C150.059 55.7305 148.357 56.6684 146.254 56.9089ZM145.692 51.993C146.426 51.9091 147.031 51.5674 147.507 50.9678C147.984 50.3682 148.18 49.7015 148.096 48.9678C148.012 48.2341 147.671 47.6289 147.071 47.1524C146.471 46.6759 145.805 46.4796 145.071 46.5635C144.288 46.6529 143.659 46.9975 143.182 47.5971C142.755 48.1911 142.583 48.8549 142.667 49.5887C142.751 50.3224 143.068 50.9303 143.618 51.4124C144.218 51.889 144.909 52.0825 145.692 51.993ZM176.719 99.0649C175.427 99.9063 173.996 100.169 172.423 99.8534C170.894 99.4831 169.706 98.6279 168.859 97.2877C168.012 95.9475 167.75 94.5157 168.071 92.9923C168.441 91.4633 169.296 90.2753 170.637 89.4283C177.061 85.3736 182.633 80.7969 187.352 75.6982C192.071 70.5996 195.828 65.3137 198.621 59.8406C199.556 58.0489 199.71 56.7925 199.082 56.0713C198.504 55.3446 197.285 55.0876 195.426 55.3001L175.983 57.5234C174.466 57.6968 173.081 57.2853 171.827 56.2889C170.574 55.2925 169.86 54.0362 169.687 52.5198C169.508 50.9545 169.917 49.5451 170.913 48.2914C171.909 47.0377 173.166 46.3241 174.682 46.1508L194.713 43.8603C199.555 43.3066 203.376 43.7864 206.176 45.2998C209.018 46.7587 210.717 49.0422 211.27 52.1504C211.873 55.253 211.232 58.9685 209.349 63.2969C209.041 64.0754 208.663 64.8867 208.215 65.7308C207.809 66.5205 207.382 67.3374 206.934 68.1816C209.342 69.7397 211.767 71.4446 214.209 73.2962C216.65 75.1479 218.961 76.9401 221.142 78.673C223.371 80.4002 225.279 81.9165 226.865 83.2217C228.064 84.1748 228.731 85.4612 228.867 87.081C229.046 88.6463 228.637 90.0558 227.641 91.3095C226.688 92.5086 225.404 93.2005 223.79 93.3851C222.17 93.5208 220.736 93.1148 219.488 92.1674C218.005 90.8999 216.201 89.4213 214.075 87.7318C211.993 85.9877 209.782 84.2088 207.444 82.3949C205.149 80.5264 202.898 78.8264 200.691 77.2948C197.399 81.4374 193.644 85.4347 189.426 89.2867C185.252 93.0842 181.016 96.3436 176.719 99.0649ZM269.12 93.9253C267.603 94.0987 266.218 93.6872 264.965 92.6908C263.717 91.7433 263.003 90.4869 262.824 88.9216L257.035 38.2948C256.856 36.7296 257.265 35.3201 258.261 34.0664C259.258 32.8127 260.514 32.0992 262.03 31.9258C263.596 31.7468 264.981 32.1583 266.185 33.1603C267.439 34.1567 268.155 35.4375 268.334 37.0028L270.247 53.7317C271.033 52.7994 272.028 52.19 273.235 51.9034C274.435 51.568 275.607 51.6322 276.75 52.0961C279.809 53.2824 282.812 54.6239 285.758 56.1206C288.705 57.6172 291.409 59.1662 293.872 60.7677C295.206 61.6062 296.015 62.8269 296.297 64.4299C296.623 65.9784 296.367 67.42 295.528 68.7547C294.69 70.0895 293.472 70.9225 291.874 71.2538C290.326 71.5796 288.884 71.3232 287.55 70.4847C286.057 69.5652 284.387 68.6164 282.541 67.6382C280.744 66.6544 278.979 65.7412 277.248 64.8985C275.51 64.007 273.967 63.2915 272.617 62.7522C272.404 62.6278 272.167 62.5062 271.906 62.3874C271.688 62.2141 271.446 62.0437 271.179 61.876L274.123 87.6296C274.302 89.1949 273.891 90.5799 272.889 91.7847C271.941 93.0328 270.685 93.7463 269.12 93.9253Z"/>
</mask>
<path d="M48.7811 118.452C47.5009 119.391 46.0503 119.705 44.4291 119.395C42.8624 119.128 41.6339 118.352 40.7435 117.066C39.7987 115.737 39.438 114.317 39.6615 112.804C39.8795 111.243 40.6313 110.018 41.917 109.127C44.6673 107.178 46.9333 105.11 48.7151 102.924C50.4969 100.738 51.8237 98.2571 52.6957 95.4814C53.6165 92.7002 54.139 89.469 54.2631 85.7877C54.3873 82.1065 54.1697 77.8202 53.6104 72.9287C53.3811 70.9232 53.056 68.7304 52.6352 66.3504C52.2144 63.9703 51.795 62.0361 51.377 60.5477C51.0024 59.0048 51.2587 57.5632 52.1461 56.2229C53.0335 54.8825 54.227 54.0523 55.7265 53.7322C57.275 53.4065 58.6922 53.6656 59.978 54.5097C61.3127 55.3481 62.1674 56.5388 62.5421 58.0817C62.9992 59.9125 63.4193 62.0696 63.8024 64.5531C64.2288 66.9821 64.5734 69.346 64.8363 71.645C65.6306 78.5909 65.7567 84.8947 65.2148 90.5563C64.6729 96.2179 63.1289 101.35 60.5828 105.952C58.0311 110.506 54.0972 114.672 48.7811 118.452ZM37.583 95.2769C36.0065 95.3581 34.662 94.8676 33.5495 93.8055C32.4859 92.7378 31.9295 91.3396 31.8805 89.6108C31.8273 88.2789 31.6861 86.6102 31.4567 84.6047C31.2274 82.5992 30.9324 80.4525 30.5717 78.1647C30.211 75.8769 29.8314 73.6408 29.433 71.4564C29.0345 69.2721 28.6179 67.3623 28.1832 65.7272C27.7917 64.0375 28.0425 62.547 28.9355 61.2556C29.8229 59.9152 31.0163 59.085 32.5159 58.7649C34.07 58.4881 35.4872 58.7472 36.7674 59.5424C38.0476 60.3375 38.8751 61.5065 39.2497 63.0494C39.5587 64.4512 39.9179 66.2932 40.3276 68.5754C40.7372 70.8576 41.1419 73.3138 41.5418 75.944C41.9361 78.5253 42.2975 81.036 42.6261 83.4762C42.9491 85.8674 43.1567 87.9002 43.2491 89.5745C43.3792 91.1453 42.8614 92.4682 41.6959 93.543C40.5304 94.6178 39.1594 95.1957 37.583 95.2769ZM116.017 109.054C114.501 109.227 113.116 108.815 111.862 107.819C110.614 106.872 109.9 105.615 109.721 104.05C109.542 102.485 109.954 101.1 110.956 99.8949C111.952 98.6412 113.209 97.9277 114.725 97.7543C116.584 97.5417 117.776 97.1329 118.301 96.5277C118.827 95.9225 118.994 94.7884 118.804 93.1253L116.497 72.9479L97.7872 75.0874C96.2708 75.2607 94.913 74.8709 93.7139 73.9178C92.5147 72.9648 91.8284 71.73 91.655 70.2137C91.4816 68.6973 91.8715 67.3396 92.8245 66.1404C93.7776 64.9412 95.0123 64.2549 96.5287 64.0815L115.239 61.9421L114.408 54.6782C114.229 53.113 114.616 51.7307 115.569 50.5316C116.522 49.3324 117.781 48.6433 119.347 48.4643C120.912 48.2853 122.27 48.6752 123.42 49.6338C124.619 50.5869 125.308 51.8461 125.487 53.4114L126.318 60.6752L143.707 58.6868C145.272 58.5078 146.63 58.8977 147.78 59.8563C148.979 60.8094 149.666 62.0441 149.839 63.5605C150.013 65.0768 149.623 66.4346 148.67 67.6338C147.765 68.8274 146.531 69.5136 144.965 69.6926L127.576 71.681L130.009 92.959C130.591 98.0461 129.788 101.855 127.599 104.384C125.405 106.865 121.544 108.422 116.017 109.054ZM100.755 100.392C99.5239 101.326 98.1277 101.684 96.5666 101.466C95.0055 101.248 93.7553 100.499 92.8161 99.2189C91.8768 97.9388 91.5462 96.5643 91.8242 95.0954C92.0967 93.5776 92.8184 92.3058 93.9895 91.2799C95.6051 89.8067 97.3016 88.1757 99.0792 86.3867C100.851 84.5487 102.458 82.7793 103.898 81.0784C104.9 79.8736 106.069 79.0462 107.405 78.5961C108.736 78.0971 110.063 78.2179 111.387 78.9585C112.759 79.6935 113.654 80.8053 114.072 82.2937C114.539 83.7764 114.353 85.1852 113.515 86.52C111.93 89.1293 109.967 91.6828 107.627 94.1804C105.329 96.6235 103.039 98.6942 100.755 100.392ZM154.922 92.4145C153.866 93.5759 152.574 94.1944 151.046 94.27C149.513 94.2967 148.12 93.8118 146.866 92.8154C145.334 91.5535 143.544 90.1972 141.495 88.7467C139.446 87.2961 137.362 85.9734 135.243 84.7786C133.92 84.038 133.027 82.9508 132.566 81.5169C132.148 80.0285 132.285 78.6253 132.977 77.3073C133.712 75.9349 134.799 75.0425 136.239 74.6301C137.727 74.2121 139.13 74.349 140.448 75.0407C142.458 76.1489 144.773 77.5442 147.394 79.2267C150.014 80.9093 152.366 82.6225 154.448 84.3666C155.696 85.3141 156.339 86.6033 156.377 88.2343C156.458 89.8107 155.973 91.2041 154.922 92.4145ZM146.254 56.9089C144.151 57.1494 142.257 56.6227 140.573 55.3286C138.932 53.9801 137.991 52.2541 137.751 50.1508C137.51 48.0474 138.04 46.1782 139.339 44.5429C140.682 42.8532 142.406 41.888 144.509 41.6475C146.612 41.407 148.484 41.961 150.125 43.3096C151.76 44.6092 152.698 46.3107 152.939 48.4141C153.179 50.5174 152.652 52.4111 151.358 54.0953C150.059 55.7305 148.357 56.6684 146.254 56.9089ZM145.692 51.993C146.426 51.9091 147.031 51.5674 147.507 50.9678C147.984 50.3682 148.18 49.7015 148.096 48.9678C148.012 48.2341 147.671 47.6289 147.071 47.1524C146.471 46.6759 145.805 46.4796 145.071 46.5635C144.288 46.6529 143.659 46.9975 143.182 47.5971C142.755 48.1911 142.583 48.8549 142.667 49.5887C142.751 50.3224 143.068 50.9303 143.618 51.4124C144.218 51.889 144.909 52.0825 145.692 51.993ZM176.719 99.0649C175.427 99.9063 173.996 100.169 172.423 99.8534C170.894 99.4831 169.706 98.6279 168.859 97.2877C168.012 95.9475 167.75 94.5157 168.071 92.9923C168.441 91.4633 169.296 90.2753 170.637 89.4283C177.061 85.3736 182.633 80.7969 187.352 75.6982C192.071 70.5996 195.828 65.3137 198.621 59.8406C199.556 58.0489 199.71 56.7925 199.082 56.0713C198.504 55.3446 197.285 55.0876 195.426 55.3001L175.983 57.5234C174.466 57.6968 173.081 57.2853 171.827 56.2889C170.574 55.2925 169.86 54.0362 169.687 52.5198C169.508 50.9545 169.917 49.5451 170.913 48.2914C171.909 47.0377 173.166 46.3241 174.682 46.1508L194.713 43.8603C199.555 43.3066 203.376 43.7864 206.176 45.2998C209.018 46.7587 210.717 49.0422 211.27 52.1504C211.873 55.253 211.232 58.9685 209.349 63.2969C209.041 64.0754 208.663 64.8867 208.215 65.7308C207.809 66.5205 207.382 67.3374 206.934 68.1816C209.342 69.7397 211.767 71.4446 214.209 73.2962C216.65 75.1479 218.961 76.9401 221.142 78.673C223.371 80.4002 225.279 81.9165 226.865 83.2217C228.064 84.1748 228.731 85.4612 228.867 87.081C229.046 88.6463 228.637 90.0558 227.641 91.3095C226.688 92.5086 225.404 93.2005 223.79 93.3851C222.17 93.5208 220.736 93.1148 219.488 92.1674C218.005 90.8999 216.201 89.4213 214.075 87.7318C211.993 85.9877 209.782 84.2088 207.444 82.3949C205.149 80.5264 202.898 78.8264 200.691 77.2948C197.399 81.4374 193.644 85.4347 189.426 89.2867C185.252 93.0842 181.016 96.3436 176.719 99.0649ZM269.12 93.9253C267.603 94.0987 266.218 93.6872 264.965 92.6908C263.717 91.7433 263.003 90.4869 262.824 88.9216L257.035 38.2948C256.856 36.7296 257.265 35.3201 258.261 34.0664C259.258 32.8127 260.514 32.0992 262.03 31.9258C263.596 31.7468 264.981 32.1583 266.185 33.1603C267.439 34.1567 268.155 35.4375 268.334 37.0028L270.247 53.7317C271.033 52.7994 272.028 52.19 273.235 51.9034C274.435 51.568 275.607 51.6322 276.75 52.0961C279.809 53.2824 282.812 54.6239 285.758 56.1206C288.705 57.6172 291.409 59.1662 293.872 60.7677C295.206 61.6062 296.015 62.8269 296.297 64.4299C296.623 65.9784 296.367 67.42 295.528 68.7547C294.69 70.0895 293.472 70.9225 291.874 71.2538C290.326 71.5796 288.884 71.3232 287.55 70.4847C286.057 69.5652 284.387 68.6164 282.541 67.6382C280.744 66.6544 278.979 65.7412 277.248 64.8985C275.51 64.007 273.967 63.2915 272.617 62.7522C272.404 62.6278 272.167 62.5062 271.906 62.3874C271.688 62.2141 271.446 62.0437 271.179 61.876L274.123 87.6296C274.302 89.1949 273.891 90.5799 272.889 91.7847C271.941 93.0328 270.685 93.7463 269.12 93.9253Z" fill="white"/>
<path d="M48.7811 118.452L45.438 113.749L45.4028 113.774L45.368 113.8L48.7811 118.452ZM44.4291 119.395L45.5132 113.728L45.4556 113.717L45.3978 113.707L44.4291 119.395ZM40.7435 117.066L45.4868 113.782L45.4665 113.752L45.4459 113.723L40.7435 117.066ZM39.6615 112.804L45.3691 113.648L45.3725 113.625L45.3757 113.602L39.6615 112.804ZM41.917 109.127L45.2016 113.871L45.2278 113.852L45.2538 113.834L41.917 109.127ZM48.7151 102.924L53.1872 106.569L53.1872 106.569L48.7151 102.924ZM52.6957 95.4814L47.2185 93.668L47.2046 93.7101L47.1913 93.7523L52.6957 95.4814ZM54.2631 85.7877L48.4969 85.5933L48.4969 85.5933L54.2631 85.7877ZM52.6352 66.3504L46.9537 67.3549L46.9537 67.3549L52.6352 66.3504ZM51.377 60.5477L45.7704 61.9091L45.7946 62.0088L45.8223 62.1076L51.377 60.5477ZM52.1461 56.2229L47.3353 53.0379L47.3353 53.0379L52.1461 56.2229ZM55.7265 53.7322L54.5389 48.0862L54.5304 48.088L54.522 48.0898L55.7265 53.7322ZM59.978 54.5097L56.8119 59.3329L56.8601 59.3645L56.909 59.3952L59.978 54.5097ZM62.5421 58.0817L56.9354 59.4431L56.9399 59.4613L56.9444 59.4794L62.5421 58.0817ZM63.8024 64.5531L58.1003 65.4327L58.1094 65.4918L58.1197 65.5507L63.8024 64.5531ZM65.2148 90.5563L70.9581 91.106L65.2148 90.5563ZM60.5828 105.952L65.616 108.773L65.6237 108.759L65.6313 108.745L60.5828 105.952ZM37.583 95.2769L37.8796 101.039L37.8796 101.039L37.583 95.2769ZM33.5495 93.8055L29.462 97.8774L29.5131 97.9287L29.5655 97.9787L33.5495 93.8055ZM31.8805 89.6108L37.6478 89.4473L37.6468 89.4139L37.6455 89.3806L31.8805 89.6108ZM30.5717 78.1647L24.8725 79.0633L30.5717 78.1647ZM29.433 71.4564L35.1089 70.4211L29.433 71.4564ZM28.1832 65.7272L22.5625 67.0292L22.5834 67.1198L22.6073 67.2096L28.1832 65.7272ZM28.9355 61.2556L33.681 64.537L33.7141 64.4891L33.7463 64.4406L28.9355 61.2556ZM32.5159 58.7649L31.5042 53.0847L31.4074 53.1019L31.3114 53.1225L32.5159 58.7649ZM36.7674 59.5424L33.7233 64.4435L33.7233 64.4435L36.7674 59.5424ZM39.2497 63.0494L44.884 61.8076L44.8708 61.7477L44.8563 61.688L39.2497 63.0494ZM41.5418 75.944L35.8378 76.8112L35.8384 76.8152L41.5418 75.944ZM42.6261 83.4762L36.9081 84.2461L36.9085 84.2485L42.6261 83.4762ZM43.2491 89.5745L37.4883 89.8922L37.4927 89.9714L37.4992 90.0506L43.2491 89.5745ZM41.6959 93.543L37.7846 89.3016L37.7846 89.3016L41.6959 93.543ZM48.7811 118.452L45.368 113.8C45.3446 113.817 45.3492 113.81 45.3816 113.795C45.4151 113.78 45.46 113.764 45.5104 113.753C45.5603 113.742 45.5946 113.741 45.6048 113.741C45.6134 113.741 45.585 113.742 45.5132 113.728L44.4291 119.395L43.3449 125.062C46.4707 125.66 49.5644 125.033 52.1941 123.103L48.7811 118.452ZM44.4291 119.395L45.3978 113.707C45.3406 113.698 45.3229 113.69 45.3347 113.694C45.3475 113.699 45.3771 113.712 45.4146 113.735C45.4522 113.759 45.481 113.783 45.4985 113.8C45.5152 113.817 45.5097 113.815 45.4868 113.782L40.7435 117.066L36.0002 120.351C37.7903 122.936 40.3914 124.56 43.4603 125.083L44.4291 119.395ZM40.7435 117.066L45.4459 113.723C45.3907 113.646 45.3655 113.597 45.3564 113.578C45.3477 113.56 45.3511 113.563 45.3565 113.584C45.3622 113.606 45.3657 113.631 45.3667 113.652C45.3676 113.672 45.3654 113.673 45.3691 113.648L39.6615 112.804L33.954 111.961C33.4973 115.051 34.297 117.956 36.0412 120.409L40.7435 117.066ZM39.6615 112.804L45.3757 113.602C45.3815 113.561 45.3852 113.561 45.3742 113.593C45.3627 113.626 45.3413 113.675 45.3069 113.731C45.2725 113.787 45.2368 113.831 45.2089 113.86C45.1819 113.888 45.1744 113.889 45.2016 113.871L41.917 109.127L38.6323 104.384C36.0092 106.201 34.3862 108.863 33.9474 112.007L39.6615 112.804ZM41.917 109.127L45.2538 113.834C48.3486 111.64 51.0199 109.228 53.1872 106.569L48.7151 102.924L44.243 99.2785C42.8468 100.991 40.986 102.715 38.5802 104.421L41.917 109.127ZM48.7151 102.924L53.1872 106.569C55.4462 103.798 57.1158 100.662 58.2 97.2105L52.6957 95.4814L47.1913 93.7523C46.5317 95.8521 45.5476 97.678 44.243 99.2785L48.7151 102.924ZM52.6957 95.4814L58.1728 97.2948C59.3046 93.8764 59.8912 90.0794 60.0294 85.9822L54.2631 85.7877L48.4969 85.5933C48.3867 88.8585 47.9284 91.524 47.2185 93.668L52.6957 95.4814ZM54.2631 85.7877L60.0294 85.9822C60.1657 81.9411 59.9242 77.3593 59.3426 72.2732L53.6104 72.9287L47.8782 73.5842C48.4153 78.281 48.6089 82.272 48.4969 85.5933L54.2631 85.7877ZM53.6104 72.9287L59.3426 72.2732C59.0976 70.1308 58.7541 67.8199 58.3166 65.3458L52.6352 66.3504L46.9537 67.3549C47.3579 69.6409 47.6645 71.7156 47.8782 73.5842L53.6104 72.9287ZM52.6352 66.3504L58.3166 65.3458C57.8789 62.8702 57.4212 60.7309 56.9317 58.9879L51.377 60.5477L45.8223 62.1076C46.1688 63.3414 46.5498 65.0705 46.9537 67.3549L52.6352 66.3504ZM51.377 60.5477L56.9836 59.1863C56.9745 59.1488 56.9781 59.149 56.9794 59.1811C56.9807 59.2144 56.9787 59.2632 56.9687 59.3195C56.9587 59.3757 56.9445 59.4179 56.9351 59.441C56.9261 59.4628 56.9278 59.4517 56.9569 59.4079L52.1461 56.2229L47.3353 53.0379C45.5742 55.698 45.0116 58.7841 45.7704 61.9091L51.377 60.5477ZM52.1461 56.2229L56.9569 59.4079C57.0011 59.3411 57.0286 59.3115 57.0339 59.306C57.0367 59.303 57.0352 59.3048 57.0292 59.3101C57.023 59.3153 57.0137 59.3227 57.0015 59.3312C56.9892 59.3398 56.9758 59.3481 56.9619 59.3558C56.948 59.3635 56.9356 59.3694 56.9257 59.3737C56.9208 59.3758 56.9169 59.3773 56.9141 59.3783C56.9128 59.3788 56.9117 59.3792 56.911 59.3794C56.9102 59.3797 56.9099 59.3798 56.9099 59.3798C56.9099 59.3798 56.9103 59.3797 56.9111 59.3794C56.9119 59.3792 56.9132 59.3788 56.9149 59.3784C56.9183 59.3775 56.9237 59.3762 56.9311 59.3746L55.7265 53.7322L54.522 48.0898C51.4676 48.7418 49.012 50.5054 47.3353 53.0379L52.1461 56.2229ZM55.7265 53.7322L56.9142 59.3782C56.9762 59.3651 57.0006 59.3655 56.9928 59.3657C56.9838 59.3659 56.9548 59.3654 56.9129 59.3577C56.8707 59.35 56.8343 59.3385 56.8088 59.3281C56.7842 59.318 56.785 59.3152 56.8119 59.3329L59.978 54.5097L63.1441 49.6865C60.5336 47.9728 57.5419 47.4545 54.5389 48.0862L55.7265 53.7322ZM59.978 54.5097L56.909 59.3952C56.9556 59.4245 56.9711 59.4398 56.9672 59.4362C56.9657 59.4348 56.961 59.4303 56.9543 59.4227C56.9476 59.4152 56.9403 59.4061 56.933 59.396C56.9258 59.3858 56.9199 59.3765 56.9154 59.3688C56.911 59.3611 56.9091 59.3568 56.9091 59.357C56.9093 59.3572 56.9121 59.3635 56.9166 59.3769C56.9212 59.3904 56.9279 59.4121 56.9354 59.4431L62.5421 58.0817L68.1487 56.7203C67.4224 53.729 65.6647 51.2685 63.0471 49.6241L59.978 54.5097ZM62.5421 58.0817L56.9444 59.4794C57.3475 61.0939 57.7359 63.0703 58.1003 65.4327L63.8024 64.5531L69.5045 63.6735C69.1027 61.069 68.6509 58.7311 68.1398 56.6841L62.5421 58.0817ZM63.8024 64.5531L58.1197 65.5507C58.5275 67.8735 58.8552 70.1232 59.1041 72.3005L64.8363 71.645L70.5685 70.9896C70.2917 68.5689 69.9301 66.0906 69.485 63.5555L63.8024 64.5531ZM64.8363 71.645L59.1041 72.3005C59.8626 78.9334 59.9675 84.8249 59.4715 90.0066L65.2148 90.5563L70.9581 91.106C71.546 84.9645 71.3986 78.2485 70.5685 70.9896L64.8363 71.645ZM65.2148 90.5563L59.4715 90.0066C58.9988 94.9455 57.6672 99.3039 55.5343 103.159L60.5828 105.952L65.6313 108.745C68.5906 103.396 70.3471 97.4903 70.9581 91.106L65.2148 90.5563ZM60.5828 105.952L55.5497 103.132C53.506 106.779 50.2276 110.344 45.438 113.749L48.7811 118.452L52.1241 123.154C57.9668 119 62.5563 114.233 65.616 108.773L60.5828 105.952ZM37.583 95.2769L37.2863 89.515C37.2332 89.5177 37.222 89.5137 37.2448 89.5169C37.2688 89.5202 37.3134 89.5293 37.3695 89.5498C37.4259 89.5703 37.474 89.5952 37.5093 89.6175C37.5437 89.6392 37.551 89.6491 37.5335 89.6323L33.5495 93.8055L29.5655 97.9787C31.8594 100.169 34.7656 101.199 37.8796 101.039L37.583 95.2769ZM33.5495 93.8055L37.6369 89.7336C37.6398 89.7365 37.6532 89.7509 37.669 89.775C37.6848 89.7991 37.6932 89.8177 37.6953 89.8231C37.7012 89.8378 37.6559 89.7358 37.6478 89.4473L31.8805 89.6108L26.1133 89.7743C26.1973 92.7392 27.2074 95.6142 29.462 97.8774L33.5495 93.8055ZM31.8805 89.6108L37.6455 89.3806C37.5845 87.8543 37.4271 86.0322 37.1889 83.9492L31.4567 84.6047L25.7245 85.2602C25.945 87.1882 26.0701 88.7035 26.1156 89.841L31.8805 89.6108ZM31.4567 84.6047L37.1889 83.9492C36.9491 81.8517 36.6425 79.6233 36.2708 77.2662L30.5717 78.1647L24.8725 79.0633C25.2223 81.2818 25.5057 83.3467 25.7245 85.2602L31.4567 84.6047ZM30.5717 78.1647L36.2708 77.2662C35.9032 74.9346 35.5159 72.6529 35.1089 70.4211L29.433 71.4564L23.757 72.4917C24.1468 74.6288 24.5187 76.8192 24.8725 79.0633L30.5717 78.1647ZM29.433 71.4564L35.1089 70.4211C34.6909 68.1298 34.2429 66.0647 33.759 64.2447L28.1832 65.7272L22.6073 67.2096C22.9929 68.6599 23.3781 70.4143 23.757 72.4918L29.433 71.4564ZM28.1832 65.7272L33.8039 64.4251C33.7787 64.3162 33.7746 64.2573 33.7739 64.2423C33.7733 64.229 33.7754 64.251 33.7673 64.2993C33.759 64.3486 33.7437 64.4033 33.7223 64.4553C33.7012 64.5067 33.6828 64.5345 33.681 64.537L28.9355 61.2556L24.1899 57.9742C22.2703 60.7503 21.8471 63.9413 22.5625 67.0292L28.1832 65.7272ZM28.9355 61.2556L33.7463 64.4406C33.7905 64.3738 33.818 64.3441 33.8233 64.3387C33.8261 64.3357 33.8246 64.3375 33.8185 64.3428C33.8124 64.348 33.8031 64.3554 33.7909 64.3639C33.7786 64.3725 33.7652 64.3808 33.7513 64.3885C33.7374 64.3962 33.725 64.4021 33.715 64.4064C33.7102 64.4085 33.7063 64.41 33.7035 64.411C33.7021 64.4115 33.7011 64.4119 33.7003 64.4121C33.6996 64.4124 33.6992 64.4125 33.6993 64.4125C33.6993 64.4125 33.6997 64.4124 33.7005 64.4121C33.7013 64.4119 33.7026 64.4115 33.7043 64.4111C33.7077 64.4102 33.7131 64.4089 33.7205 64.4073L32.5159 58.7649L31.3114 53.1225C28.257 53.7745 25.8014 55.5381 24.1247 58.0706L28.9355 61.2556ZM32.5159 58.7649L33.5277 64.445C33.6135 64.4297 33.6661 64.4273 33.6901 64.4272C33.7132 64.4271 33.7167 64.4289 33.7065 64.4271C33.6959 64.4251 33.6859 64.422 33.6812 64.4202C33.6769 64.4185 33.6906 64.4232 33.7233 64.4435L36.7674 59.5424L39.8115 54.6412C37.2603 53.0567 34.3871 52.5712 31.5042 53.0847L32.5159 58.7649ZM36.7674 59.5424L33.7233 64.4435C33.7402 64.454 33.7318 64.4507 33.7092 64.4297C33.6861 64.4081 33.6609 64.3799 33.6389 64.3487C33.617 64.3179 33.6084 64.2986 33.6092 64.3004C33.6105 64.3032 33.625 64.3366 33.6431 64.4108L39.2497 63.0494L44.8563 61.688C44.1459 58.7621 42.4513 56.2808 39.8115 54.6412L36.7674 59.5424ZM39.2497 63.0494L33.6154 64.2912C33.9013 65.5884 34.2455 67.3477 34.6488 69.5946L40.3276 68.5754L46.0064 67.5561C45.5904 65.2386 45.216 63.3139 44.884 61.8076L39.2497 63.0494ZM40.3276 68.5754L34.6488 69.5946C35.0481 71.8196 35.4446 74.2246 35.8378 76.8112L41.5418 75.944L47.2458 75.0768C46.8393 72.403 46.4263 69.8956 46.0064 67.5561L40.3276 68.5754ZM41.5418 75.944L35.8384 76.8152C36.2278 79.3648 36.5844 81.8417 36.9081 84.2461L42.6261 83.4762L48.344 82.7062C48.0106 80.2303 47.6443 77.6858 47.2452 75.0729L41.5418 75.944ZM42.6261 83.4762L36.9085 84.2485C37.2191 86.5481 37.4071 88.4198 37.4883 89.8922L43.2491 89.5745L49.0099 89.2567C48.9064 87.3805 48.6791 85.1867 48.3437 82.7039L42.6261 83.4762ZM43.2491 89.5745L37.4992 90.0506C37.4997 90.0561 37.4899 89.8864 37.5856 89.642C37.6809 89.3986 37.7998 89.2876 37.7846 89.3016L41.6959 93.543L45.6072 97.7844C48.0707 95.5126 49.2767 92.4531 48.999 89.0984L43.2491 89.5745ZM41.6959 93.543L37.7846 89.3016C37.6048 89.4674 37.5109 89.5034 37.2863 89.515L37.583 95.2769L37.8796 101.039C40.8079 100.888 43.4561 99.7681 45.6072 97.7844L41.6959 93.543ZM111.862 107.819L115.452 103.302L115.402 103.262L115.351 103.224L111.862 107.819ZM110.956 99.8949L115.392 103.584L115.433 103.535L115.473 103.485L110.956 99.8949ZM118.301 96.5277L122.658 100.31L122.658 100.31L118.301 96.5277ZM116.497 72.9479L122.229 72.2925L121.574 66.5603L115.842 67.2157L116.497 72.9479ZM93.7139 73.9178L97.3037 69.4011L97.3037 69.4011L93.7139 73.9178ZM92.8245 66.1404L88.3078 62.5506L92.8245 66.1404ZM115.239 61.9421L115.894 67.6743L121.626 67.0188L120.971 61.2866L115.239 61.9421ZM115.569 50.5316L111.052 46.9418L111.052 46.9418L115.569 50.5316ZM123.42 49.6338L119.726 54.0659L119.778 54.1089L119.83 54.1506L123.42 49.6338ZM126.318 60.6752L120.586 61.3307L121.241 67.0629L126.973 66.4074L126.318 60.6752ZM147.78 59.8563L144.086 64.2884L144.138 64.3313L144.19 64.3731L147.78 59.8563ZM148.67 67.6338L144.153 64.044L144.111 64.0965L144.071 64.15L148.67 67.6338ZM127.576 71.681L126.921 65.9488L121.189 66.6043L121.844 72.3365L127.576 71.681ZM127.599 104.384L131.921 108.207L131.942 108.183L131.963 108.159L127.599 104.384ZM100.755 100.392L97.3121 95.7627L97.2904 95.7788L97.2689 95.7952L100.755 100.392ZM96.5666 101.466L97.3643 95.7518L96.5666 101.466ZM92.8161 99.2189L88.1643 102.632L92.8161 99.2189ZM91.8242 95.0954L97.4931 96.1684L97.4982 96.1416L97.503 96.1147L91.8242 95.0954ZM93.9895 91.2799L97.7913 95.6198L97.8346 95.5819L97.8771 95.5431L93.9895 91.2799ZM99.0792 86.3867L103.172 90.4533L103.203 90.4225L103.233 90.3912L99.0792 86.3867ZM103.898 81.0784L108.301 84.8075L108.318 84.7876L108.334 84.7676L103.898 81.0784ZM107.405 78.5961L109.247 84.0637L109.34 84.0325L109.432 83.9982L107.405 78.5961ZM111.387 78.9585L108.569 83.9934L108.616 84.0194L108.663 84.0446L111.387 78.9585ZM114.072 82.2937L108.517 83.8535L108.542 83.9404L108.569 84.0264L114.072 82.2937ZM113.515 86.5199L108.629 83.4509L108.606 83.4878L108.583 83.5251L113.515 86.5199ZM107.627 94.1804L111.83 98.1329L111.836 98.1258L107.627 94.1804ZM154.922 92.4145L159.19 96.2968L159.235 96.2475L159.279 96.1971L154.922 92.4145ZM151.046 94.27L151.147 100.039L151.239 100.037L151.331 100.033L151.046 94.27ZM146.866 92.8154L143.198 97.2685L143.237 97.3007L143.276 97.3322L146.866 92.8154ZM141.495 88.7467L138.161 93.4556L138.161 93.4556L141.495 88.7467ZM135.243 84.7786L138.077 79.7531L138.069 79.7484L138.061 79.7438L135.243 84.7786ZM132.566 81.5169L127.012 83.0767L127.041 83.1808L127.074 83.2838L132.566 81.5169ZM132.977 77.3073L127.891 74.5834L127.879 74.6047L127.868 74.6261L132.977 77.3073ZM136.239 74.6301L134.679 69.0754L134.664 69.0795L134.65 69.0836L136.239 74.6301ZM140.448 75.0407L143.234 69.9883L143.182 69.9596L143.129 69.932L140.448 75.0407ZM147.394 79.2267L150.511 74.3717L150.511 74.3717L147.394 79.2267ZM154.448 84.3666L150.744 88.7898L150.85 88.8785L150.96 88.962L154.448 84.3666ZM156.377 88.2343L150.609 88.3681L150.611 88.4495L150.615 88.5309L156.377 88.2343ZM140.573 55.3286L136.909 59.7859L136.982 59.846L137.057 59.9036L140.573 55.3286ZM139.339 44.5429L143.856 48.1327L143.856 48.1327L139.339 44.5429ZM150.125 43.3096L146.462 47.7669L146.498 47.7969L146.535 47.8264L150.125 43.3096ZM151.358 54.0953L155.875 57.6851L155.905 57.6481L155.933 57.6106L151.358 54.0953ZM147.507 50.9678L142.99 47.378L142.99 47.378L147.507 50.9678ZM147.071 47.1524L143.481 51.6692L143.481 51.6692L147.071 47.1524ZM143.182 47.5971L138.665 44.0073L138.58 44.1148L138.5 44.2262L143.182 47.5971ZM143.618 51.4124L139.818 55.7533L139.921 55.8438L140.029 55.9292L143.618 51.4124ZM116.017 109.054L115.362 103.321C115.339 103.324 115.346 103.321 115.376 103.324C115.408 103.326 115.446 103.333 115.484 103.344C115.502 103.35 115.517 103.355 115.528 103.36C115.539 103.364 115.544 103.367 115.543 103.366C115.542 103.366 115.511 103.349 115.452 103.302L111.862 107.819L108.272 112.336C110.658 114.232 113.555 115.142 116.673 114.786L116.017 109.054ZM111.862 107.819L115.351 103.224C115.318 103.199 115.318 103.194 115.336 103.215C115.355 103.236 115.382 103.271 115.408 103.317C115.434 103.363 115.449 103.402 115.457 103.426C115.464 103.448 115.459 103.441 115.454 103.395L109.721 104.05L103.989 104.705C104.346 107.826 105.864 110.509 108.373 112.414L111.862 107.819ZM109.721 104.05L115.454 103.395C115.448 103.348 115.451 103.34 115.45 103.363C115.448 103.388 115.442 103.43 115.426 103.48C115.411 103.531 115.393 103.571 115.38 103.596C115.366 103.62 115.366 103.616 115.392 103.584L110.956 99.8949L106.52 96.2056C104.505 98.6285 103.632 101.585 103.989 104.705L109.721 104.05ZM110.956 99.8949L115.473 103.485C115.52 103.425 115.546 103.402 115.547 103.402C115.548 103.401 115.543 103.405 115.534 103.412C115.524 103.419 115.511 103.427 115.495 103.436C115.46 103.456 115.424 103.471 115.394 103.481C115.365 103.49 115.358 103.489 115.381 103.486L114.725 97.7543L114.07 92.0221C110.952 92.3786 108.335 93.9192 106.439 96.3051L110.956 99.8949ZM114.725 97.7543L115.381 103.486C116.545 103.353 117.755 103.133 118.885 102.746C119.942 102.383 121.452 101.7 122.658 100.31L118.301 96.5277L113.945 92.7451C114.306 92.3286 114.654 92.0918 114.849 91.9765C115.045 91.8608 115.162 91.8238 115.141 91.8307C115.126 91.836 115.034 91.8656 114.843 91.9046C114.654 91.943 114.4 91.9843 114.07 92.0221L114.725 97.7543ZM118.301 96.5277L122.658 100.31C123.889 98.892 124.35 97.2766 124.529 96.0668C124.711 94.8328 124.665 93.5935 124.536 92.4698L118.804 93.1253L113.072 93.7807C113.134 94.3201 113.099 94.4795 113.114 94.3796C113.125 94.3039 113.239 93.5582 113.945 92.7451L118.301 96.5277ZM118.804 93.1253L124.536 92.4698L122.229 72.2925L116.497 72.9479L110.765 73.6034L113.072 93.7807L118.804 93.1253ZM116.497 72.9479L115.842 67.2157L97.1317 69.3552L97.7872 75.0874L98.4426 80.8196L117.153 78.6801L116.497 72.9479ZM97.7872 75.0874L97.1317 69.3552C97.0929 69.3596 97.0888 69.3567 97.1129 69.3585C97.1381 69.3604 97.1774 69.3662 97.2238 69.3795C97.2701 69.3928 97.3054 69.4085 97.3257 69.4191C97.345 69.4293 97.3373 69.4278 97.3037 69.4011L93.7139 73.9178L90.1241 78.4346C92.5163 80.3358 95.3998 81.1675 98.4426 80.8196L97.7872 75.0874ZM93.7139 73.9178L97.3037 69.4011C97.27 69.3743 97.2669 69.3671 97.2811 69.3837C97.2961 69.401 97.3193 69.4319 97.3427 69.474C97.3661 69.5162 97.3806 69.5532 97.3882 69.5773C97.3954 69.6004 97.3916 69.597 97.3872 69.5582L91.655 70.2137L85.9228 70.8692C86.2707 73.912 87.7319 76.5333 90.1241 78.4346L93.7139 73.9178ZM91.655 70.2137L97.3872 69.5582C97.3828 69.5194 97.3857 69.5153 97.3838 69.5394C97.3819 69.5646 97.3762 69.604 97.3628 69.6503C97.3495 69.6966 97.3339 69.7319 97.3233 69.7522C97.3131 69.7715 97.3145 69.7639 97.3413 69.7302L92.8245 66.1404L88.3078 62.5506C86.4065 64.9428 85.5749 67.8263 85.9228 70.8692L91.655 70.2137ZM92.8245 66.1404L97.3413 69.7302C97.3681 69.6965 97.3752 69.6934 97.3587 69.7076C97.3413 69.7226 97.3105 69.7458 97.2683 69.7692C97.2262 69.7926 97.1892 69.8071 97.1651 69.8147C97.142 69.8219 97.1453 69.8182 97.1841 69.8137L96.5287 64.0815L95.8732 58.3493C92.8304 58.6973 90.209 60.1584 88.3078 62.5506L92.8245 66.1404ZM96.5287 64.0815L97.1841 69.8137L115.894 67.6743L115.239 61.9421L114.583 56.2099L95.8732 58.3493L96.5287 64.0815ZM115.239 61.9421L120.971 61.2866L120.14 54.0228L114.408 54.6783L108.676 55.3337L109.506 62.5976L115.239 61.9421ZM114.408 54.6783L120.14 54.0228C120.133 53.9608 120.136 53.9369 120.135 53.9449C120.134 53.9539 120.131 53.9826 120.12 54.0233C120.108 54.0643 120.094 54.0993 120.081 54.1236C120.069 54.1471 120.066 54.1462 120.086 54.1214L115.569 50.5316L111.052 46.9418C109.117 49.3766 108.328 52.2967 108.676 55.3337L114.408 54.6783ZM115.569 50.5316L120.086 54.1214C120.106 54.0965 120.107 54.099 120.087 54.1162C120.066 54.134 120.035 54.1562 119.998 54.1766C119.961 54.1969 119.934 54.2065 119.925 54.2092C119.917 54.2115 119.94 54.2036 120.002 54.1965L119.347 48.4643L118.691 42.7321C115.654 43.0794 112.987 44.507 111.052 46.9418L115.569 50.5316ZM119.347 48.4643L120.002 54.1965C120.064 54.1894 120.084 54.1926 120.067 54.1913C120.048 54.19 120.005 54.1848 119.947 54.168C119.888 54.151 119.832 54.1278 119.786 54.1031C119.741 54.0788 119.721 54.0618 119.726 54.0659L123.42 49.6338L127.114 45.2018C124.683 43.1761 121.731 42.3845 118.691 42.7321L119.347 48.4643ZM123.42 49.6338L119.83 54.1506C119.855 54.1703 119.852 54.1718 119.835 54.1517C119.818 54.1309 119.795 54.1001 119.775 54.0628C119.755 54.0257 119.745 53.9985 119.742 53.9898C119.74 53.9822 119.748 54.0048 119.755 54.0668L125.487 53.4114L131.219 52.7559C130.872 49.7189 129.445 47.0522 127.01 45.1171L123.42 49.6338ZM125.487 53.4114L119.755 54.0668L120.586 61.3307L126.318 60.6752L132.05 60.0197L131.219 52.7559L125.487 53.4114ZM126.318 60.6752L126.973 66.4074L144.362 64.419L143.707 58.6868L143.052 52.9546L125.662 54.943L126.318 60.6752ZM143.707 58.6868L144.362 64.419C144.425 64.4119 144.444 64.415 144.427 64.4138C144.409 64.4125 144.366 64.4073 144.307 64.3904C144.248 64.3735 144.192 64.3503 144.146 64.3256C144.101 64.3013 144.081 64.2842 144.086 64.2884L147.78 59.8563L151.474 55.4242C149.044 53.3986 146.092 52.607 143.052 52.9546L143.707 58.6868ZM147.78 59.8563L144.19 64.3731C144.224 64.3998 144.227 64.407 144.213 64.3905C144.198 64.3731 144.175 64.3423 144.151 64.3001C144.128 64.258 144.114 64.221 144.106 64.1969C144.099 64.1737 144.103 64.1771 144.107 64.2159L149.839 63.5605L155.571 62.905C155.223 59.8622 153.762 57.2408 151.37 55.3396L147.78 59.8563ZM149.839 63.5605L144.107 64.2159C144.111 64.2548 144.108 64.2589 144.11 64.2347C144.112 64.2095 144.118 64.1702 144.131 64.1238C144.145 64.0775 144.16 64.0422 144.171 64.022C144.181 64.0026 144.18 64.0103 144.153 64.044L148.67 67.6338L153.186 71.2236C155.088 68.8314 155.919 65.9478 155.571 62.905L149.839 63.5605ZM148.67 67.6338L144.071 64.15C144.067 64.1551 144.082 64.1341 144.121 64.1002C144.16 64.0657 144.209 64.0307 144.262 64.0008C144.316 63.9711 144.356 63.9563 144.374 63.9509C144.39 63.9459 144.372 63.9533 144.31 63.9604L144.965 69.6926L145.621 75.4248C148.661 75.0772 151.358 73.6396 153.269 71.1176L148.67 67.6338ZM144.965 69.6926L144.31 63.9604L126.921 65.9488L127.576 71.681L128.232 77.4132L145.621 75.4248L144.965 69.6926ZM127.576 71.681L121.844 72.3365L124.277 93.6144L130.009 92.959L135.742 92.3035L133.308 71.0256L127.576 71.681ZM130.009 92.959L124.277 93.6144C124.772 97.9433 123.918 99.8215 123.236 100.61L127.599 104.384L131.963 108.159C135.658 103.888 136.41 98.1489 135.742 92.3035L130.009 92.959ZM127.599 104.384L123.277 100.562C122.49 101.453 120.366 102.749 115.362 103.321L116.017 109.054L116.673 114.786C122.722 114.094 128.321 112.277 131.921 108.207L127.599 104.384ZM100.755 100.392L97.2689 95.7952C97.2392 95.8177 97.2346 95.8171 97.2555 95.8068C97.2773 95.7961 97.311 95.7826 97.352 95.7721C97.3928 95.7617 97.4225 95.7589 97.4338 95.7583C97.4439 95.7579 97.4228 95.76 97.3643 95.7518L96.5666 101.466L95.7689 107.18C98.8154 107.605 101.76 106.871 104.241 104.99L100.755 100.392ZM96.5666 101.466L97.3643 95.7518C97.3191 95.7455 97.3111 95.7404 97.3306 95.7471C97.3511 95.7541 97.3848 95.7684 97.4234 95.7915C97.4619 95.8146 97.4883 95.8363 97.5007 95.8477C97.5122 95.8584 97.4996 95.8491 97.4678 95.8058L92.8161 99.2189L88.1643 102.632C90.0174 105.158 92.6525 106.745 95.7689 107.18L96.5666 101.466ZM92.8161 99.2189L97.4678 95.8058C97.4291 95.753 97.4224 95.7345 97.4305 95.7514C97.4392 95.7696 97.4575 95.8133 97.4732 95.8786C97.4891 95.9446 97.4973 96.0118 97.4984 96.0727C97.4989 96.1017 97.4978 96.1252 97.4963 96.1424C97.4956 96.1508 97.4948 96.1573 97.4942 96.1618C97.4935 96.1662 97.4931 96.1685 97.4931 96.1684L91.8242 95.0954L86.1553 94.0224C85.5597 97.1692 86.3447 100.152 88.1643 102.632L92.8161 99.2189ZM91.8242 95.0954L97.503 96.1147C97.5419 95.898 97.5939 95.7927 97.7913 95.6198L93.9895 91.2799L90.1878 86.94C88.043 88.8189 86.6514 91.2572 86.1454 94.0761L91.8242 95.0954ZM93.9895 91.2799L97.8771 95.5431C99.5722 93.9973 101.337 92.2996 103.172 90.4533L99.0792 86.3867L94.9865 82.32C93.2658 84.0518 91.6379 85.6161 90.102 87.0167L93.9895 91.2799ZM99.0792 86.3867L103.233 90.3912C105.079 88.4767 106.77 86.6153 108.301 84.8075L103.898 81.0784L99.496 77.3493C98.1457 78.9434 96.6239 80.6208 94.9257 82.3821L99.0792 86.3867ZM103.898 81.0784L108.334 84.7676C108.731 84.2901 109.034 84.1355 109.247 84.0637L107.405 78.5961L105.564 73.1285C103.105 73.9569 101.069 75.4571 99.4625 77.3891L103.898 81.0784ZM107.405 78.5961L109.432 83.9982C109.339 84.0329 109.134 84.0817 108.875 84.0582C108.629 84.0357 108.516 83.9638 108.569 83.9934L111.387 78.9585L114.204 73.9236C111.512 72.4174 108.418 72.0544 105.379 73.194L107.405 78.5961ZM111.387 78.9585L108.663 84.0446C108.701 84.0653 108.704 84.0708 108.683 84.0541C108.662 84.0367 108.629 84.0058 108.594 83.9622C108.558 83.9185 108.534 83.8779 108.519 83.849C108.505 83.8212 108.508 83.8188 108.517 83.8535L114.072 82.2937L119.627 80.7338C118.781 77.7217 116.856 75.3428 114.11 73.8724L111.387 78.9585ZM114.072 82.2937L108.569 84.0264C108.574 84.0415 108.564 84.0142 108.557 83.9501C108.551 83.8843 108.551 83.8006 108.563 83.708C108.59 83.5038 108.656 83.4088 108.629 83.4509L113.515 86.5199L118.4 89.589C120.124 86.8447 120.558 83.6832 119.575 80.5609L114.072 82.2937ZM113.515 86.5199L108.583 83.5251C107.229 85.7554 105.517 87.994 103.417 90.235L107.627 94.1804L111.836 98.1258C114.417 95.3717 116.631 92.5033 118.446 89.5148L113.515 86.5199ZM107.627 94.1804L103.424 90.2279C101.319 92.4658 99.2797 94.2995 97.3121 95.7627L100.755 100.392L104.198 105.022C106.797 103.089 109.339 100.781 111.83 98.1329L107.627 94.1804ZM154.922 92.4145L150.655 88.5322C150.613 88.5774 150.594 88.5907 150.601 88.5856C150.609 88.5799 150.632 88.5635 150.67 88.5455C150.708 88.5273 150.743 88.5155 150.769 88.5092C150.794 88.5031 150.794 88.5059 150.761 88.5075L151.046 94.27L151.331 100.033C154.428 99.8794 157.138 98.5534 159.19 96.2968L154.922 92.4145ZM151.046 94.27L150.946 88.5013C150.814 88.5036 150.712 88.5024 150.456 88.2986L146.866 92.8154L143.276 97.3322C145.527 99.1211 148.213 100.09 151.147 100.039L151.046 94.27ZM146.866 92.8154L150.535 88.3623C148.871 86.9914 146.964 85.5494 144.829 84.0377L141.495 88.7467L138.161 93.4556C140.124 94.8451 141.798 96.1156 143.198 97.2685L146.866 92.8154ZM141.495 88.7467L144.829 84.0377C142.624 82.4768 140.373 81.0478 138.077 79.7531L135.243 84.7786L132.41 89.8042C134.351 90.8991 136.268 92.1154 138.161 93.4556L141.495 88.7467ZM135.243 84.7786L138.061 79.7438C138.037 79.7307 138.022 79.7207 138.013 79.7147C138.004 79.7087 138.001 79.7061 138.003 79.7074C138.005 79.7088 138.01 79.713 138.017 79.7203C138.024 79.7277 138.033 79.7367 138.041 79.7472C138.05 79.7578 138.057 79.7681 138.064 79.7777C138.07 79.7872 138.074 79.7942 138.076 79.7979C138.078 79.8016 138.077 79.8004 138.074 79.7933C138.071 79.7862 138.066 79.7721 138.059 79.75L132.566 81.5169L127.074 83.2838C127.985 86.1165 129.84 88.3662 132.426 89.8135L135.243 84.7786ZM132.566 81.5169L138.121 79.957C138.103 79.8918 138.099 79.8601 138.099 79.8583C138.099 79.8571 138.1 79.8615 138.1 79.871C138.1 79.8805 138.099 79.8932 138.098 79.9083C138.096 79.9235 138.094 79.9391 138.091 79.9544C138.088 79.9697 138.084 79.9825 138.081 79.9925C138.075 80.0136 138.073 80.013 138.086 79.9886L132.977 77.3073L127.868 74.6261C126.463 77.3036 126.212 80.2302 127.012 83.0767L132.566 81.5169ZM132.977 77.3073L138.063 80.0313C138.09 79.9813 138.101 79.9703 138.089 79.9848C138.077 80.0003 138.049 80.0317 138.004 80.0684C137.959 80.1053 137.913 80.1349 137.872 80.1558C137.833 80.1762 137.814 80.1804 137.828 80.1765L136.239 74.6301L134.65 69.0836C131.645 69.9443 129.329 71.8974 127.891 74.5834L132.977 77.3073ZM136.239 74.6301L137.798 80.1848C137.864 80.1665 137.895 80.1633 137.897 80.1631C137.898 80.163 137.894 80.1635 137.885 80.1635C137.875 80.1635 137.862 80.1631 137.847 80.1616C137.832 80.1601 137.816 80.1578 137.801 80.1547C137.786 80.1517 137.773 80.1483 137.763 80.1453C137.742 80.1389 137.743 80.1366 137.767 80.1494L140.448 75.0407L143.129 69.932C140.452 68.5267 137.525 68.276 134.679 69.0754L136.239 74.6301ZM140.448 75.0407L137.662 80.0931C139.528 81.1218 141.729 82.446 144.277 84.0817L147.394 79.2267L150.511 74.3717C147.817 72.6424 145.388 71.1759 143.234 69.9883L140.448 75.0407ZM147.394 79.2267L144.276 84.0817C146.721 85.6515 148.872 87.2226 150.744 88.7898L154.448 84.3666L158.153 79.9433C155.859 78.0225 153.307 76.167 150.511 74.3717L147.394 79.2267ZM154.448 84.3666L150.96 88.962C150.96 88.962 150.957 88.9601 150.952 88.9561C150.948 88.9521 150.941 88.9462 150.932 88.9381C150.915 88.9218 150.892 88.898 150.865 88.8663C150.809 88.8 150.752 88.7158 150.703 88.6191C150.599 88.4096 150.607 88.2882 150.609 88.3681L156.377 88.2343L162.145 88.1004C162.068 84.7965 160.65 81.8308 157.937 79.7712L154.448 84.3666ZM156.377 88.2343L150.615 88.5309C150.618 88.5854 150.614 88.608 150.615 88.6051C150.615 88.6014 150.618 88.586 150.625 88.5655C150.632 88.5451 150.638 88.536 150.635 88.5412C150.631 88.5473 150.613 88.578 150.566 88.6319L154.922 92.4145L159.279 96.1971C161.291 93.8793 162.298 91.0299 162.139 87.9376L156.377 88.2343ZM146.254 56.9089L145.598 51.1767C144.988 51.2465 144.589 51.1386 144.088 50.7536L140.573 55.3286L137.057 59.9036C139.925 62.1067 143.313 63.0524 146.909 62.6411L146.254 56.9089ZM140.573 55.3286L144.236 50.8713C143.748 50.4701 143.553 50.1055 143.483 49.4953L137.751 50.1508L132.018 50.8062C132.43 54.4027 134.116 57.49 136.909 59.7859L140.573 55.3286ZM137.751 50.1508L143.483 49.4953C143.414 48.8892 143.523 48.552 143.856 48.1327L139.339 44.5429L134.823 40.9531C132.557 43.8043 131.607 47.2057 132.018 50.8062L137.751 50.1508ZM139.339 44.5429L143.856 48.1327C144.268 47.6146 144.614 47.4426 145.164 47.3797L144.509 41.6475L143.853 35.9153C140.197 36.3334 137.097 38.0917 134.823 40.9531L139.339 44.5429ZM144.509 41.6475L145.164 47.3797C145.709 47.3174 146.024 47.4071 146.462 47.7669L150.125 43.3096L153.788 38.8523C150.945 36.515 147.515 35.4966 143.853 35.9153L144.509 41.6475ZM150.125 43.3096L146.535 47.8264C146.955 48.1596 147.137 48.4634 147.207 49.0695L152.939 48.4141L158.671 47.7586C158.259 44.1581 156.566 41.0589 153.715 38.7928L150.125 43.3096ZM152.939 48.4141L147.207 49.0695C147.276 49.6797 147.168 50.079 146.783 50.58L151.358 54.0953L155.933 57.6106C158.137 54.7433 159.082 51.3551 158.671 47.7586L152.939 48.4141ZM151.358 54.0953L146.842 50.5055C146.508 50.9248 146.205 51.1074 145.598 51.1767L146.254 56.9089L146.909 62.6411C150.51 62.2294 153.609 60.5363 155.875 57.6851L151.358 54.0953ZM145.692 51.993L146.347 57.7252C148.663 57.4604 150.635 56.3055 152.024 54.5575L147.507 50.9678L142.99 47.378C143.167 47.1556 143.451 46.8801 143.859 46.65C144.27 46.4177 144.685 46.301 145.036 46.2608L145.692 51.993ZM147.507 50.9678L152.024 54.5576C153.413 52.8097 154.093 50.6282 153.828 48.3123L148.096 48.9678L142.364 49.6233C142.324 49.2716 142.344 48.8415 142.477 48.3882C142.609 47.9393 142.814 47.6003 142.99 47.378L147.507 50.9678ZM148.096 48.9678L153.828 48.3123C153.564 45.9965 152.409 44.0248 150.661 42.6356L147.071 47.1524L143.481 51.6692C143.259 51.4924 142.983 51.2083 142.753 50.8008C142.521 50.3894 142.404 49.9749 142.364 49.6233L148.096 48.9678ZM147.071 47.1524L150.661 42.6356C148.913 41.2465 146.731 40.5664 144.416 40.8313L145.071 46.5635L145.726 52.2957C145.375 52.3359 144.945 52.3158 144.491 52.1823C144.043 52.0501 143.704 51.8459 143.481 51.6692L147.071 47.1524ZM145.071 46.5635L144.416 40.8313C142.161 41.089 140.124 42.1721 138.665 44.0073L143.182 47.5971L147.699 51.1869C147.491 51.4481 147.186 51.729 146.782 51.9502C146.38 52.1698 146.004 52.2639 145.726 52.2957L145.071 46.5635ZM143.182 47.5971L138.5 44.2262C137.225 45.9966 136.689 48.0987 136.934 50.2441L142.667 49.5887L148.399 48.9332C148.431 49.2154 148.423 49.5817 148.318 49.9864C148.213 50.392 148.04 50.7242 147.865 50.968L143.182 47.5971ZM142.667 49.5887L136.934 50.2441C137.18 52.3896 138.177 54.3163 139.818 55.7533L143.618 51.4124L147.419 47.0715C147.645 47.2694 147.888 47.5539 148.082 47.9254C148.276 48.296 148.367 48.651 148.399 48.9332L142.667 49.5887ZM143.618 51.4124L140.029 55.9292C141.864 57.3878 144.093 57.983 146.347 57.7252L145.692 51.993L145.036 46.2608C145.314 46.2291 145.702 46.2358 146.142 46.3591C146.586 46.4834 146.947 46.688 147.208 46.8957L143.618 51.4124ZM176.719 99.0649L173.632 94.1905L173.6 94.2106L173.569 94.231L176.719 99.0649ZM172.423 99.8534L171.065 105.461L171.176 105.488L171.287 105.51L172.423 99.8534ZM168.859 97.2877L163.982 100.37L168.859 97.2877ZM168.071 92.9923L162.463 91.6343L162.443 91.7176L162.426 91.8014L168.071 92.9923ZM170.637 89.4283L167.557 84.5493L167.554 84.5511L170.637 89.4283ZM187.352 75.6982L191.586 79.6173L187.352 75.6982ZM198.621 59.8406L193.506 57.1717L193.494 57.1947L193.482 57.2178L198.621 59.8406ZM199.082 56.0713L194.569 59.6652L194.647 59.7639L194.73 59.8589L199.082 56.0713ZM171.827 56.2889L168.238 60.8057L168.238 60.8057L171.827 56.2889ZM170.913 48.2914L166.396 44.7016L166.396 44.7016L170.913 48.2914ZM206.176 45.2998L203.432 50.3752L203.486 50.4046L203.541 50.4329L206.176 45.2998ZM211.27 52.1504L205.59 53.1622L205.598 53.2063L205.607 53.2503L211.27 52.1504ZM209.349 63.2969L204.058 60.9946L204.019 61.0855L203.982 61.1777L209.349 63.2969ZM208.215 65.7308L203.12 63.0235L203.1 63.0599L203.082 63.0965L208.215 65.7308ZM206.934 68.1816L201.839 65.4742L199.355 70.1495L203.8 73.0255L206.934 68.1816ZM214.209 73.2962L217.695 68.6991L217.695 68.6991L214.209 73.2962ZM221.142 78.673L217.552 83.1897L217.58 83.2119L217.608 83.2337L221.142 78.673ZM226.865 83.2217L223.199 87.677L223.237 87.7081L223.275 87.7385L226.865 83.2217ZM228.867 87.081L223.118 87.5626L223.125 87.6497L223.135 87.7365L228.867 87.081ZM227.641 91.3095L232.158 94.8993L227.641 91.3095ZM223.79 93.3851L224.272 99.1345L224.359 99.1272L224.446 99.1173L223.79 93.3851ZM219.488 92.1674L215.74 96.5531L215.867 96.6617L216 96.7628L219.488 92.1674ZM214.075 87.7318L210.371 92.1551L210.428 92.2025L210.485 92.2486L214.075 87.7318ZM207.444 82.3949L203.801 86.8691L203.854 86.9119L203.908 86.9535L207.444 82.3949ZM200.691 77.2948L203.981 72.5549L199.539 69.4721L196.175 73.705L200.691 77.2948ZM189.426 89.2867L193.309 93.5545L193.317 93.5469L189.426 89.2867ZM176.719 99.0649L173.569 94.231C173.554 94.2405 173.546 94.2448 173.545 94.2456C173.543 94.2464 173.547 94.2443 173.556 94.2408C173.565 94.2373 173.576 94.233 173.591 94.2288C173.605 94.2245 173.62 94.221 173.635 94.2184C173.649 94.2157 173.661 94.2143 173.67 94.2136C173.678 94.2129 173.681 94.2131 173.678 94.2131C173.672 94.213 173.634 94.2119 173.559 94.1968L172.423 99.8534L171.287 105.51C174.274 106.11 177.256 105.601 179.869 103.899L176.719 99.0649ZM172.423 99.8534L173.781 94.2459C173.728 94.233 173.708 94.2235 173.713 94.2255C173.715 94.2263 173.72 94.2289 173.729 94.2338C173.737 94.2387 173.747 94.2448 173.757 94.2519C173.766 94.259 173.775 94.2657 173.781 94.2714C173.787 94.277 173.79 94.2802 173.79 94.2798C173.79 94.2797 173.77 94.2588 173.737 94.2053L168.859 97.2877L163.982 100.37C165.623 102.966 168.067 104.735 171.065 105.461L172.423 99.8534ZM168.859 97.2877L173.737 94.2053C173.719 94.177 173.707 94.156 173.7 94.1423C173.693 94.1287 173.69 94.1216 173.69 94.1209C173.69 94.1202 173.691 94.1245 173.694 94.1333C173.696 94.1421 173.699 94.1536 173.702 94.167C173.704 94.1804 173.706 94.1936 173.707 94.2057C173.708 94.2179 173.708 94.2269 173.708 94.2319C173.708 94.2368 173.708 94.236 173.708 94.2288C173.709 94.2214 173.711 94.2064 173.716 94.1831L168.071 92.9923L162.426 91.8014C161.788 94.8247 162.349 97.7858 163.982 100.37L168.859 97.2877ZM168.071 92.9923L173.678 94.3502C173.691 94.2969 173.701 94.2772 173.699 94.2817C173.698 94.2835 173.695 94.2891 173.691 94.2976C173.686 94.3061 173.679 94.3156 173.672 94.3255C173.665 94.3353 173.659 94.3436 173.653 94.35C173.647 94.3563 173.644 94.3593 173.645 94.3589C173.645 94.3588 173.665 94.3393 173.719 94.3055L170.637 89.4283L167.554 84.5511C164.958 86.1918 163.189 88.6362 162.463 91.6343L168.071 92.9923ZM170.637 89.4283L173.716 94.3074C180.526 90.0091 186.495 85.1175 191.586 79.6173L187.352 75.6982L183.118 71.7791C178.77 76.4762 173.596 80.738 167.557 84.5493L170.637 89.4283ZM187.352 75.6982L191.586 79.6173C196.619 74.18 200.697 68.465 203.76 62.4635L198.621 59.8406L193.482 57.2178C190.959 62.1624 187.524 67.0192 183.118 71.7791L187.352 75.6982ZM198.621 59.8406L203.736 62.5095C204.356 61.3216 204.969 59.857 205.165 58.2549C205.372 56.5576 205.141 54.2442 203.434 52.2838L199.082 56.0713L194.73 59.8589C194.238 59.2936 193.939 58.6546 193.796 58.0571C193.661 57.4936 193.685 57.0622 193.711 56.8541C193.753 56.5084 193.821 56.5679 193.506 57.1717L198.621 59.8406ZM199.082 56.0713L203.596 52.4775C202.224 50.7548 200.398 49.9989 198.925 49.6882C197.486 49.3846 196.039 49.4229 194.771 49.5679L195.426 55.3001L196.082 61.0323C196.672 60.9648 196.764 61.0254 196.543 60.9788C196.289 60.9252 195.362 60.6612 194.569 59.6652L199.082 56.0713ZM195.426 55.3001L194.771 49.5679L175.327 51.7912L175.983 57.5234L176.638 63.2556L196.082 61.0323L195.426 55.3001ZM175.983 57.5234L175.327 51.7912C175.304 51.7939 175.311 51.7911 175.342 51.7936C175.373 51.7962 175.411 51.8028 175.45 51.8142C175.468 51.8196 175.482 51.825 175.493 51.8295C175.504 51.8339 175.509 51.8367 175.508 51.8363C175.507 51.8357 175.476 51.8193 175.417 51.7722L171.827 56.2889L168.238 60.8057C170.624 62.702 173.52 63.6122 176.638 63.2556L175.983 57.5234ZM171.827 56.2889L175.417 51.7722C175.358 51.7251 175.335 51.6987 175.334 51.6979C175.334 51.6973 175.338 51.7016 175.344 51.7111C175.351 51.7207 175.36 51.7338 175.369 51.7501C175.389 51.7849 175.404 51.8206 175.413 51.8505C175.423 51.8797 175.422 51.8872 175.419 51.8643L169.687 52.5198L163.955 53.1753C164.311 56.2933 165.852 58.9094 168.238 60.8057L171.827 56.2889ZM169.687 52.5198L175.419 51.8643C175.416 51.8405 175.416 51.8256 175.416 51.819C175.415 51.8124 175.416 51.8128 175.415 51.8193C175.415 51.8258 175.414 51.8366 175.411 51.8507C175.408 51.8649 175.405 51.8801 175.4 51.8955C175.396 51.911 175.391 51.9244 175.387 51.9352C175.382 51.9459 175.379 51.952 175.379 51.9531C175.378 51.9542 175.381 51.949 175.388 51.9374C175.396 51.9257 175.409 51.9069 175.43 51.8812L170.913 48.2914L166.396 44.7016C164.465 47.131 163.599 50.0619 163.955 53.1753L169.687 52.5198ZM170.913 48.2914L175.43 51.8812C175.477 51.8219 175.503 51.7989 175.504 51.7982C175.505 51.7976 175.5 51.8015 175.491 51.8082C175.481 51.815 175.468 51.8236 175.452 51.8329C175.417 51.8526 175.381 51.8678 175.351 51.8773C175.322 51.8867 175.315 51.8856 175.338 51.883L174.682 46.1508L174.027 40.4186C170.909 40.7751 168.292 42.3156 166.396 44.7016L170.913 48.2914ZM174.682 46.1508L175.338 51.883L195.368 49.5925L194.713 43.8603L194.057 38.1281L174.027 40.4186L174.682 46.1508ZM194.713 43.8603L195.368 49.5925C199.62 49.1063 202.09 49.6498 203.432 50.3752L206.176 45.2998L208.919 40.2244C204.662 37.923 199.49 37.5069 194.057 38.1281L194.713 43.8603ZM206.176 45.2998L203.541 50.4329C204.804 51.0807 205.357 51.8531 205.59 53.1622L211.27 52.1504L216.95 51.1387C216.076 46.2313 213.233 42.4367 208.81 40.1667L206.176 45.2998ZM211.27 52.1504L205.607 53.2503C205.902 54.7699 205.693 57.2384 204.058 60.9946L209.349 63.2969L214.639 65.5992C216.772 60.6986 217.844 55.736 216.934 51.0505L211.27 52.1504ZM209.349 63.2969L203.982 61.1777C203.764 61.7294 203.481 62.3439 203.12 63.0235L208.215 65.7308L213.309 68.4382C213.846 67.4294 214.318 66.4213 214.715 65.416L209.349 63.2969ZM208.215 65.7308L203.082 63.0965C202.69 63.86 202.276 64.6525 201.839 65.4742L206.934 68.1816L212.029 70.8889C212.489 70.0223 212.929 69.181 213.348 68.3651L208.215 65.7308ZM206.934 68.1816L203.8 73.0255C206.08 74.5007 208.387 76.1226 210.722 77.8934L214.209 73.2962L217.695 68.6991C215.147 66.7666 212.604 64.9787 210.068 63.3376L206.934 68.1816ZM214.209 73.2962L210.722 77.8934C213.133 79.7212 215.409 81.4866 217.552 83.1897L221.142 78.673L224.731 74.1562C222.514 72.3936 220.168 70.5745 217.695 68.6991L214.209 73.2962ZM221.142 78.673L217.608 83.2337C219.808 84.9382 221.669 86.4179 223.199 87.677L226.865 83.2217L230.531 78.7665C228.888 77.4151 226.934 75.8623 224.675 74.1122L221.142 78.673ZM226.865 83.2217L223.275 87.7385C223.282 87.7443 223.264 87.7303 223.233 87.693C223.201 87.6551 223.169 87.6085 223.144 87.5584C223.118 87.5089 223.107 87.4743 223.105 87.4654C223.102 87.4579 223.111 87.4869 223.118 87.5626L228.867 87.081L234.617 86.5995C234.357 83.503 232.982 80.7137 230.455 78.705L226.865 83.2217ZM228.867 87.081L223.135 87.7365C223.138 87.7603 223.138 87.7752 223.138 87.7819C223.139 87.7884 223.138 87.788 223.139 87.7815C223.139 87.775 223.14 87.7642 223.143 87.7501C223.146 87.736 223.149 87.7207 223.154 87.7053C223.158 87.6898 223.163 87.6764 223.167 87.6657C223.172 87.6549 223.175 87.6488 223.175 87.6477C223.176 87.6466 223.173 87.6518 223.166 87.6634C223.158 87.6751 223.145 87.6939 223.124 87.7197L227.641 91.3095L232.158 94.8993C234.089 92.4698 234.955 89.539 234.599 86.4256L228.867 87.081ZM227.641 91.3095L223.124 87.7197C223.112 87.7356 223.116 87.7277 223.139 87.7078C223.15 87.6984 223.164 87.6879 223.18 87.6773C223.195 87.6666 223.211 87.6571 223.226 87.649C223.258 87.6319 223.275 87.6271 223.269 87.6291C223.261 87.6314 223.219 87.6432 223.135 87.6529L223.79 93.3851L224.446 99.1173C227.478 98.7706 230.19 97.3747 232.158 94.8993L227.641 91.3095ZM223.79 93.3851L223.309 87.6357C223.213 87.6436 223.152 87.6411 223.119 87.6382C223.086 87.6353 223.073 87.6314 223.071 87.631C223.07 87.6307 223.067 87.63 223.058 87.6255C223.049 87.6208 223.022 87.6062 222.977 87.572L219.488 92.1674L216 96.7628C218.429 98.6068 221.29 99.3843 224.272 99.1345L223.79 93.3851ZM219.488 92.1674L223.237 87.7816C221.686 86.4561 219.826 84.9321 217.665 83.215L214.075 87.7318L210.485 92.2486C212.577 93.9105 214.325 95.3437 215.74 96.5531L219.488 92.1674ZM214.075 87.7318L217.78 83.3085C215.637 81.5144 213.371 79.6903 210.981 77.8362L207.444 82.3949L203.908 86.9535C206.194 88.7272 208.348 90.4611 210.371 92.1551L214.075 87.7318ZM207.444 82.3949L211.087 77.9206C208.689 75.9684 206.32 74.1785 203.981 72.5549L200.691 77.2948L197.402 82.0347C199.476 83.4744 201.609 85.0845 203.801 86.8691L207.444 82.3949ZM200.691 77.2948L196.175 73.705C193.087 77.5899 189.545 81.3649 185.535 85.0265L189.426 89.2867L193.317 93.5469C197.743 89.5046 201.711 85.285 205.208 80.8846L200.691 77.2948ZM189.426 89.2867L185.544 85.0189C181.59 88.6156 177.618 91.6661 173.632 94.1905L176.719 99.0649L179.806 103.939C184.414 101.021 188.914 97.5528 193.309 93.5545L189.426 89.2867ZM264.965 92.6908L268.555 88.174L268.504 88.1341L268.453 88.0954L264.965 92.6908ZM266.185 33.1603L262.496 37.5962L262.545 37.6372L262.596 37.6771L266.185 33.1603ZM270.247 53.7317L264.515 54.3871L266.036 67.6854L274.66 57.449L270.247 53.7317ZM273.235 51.9034L274.568 57.5167L274.678 57.4906L274.787 57.4601L273.235 51.9034ZM276.75 52.0961L274.581 57.4422L274.622 57.4591L274.664 57.4754L276.75 52.0961ZM293.872 60.7677L290.726 65.6045L290.764 65.6292L290.803 65.6533L293.872 60.7677ZM296.297 64.4299L290.615 65.4309L290.632 65.5245L290.651 65.6175L296.297 64.4299ZM295.528 68.7547L290.643 65.6857L290.643 65.6857L295.528 68.7547ZM291.874 71.2538L290.703 65.6045L290.695 65.6062L290.687 65.6078L291.874 71.2538ZM287.55 70.4847L290.619 65.5992L290.597 65.5857L290.576 65.5724L287.55 70.4847ZM282.541 67.6382L279.771 72.6992L279.805 72.718L279.84 72.7364L282.541 67.6382ZM277.248 64.8985L274.613 70.0316L274.668 70.0596L274.723 70.0865L277.248 64.8985ZM272.617 62.7522L269.702 67.7312L270.075 67.9496L270.476 68.1099L272.617 62.7522ZM271.906 62.3874L268.316 66.9042L268.872 67.3461L269.519 67.64L271.906 62.3874ZM271.179 61.876L274.248 56.9904L264.083 50.6049L265.446 62.5314L271.179 61.876ZM272.889 91.7847L268.453 88.0954L268.371 88.194L268.294 88.2961L272.889 91.7847ZM269.12 93.9253L268.464 88.1931C268.441 88.1957 268.449 88.1929 268.479 88.1954C268.51 88.198 268.549 88.2047 268.587 88.2161C268.605 88.2214 268.62 88.2268 268.63 88.2313C268.641 88.2357 268.646 88.2385 268.646 88.2381C268.645 88.2376 268.614 88.2211 268.555 88.174L264.965 92.6908L261.375 97.2075C263.761 99.1038 266.657 100.014 269.775 99.6575L269.12 93.9253ZM264.965 92.6908L268.453 88.0954C268.421 88.0705 268.42 88.0659 268.439 88.0863C268.457 88.1075 268.484 88.1425 268.51 88.1886C268.537 88.2347 268.552 88.274 268.56 88.2977C268.567 88.3202 268.562 88.313 268.556 88.2662L262.824 88.9217L257.092 89.5771C257.449 92.6972 258.966 95.3808 261.476 97.2862L264.965 92.6908ZM262.824 88.9217L268.556 88.2662L262.767 37.6394L257.035 38.2948L251.303 38.9503L257.092 89.5771L262.824 88.9217ZM257.035 38.2948L262.767 37.6394C262.765 37.6155 262.764 37.6006 262.764 37.594C262.764 37.5874 262.764 37.5878 262.763 37.5943C262.763 37.6009 262.762 37.6117 262.759 37.6258C262.757 37.6399 262.753 37.6551 262.749 37.6706C262.744 37.686 262.739 37.6994 262.735 37.7102C262.731 37.7209 262.728 37.727 262.727 37.7282C262.726 37.7293 262.729 37.724 262.737 37.7124C262.744 37.7008 262.758 37.6819 262.778 37.6562L258.261 34.0664L253.744 30.4766C251.814 32.9061 250.947 35.8369 251.303 38.9503L257.035 38.2948ZM258.261 34.0664L262.778 37.6562C262.825 37.597 262.851 37.5739 262.852 37.5732C262.853 37.5727 262.848 37.5765 262.839 37.5833C262.829 37.5901 262.816 37.5986 262.8 37.6079C262.765 37.6277 262.73 37.6428 262.7 37.6524C262.67 37.6617 262.663 37.6606 262.686 37.658L262.03 31.9258L261.375 26.1936C258.257 26.5501 255.641 28.0907 253.744 30.4766L258.261 34.0664ZM262.03 31.9258L262.686 37.658C262.733 37.6526 262.741 37.6558 262.717 37.654C262.692 37.652 262.651 37.6459 262.6 37.6308C262.549 37.6157 262.509 37.5975 262.484 37.5839C262.46 37.5708 262.465 37.5699 262.496 37.5962L266.185 33.1603L269.875 28.7244C267.452 26.7094 264.495 25.8368 261.375 26.1936L262.03 31.9258ZM266.185 33.1603L262.596 37.6771C262.621 37.6975 262.638 37.7129 262.648 37.7225C262.659 37.7321 262.662 37.7366 262.662 37.7357C262.661 37.7347 262.656 37.7294 262.65 37.72C262.643 37.7105 262.635 37.6985 262.627 37.6845C262.62 37.6704 262.613 37.6564 262.607 37.6432C262.601 37.63 262.598 37.6198 262.596 37.6135C262.594 37.6073 262.594 37.6068 262.595 37.6133C262.597 37.6198 262.599 37.6344 262.602 37.6583L268.334 37.0028L274.067 36.3473C273.711 33.2339 272.205 30.5744 269.775 28.6435L266.185 33.1603ZM268.334 37.0028L262.602 37.6583L264.515 54.3871L270.247 53.7317L275.98 53.0762L274.067 36.3473L268.334 37.0028ZM270.247 53.7317L274.66 57.449C274.668 57.4393 274.666 57.4434 274.652 57.4554C274.637 57.4677 274.618 57.4824 274.595 57.4965C274.572 57.5106 274.554 57.519 274.544 57.5229C274.535 57.5267 274.541 57.5231 274.568 57.5167L273.235 51.9034L271.901 46.2902C269.514 46.8573 267.431 48.1194 265.835 50.0143L270.247 53.7317ZM273.235 51.9034L274.787 57.4601C274.806 57.4548 274.805 57.4567 274.785 57.459C274.765 57.4613 274.735 57.4629 274.698 57.4609C274.662 57.4589 274.629 57.4538 274.604 57.4481C274.579 57.4425 274.571 57.4383 274.581 57.4422L276.75 52.0961L278.92 46.7499C276.58 45.8005 274.098 45.6714 271.682 46.3468L273.235 51.9034ZM276.75 52.0961L274.664 57.4754C277.543 58.5916 280.37 59.8544 283.145 61.2645L285.758 56.1206L288.371 50.9767C285.255 49.3934 282.076 47.9733 278.836 46.7168L276.75 52.0961ZM285.758 56.1206L283.145 61.2645C285.931 62.6795 288.455 64.1275 290.726 65.6045L293.872 60.7677L297.017 55.9309C294.363 54.2049 291.478 52.5549 288.371 50.9767L285.758 56.1206ZM293.872 60.7677L290.803 65.6533C290.823 65.6661 290.809 65.66 290.777 65.6287C290.743 65.5966 290.705 65.552 290.669 65.4981C290.634 65.4446 290.614 65.401 290.605 65.3787C290.597 65.3577 290.605 65.3711 290.615 65.4309L296.297 64.4299L301.979 63.4289C301.425 60.2795 299.707 57.6197 296.941 55.8821L293.872 60.7677ZM296.297 64.4299L290.651 65.6175C290.658 65.6482 290.661 65.6702 290.663 65.684C290.664 65.6979 290.665 65.7046 290.665 65.705C290.665 65.7054 290.664 65.7009 290.665 65.6926C290.666 65.6841 290.667 65.6738 290.669 65.6623C290.671 65.6508 290.673 65.6404 290.676 65.6316C290.678 65.6229 290.68 65.6179 290.681 65.6171C290.682 65.6144 290.673 65.6371 290.643 65.6857L295.528 68.7547L300.414 71.8238C302.051 69.2169 302.576 66.2482 301.943 63.2422L296.297 64.4299ZM295.528 68.7547L290.643 65.6857C290.625 65.7141 290.623 65.7114 290.642 65.691C290.663 65.6698 290.692 65.6432 290.729 65.6184C290.765 65.5937 290.791 65.582 290.796 65.5797C290.801 65.5779 290.773 65.5899 290.703 65.6045L291.874 71.2538L293.046 76.9031C296.121 76.2655 298.708 74.5396 300.414 71.8238L295.528 68.7547ZM291.874 71.2538L290.687 65.6078C290.656 65.6143 290.634 65.6175 290.62 65.6192C290.606 65.6208 290.6 65.621 290.599 65.621C290.599 65.621 290.603 65.6209 290.612 65.6215C290.62 65.6222 290.631 65.6234 290.642 65.6254C290.654 65.6275 290.664 65.6299 290.673 65.6324C290.681 65.6349 290.686 65.6368 290.687 65.6371C290.69 65.6382 290.667 65.6297 290.619 65.5992L287.55 70.4847L284.481 75.3703C287.087 77.0079 290.056 77.5321 293.062 76.8998L291.874 71.2538ZM287.55 70.4847L290.576 65.5724C288.959 64.5765 287.179 63.5659 285.242 62.54L282.541 67.6382L279.84 72.7364C281.596 73.6668 283.155 74.5539 284.524 75.397L287.55 70.4847ZM282.541 67.6382L285.311 62.5772C283.438 61.5519 281.592 60.596 279.772 59.7106L277.248 64.8985L274.723 70.0865C276.367 70.8863 278.049 71.7569 279.771 72.6992L282.541 67.6382ZM277.248 64.8985L279.882 59.7655C278.034 58.8173 276.321 58.0191 274.757 57.3944L272.617 62.7522L270.476 68.1099C271.613 68.564 272.987 69.1967 274.613 70.0316L277.248 64.8985ZM272.617 62.7522L275.532 57.7731C275.123 57.5338 274.706 57.3226 274.293 57.1349L271.906 62.3874L269.519 67.64C269.629 67.6898 269.686 67.7218 269.702 67.7312L272.617 62.7522ZM271.906 62.3874L275.496 57.8707C275.091 57.549 274.672 57.2568 274.248 56.9904L271.179 61.876L268.11 66.7615C268.219 66.8305 268.285 66.8793 268.316 66.9042L271.906 62.3874ZM271.179 61.876L265.446 62.5314L268.391 88.2851L274.123 87.6296L279.856 86.9741L276.911 61.2205L271.179 61.876ZM274.123 87.6296L268.391 88.2851C268.397 88.3319 268.393 88.34 268.395 88.3165C268.397 88.2917 268.403 88.2499 268.418 88.1991C268.434 88.1483 268.452 88.1082 268.465 88.0832C268.478 88.0593 268.479 88.0638 268.453 88.0954L272.889 91.7847L277.325 95.4739C279.34 93.0511 280.212 90.0943 279.856 86.9741L274.123 87.6296ZM272.889 91.7847L268.294 88.2961C268.269 88.3288 268.264 88.329 268.284 88.3109C268.306 88.2919 268.341 88.2652 268.387 88.239C268.433 88.2128 268.472 88.1974 268.496 88.1899C268.518 88.1828 268.511 88.1877 268.464 88.1931L269.12 93.9253L269.775 99.6575C272.895 99.3007 275.579 97.7832 277.484 95.2732L272.889 91.7847Z" fill="#1F6306" mask="url(#path-1-outside-1_40001603_10734)"/>
<path d="M6 96.9951C15.3889 96.9951 36.3978 96.4592 48.2502 94.3073C69.0291 90.5349 83.5061 87.251 87.5115 86.983C92.711 86.6351 101.836 85.6269 113.727 85.359C124.229 85.1223 131.166 84.0029 136.597 83.601C140.053 83.3451 144.87 82.3951 164.272 78.3635C183.675 74.3319 217.501 67.0968 235.637 63.3697C255.132 59.3633 264.618 58.0348 277.388 55.5988C286.221 54.5025 295.351 53.9585 302.716 53.2845C304.861 53.1465 308.272 53.1465 311.786 53.1465" stroke="#FF4141" stroke-width="11.5391" stroke-linecap="round"/>
</svg>
