<svg width="313" height="142" viewBox="0 0 313 142" fill="none" xmlns="http://www.w3.org/2000/svg">
<mask id="path-1-outside-1_40001603_10731" maskUnits="userSpaceOnUse" x="19.4033" y="20.3064" width="280.284" height="109.303" fill="black">
<rect fill="white" x="19.4033" y="20.3064" width="280.284" height="109.303"/>
<path d="M40.9453 92.4439C39.482 93.06 37.9979 93.0288 36.4932 92.3504C35.0314 91.7268 34.0169 90.6863 33.4497 89.2289C32.8396 87.7167 32.8189 86.2511 33.3877 84.8323C33.9624 83.3646 34.9785 82.3471 36.4359 81.7799C39.564 80.5226 42.2486 79.038 44.4895 77.3259C46.7305 75.6139 48.5975 73.5094 50.0905 71.0123C51.6325 68.5212 52.8915 65.4999 53.8677 61.9483C54.8439 58.3967 55.6284 54.1771 56.221 49.2896C56.464 47.2857 56.6574 45.0774 56.8012 42.6647C56.9449 40.252 56.9865 38.2733 56.9259 36.7285C56.92 35.1408 57.5044 33.7982 58.6789 32.7008C59.8535 31.6033 61.2072 31.0732 62.7401 31.1103C64.3219 31.1533 65.6401 31.7347 66.6945 32.8544C67.7979 33.9801 68.3525 35.3368 68.3583 36.9245C68.3775 38.8114 68.2848 41.0072 68.0803 43.5117C67.9306 45.9732 67.7165 48.3526 67.4379 50.6497C66.5964 57.59 65.2542 63.7505 63.4115 69.1312C61.5688 74.5119 58.8745 79.1446 55.3286 83.0294C51.7886 86.8652 46.9942 90.0034 40.9453 92.4439ZM35.4391 67.3015C33.8869 67.0141 32.6932 66.2247 31.8579 64.9331C31.0715 63.6475 30.8554 62.1583 31.2094 60.4654C31.4672 59.1576 31.7176 57.5018 31.9606 55.4979C32.2036 53.494 32.4154 51.3375 32.5962 49.0285C32.777 46.7195 32.9275 44.4564 33.0476 42.2392C33.1676 40.0221 33.2062 38.0678 33.1634 36.3764C33.1753 34.642 33.7656 33.2506 34.9342 32.202C36.1087 31.1046 37.4625 30.5744 38.9954 30.6115C40.5713 30.7034 41.8894 31.2848 42.9498 32.3557C44.0102 33.4266 44.5433 34.7559 44.5492 36.3436C44.5239 37.7788 44.4454 39.6538 44.3134 41.9687C44.1815 44.2837 44.0044 46.7667 43.7821 49.4178C43.5658 52.0201 43.3339 54.5461 43.0864 56.9958C42.8449 59.3966 42.5745 61.422 42.2752 63.0719C42.0367 64.63 41.2257 65.7963 39.8424 66.5708C38.459 67.3454 36.9912 67.5889 35.4391 67.3015ZM104.059 97.7166C102.565 98.1801 101.096 98.0267 99.6516 97.2565C98.2564 96.4922 97.3271 95.3628 96.8636 93.8684C96.4001 92.374 96.529 90.9018 97.2504 89.4518C98.0206 88.0078 99.1529 87.054 100.647 86.5905C108.528 84.1738 115.261 80.9979 120.847 77.0629C126.487 73.085 130.852 68.5805 133.942 63.5494C135.241 61.4255 135.586 59.806 134.977 58.6907C134.423 57.5325 132.827 56.7933 130.188 56.4733L103.575 53.2463C102.06 53.0625 100.808 52.3404 99.8204 51.08C98.8325 49.8196 98.4305 48.4318 98.6142 46.9166C98.8039 45.3526 99.5289 44.0767 100.789 43.0889C102.05 42.101 103.438 41.699 104.953 41.8827L132.372 45.2075C139.801 46.1084 144.503 48.6376 146.479 52.7951C148.454 56.9525 147.683 62.0911 144.163 68.2108C140.28 74.8814 134.955 80.7574 128.189 85.8387C121.472 90.9259 113.429 94.8852 104.059 97.7166ZM155.099 57.783C152.997 57.5282 151.277 56.5757 149.94 54.9258C148.658 53.2328 148.144 51.3355 148.399 49.2339C148.653 47.1322 149.603 45.4372 151.247 44.1487C152.94 42.8662 154.837 42.3523 156.939 42.6072C159.04 42.862 160.735 43.8115 162.024 45.4555C163.312 47.0996 163.829 48.9724 163.574 51.0741C163.32 53.1757 162.367 54.8952 160.717 56.2326C159.073 57.521 157.2 58.0379 155.099 57.783ZM155.694 52.871C156.427 52.9599 157.092 52.7926 157.689 52.369C158.292 51.8966 158.641 51.2694 158.736 50.4874C158.825 49.7542 158.633 49.0862 158.16 48.4834C157.688 47.8806 157.085 47.5347 156.352 47.4458C155.57 47.351 154.878 47.5398 154.275 48.0123C153.721 48.4906 153.399 49.0964 153.311 49.8295C153.216 50.6115 153.38 51.301 153.804 51.8979C154.282 52.4518 154.912 52.7762 155.694 52.871ZM181.429 108.735C179.904 109.046 178.477 108.749 177.148 107.844C175.863 106.994 175.067 105.781 174.762 104.207C174.451 102.682 174.721 101.276 175.571 99.9904C176.476 98.6619 177.691 97.8422 179.217 97.5313C185.362 96.3422 190.866 94.3067 195.728 91.4248C200.597 88.4939 204.346 84.981 206.975 80.8859C207.655 79.7781 207.795 78.828 207.395 78.0356C206.995 77.2432 205.94 76.7433 204.229 76.5358L177.396 73.2821C175.832 73.0925 174.553 72.3919 173.56 71.1803C172.566 69.9687 172.161 68.6054 172.345 67.0902C172.534 65.5262 173.256 64.2747 174.511 63.3358C175.765 62.3968 177.175 62.0222 178.739 62.2118L206.378 65.5633C210.825 66.1026 214.143 67.3728 216.33 69.3739C218.573 71.332 219.687 73.798 219.674 76.7721C219.715 79.7031 218.658 82.8978 216.503 86.356C212.945 91.9751 208.105 96.7195 201.982 100.589C195.908 104.465 189.057 107.18 181.429 108.735ZM183.846 58.7396C182.331 58.5559 181.101 57.8612 180.156 56.6556C179.211 55.4499 178.831 54.0896 179.015 52.5744C179.198 51.0593 179.893 49.8293 181.099 48.8844C182.304 47.9395 183.665 47.5589 185.18 47.7427L213.919 51.2275C215.434 51.4112 216.639 52.103 217.535 53.3027C218.48 54.5083 218.861 55.8687 218.677 57.3839C218.493 58.899 217.799 60.129 216.593 61.0739C215.436 62.0247 214.1 62.4082 212.585 62.2245L183.846 58.7396ZM268.85 120.303C267.334 120.119 266.083 119.397 265.095 118.136C264.101 116.925 263.699 115.537 263.889 113.973L267.169 86.9204C264.032 89.0693 260.809 91.1086 257.501 93.0383C254.198 94.9192 250.91 96.6778 247.636 98.3143C246.216 98.9851 244.772 99.0332 243.304 98.4585C241.836 97.8837 240.767 96.8862 240.096 95.4658C239.48 94.0024 239.432 92.5584 239.952 91.1336C240.527 89.6659 241.524 88.5966 242.945 87.9257C245.206 86.8609 247.727 85.5051 250.505 83.8583C253.333 82.2173 256.227 80.4357 259.187 78.5134C262.154 76.5422 265.053 74.5133 267.885 72.4266C270.772 70.2969 273.378 68.2324 275.704 66.233C278.078 64.2396 280.013 62.3913 281.509 60.6881C282.592 59.53 283.908 58.8961 285.459 58.7866C287.059 58.683 288.441 59.1481 289.605 60.182C290.769 61.2158 291.403 62.5326 291.506 64.1321C291.665 65.6888 291.202 67.0461 290.12 68.2043C288.593 69.7549 286.965 71.3181 285.236 72.8939C283.557 74.4757 281.755 76.0426 279.831 77.5946L275.253 115.351C275.063 116.915 274.341 118.166 273.086 119.105C271.826 120.093 270.414 120.492 268.85 120.303Z"/>
</mask>
<path d="M40.9453 92.4439C39.482 93.06 37.9979 93.0288 36.4932 92.3504C35.0314 91.7268 34.0169 90.6863 33.4497 89.2289C32.8396 87.7167 32.8189 86.2511 33.3877 84.8323C33.9624 83.3646 34.9785 82.3471 36.4359 81.7799C39.564 80.5226 42.2486 79.038 44.4895 77.3259C46.7305 75.6139 48.5975 73.5094 50.0905 71.0123C51.6325 68.5212 52.8915 65.4999 53.8677 61.9483C54.8439 58.3967 55.6284 54.1771 56.221 49.2896C56.464 47.2857 56.6574 45.0774 56.8012 42.6647C56.9449 40.252 56.9865 38.2733 56.9259 36.7285C56.92 35.1408 57.5044 33.7982 58.6789 32.7008C59.8535 31.6033 61.2072 31.0732 62.7401 31.1103C64.3219 31.1533 65.6401 31.7347 66.6945 32.8544C67.7979 33.9801 68.3525 35.3368 68.3583 36.9245C68.3775 38.8114 68.2848 41.0072 68.0803 43.5117C67.9306 45.9732 67.7165 48.3526 67.4379 50.6497C66.5964 57.59 65.2542 63.7505 63.4115 69.1312C61.5688 74.5119 58.8745 79.1446 55.3286 83.0294C51.7886 86.8652 46.9942 90.0034 40.9453 92.4439ZM35.4391 67.3015C33.8869 67.0141 32.6932 66.2247 31.8579 64.9331C31.0715 63.6475 30.8554 62.1583 31.2094 60.4654C31.4672 59.1576 31.7176 57.5018 31.9606 55.4979C32.2036 53.494 32.4154 51.3375 32.5962 49.0285C32.777 46.7195 32.9275 44.4564 33.0476 42.2392C33.1676 40.0221 33.2062 38.0678 33.1634 36.3764C33.1753 34.642 33.7656 33.2506 34.9342 32.202C36.1087 31.1046 37.4625 30.5744 38.9954 30.6115C40.5713 30.7034 41.8894 31.2848 42.9498 32.3557C44.0102 33.4266 44.5433 34.7559 44.5492 36.3436C44.5239 37.7788 44.4454 39.6538 44.3134 41.9687C44.1815 44.2837 44.0044 46.7667 43.7821 49.4178C43.5658 52.0201 43.3339 54.5461 43.0864 56.9958C42.8449 59.3966 42.5745 61.422 42.2752 63.0719C42.0367 64.63 41.2257 65.7963 39.8424 66.5708C38.459 67.3454 36.9912 67.5889 35.4391 67.3015ZM104.059 97.7166C102.565 98.1801 101.096 98.0267 99.6516 97.2565C98.2564 96.4922 97.3271 95.3628 96.8636 93.8684C96.4001 92.374 96.529 90.9018 97.2504 89.4518C98.0206 88.0078 99.1529 87.054 100.647 86.5905C108.528 84.1738 115.261 80.9979 120.847 77.0629C126.487 73.085 130.852 68.5805 133.942 63.5494C135.241 61.4255 135.586 59.806 134.977 58.6907C134.423 57.5325 132.827 56.7933 130.188 56.4733L103.575 53.2463C102.06 53.0625 100.808 52.3404 99.8204 51.08C98.8325 49.8196 98.4305 48.4318 98.6142 46.9166C98.8039 45.3526 99.5289 44.0767 100.789 43.0889C102.05 42.101 103.438 41.699 104.953 41.8827L132.372 45.2075C139.801 46.1084 144.503 48.6376 146.479 52.7951C148.454 56.9525 147.683 62.0911 144.163 68.2108C140.28 74.8814 134.955 80.7574 128.189 85.8387C121.472 90.9259 113.429 94.8852 104.059 97.7166ZM155.099 57.783C152.997 57.5282 151.277 56.5757 149.94 54.9258C148.658 53.2328 148.144 51.3355 148.399 49.2339C148.653 47.1322 149.603 45.4372 151.247 44.1487C152.94 42.8662 154.837 42.3523 156.939 42.6072C159.04 42.862 160.735 43.8115 162.024 45.4555C163.312 47.0996 163.829 48.9724 163.574 51.0741C163.32 53.1757 162.367 54.8952 160.717 56.2326C159.073 57.521 157.2 58.0379 155.099 57.783ZM155.694 52.871C156.427 52.9599 157.092 52.7926 157.689 52.369C158.292 51.8966 158.641 51.2694 158.736 50.4874C158.825 49.7542 158.633 49.0862 158.16 48.4834C157.688 47.8806 157.085 47.5347 156.352 47.4458C155.57 47.351 154.878 47.5398 154.275 48.0123C153.721 48.4906 153.399 49.0964 153.311 49.8295C153.216 50.6115 153.38 51.301 153.804 51.8979C154.282 52.4518 154.912 52.7762 155.694 52.871ZM181.429 108.735C179.904 109.046 178.477 108.749 177.148 107.844C175.863 106.994 175.067 105.781 174.762 104.207C174.451 102.682 174.721 101.276 175.571 99.9904C176.476 98.6619 177.691 97.8422 179.217 97.5313C185.362 96.3422 190.866 94.3067 195.728 91.4248C200.597 88.4939 204.346 84.981 206.975 80.8859C207.655 79.7781 207.795 78.828 207.395 78.0356C206.995 77.2432 205.94 76.7433 204.229 76.5358L177.396 73.2821C175.832 73.0925 174.553 72.3919 173.56 71.1803C172.566 69.9687 172.161 68.6054 172.345 67.0902C172.534 65.5262 173.256 64.2747 174.511 63.3358C175.765 62.3968 177.175 62.0222 178.739 62.2118L206.378 65.5633C210.825 66.1026 214.143 67.3728 216.33 69.3739C218.573 71.332 219.687 73.798 219.674 76.7721C219.715 79.7031 218.658 82.8978 216.503 86.356C212.945 91.9751 208.105 96.7195 201.982 100.589C195.908 104.465 189.057 107.18 181.429 108.735ZM183.846 58.7396C182.331 58.5559 181.101 57.8612 180.156 56.6556C179.211 55.4499 178.831 54.0896 179.015 52.5744C179.198 51.0593 179.893 49.8293 181.099 48.8844C182.304 47.9395 183.665 47.5589 185.18 47.7427L213.919 51.2275C215.434 51.4112 216.639 52.103 217.535 53.3027C218.48 54.5083 218.861 55.8687 218.677 57.3839C218.493 58.899 217.799 60.129 216.593 61.0739C215.436 62.0247 214.1 62.4082 212.585 62.2245L183.846 58.7396ZM268.85 120.303C267.334 120.119 266.083 119.397 265.095 118.136C264.101 116.925 263.699 115.537 263.889 113.973L267.169 86.9204C264.032 89.0693 260.809 91.1086 257.501 93.0383C254.198 94.9192 250.91 96.6778 247.636 98.3143C246.216 98.9851 244.772 99.0332 243.304 98.4585C241.836 97.8837 240.767 96.8862 240.096 95.4658C239.48 94.0024 239.432 92.5584 239.952 91.1336C240.527 89.6659 241.524 88.5966 242.945 87.9257C245.206 86.8609 247.727 85.5051 250.505 83.8583C253.333 82.2173 256.227 80.4357 259.187 78.5134C262.154 76.5422 265.053 74.5133 267.885 72.4266C270.772 70.2969 273.378 68.2324 275.704 66.233C278.078 64.2396 280.013 62.3913 281.509 60.6881C282.592 59.53 283.908 58.8961 285.459 58.7866C287.059 58.683 288.441 59.1481 289.605 60.182C290.769 61.2158 291.403 62.5326 291.506 64.1321C291.665 65.6888 291.202 67.0461 290.12 68.2043C288.593 69.7549 286.965 71.3181 285.236 72.8939C283.557 74.4757 281.755 76.0426 279.831 77.5946L275.253 115.351C275.063 116.915 274.341 118.166 273.086 119.105C271.826 120.093 270.414 120.492 268.85 120.303Z" fill="white"/>
<path d="M40.9453 92.4439L38.7866 87.0935L38.7465 87.1096L38.7066 87.1264L40.9453 92.4439ZM36.4932 92.3504L38.8645 87.0907L38.811 87.0666L38.7571 87.0436L36.4932 92.3504ZM33.4497 89.2289L38.8264 87.1364L38.8135 87.1032L38.8002 87.0701L33.4497 89.2289ZM33.3877 84.8323L38.7429 86.9792L38.7516 86.9576L38.7601 86.936L33.3877 84.8323ZM36.4359 81.7799L38.5284 87.1567L38.5581 87.1451L38.5876 87.1332L36.4359 81.7799ZM44.4895 77.3259L47.9921 81.9107L47.9921 81.9106L44.4895 77.3259ZM50.0905 71.0123L45.1847 67.9758L45.1614 68.0134L45.1387 68.0515L50.0905 71.0123ZM53.8677 61.9483L48.3045 60.4191L48.3045 60.4192L53.8677 61.9483ZM56.8012 42.6647L51.0418 42.3215L51.0418 42.3215L56.8012 42.6647ZM56.9259 36.7285L51.1563 36.7498L51.1567 36.8524L51.1607 36.9549L56.9259 36.7285ZM58.6789 32.7008L54.74 28.485L54.74 28.485L58.6789 32.7008ZM62.7401 31.1103L62.897 25.3429L62.8884 25.3426L62.8797 25.3424L62.7401 31.1103ZM66.6945 32.8544L62.4943 36.8099L62.5338 36.8519L62.5742 36.8931L66.6945 32.8544ZM68.3583 36.9245L62.5888 36.9458L62.5889 36.9645L62.5891 36.9831L68.3583 36.9245ZM68.0803 43.5117L62.3299 43.0421L62.325 43.1017L62.3214 43.1614L68.0803 43.5117ZM63.4115 69.1312L68.8698 71.0005L63.4115 69.1312ZM55.3286 83.0294L59.5685 86.9422L59.5792 86.9306L59.5899 86.919L55.3286 83.0294ZM35.4391 67.3015L34.3886 72.9747L34.3886 72.9747L35.4391 67.3015ZM31.8579 64.9331L26.9361 67.9437L26.9739 68.0055L27.0132 68.0663L31.8579 64.9331ZM31.2094 60.4654L36.8568 61.6465L36.8636 61.6139L36.8701 61.5811L31.2094 60.4654ZM32.5962 49.0285L26.8443 48.5781L32.5962 49.0285ZM33.0476 42.2392L38.8087 42.5512L33.0476 42.2392ZM33.1634 36.3764L27.3939 36.3367L27.3933 36.4296L27.3957 36.5226L33.1634 36.3764ZM34.9342 32.202L38.7873 36.4964L38.8306 36.4575L38.8731 36.4178L34.9342 32.202ZM38.9954 30.6115L39.3313 24.8518L39.2332 24.846L39.135 24.8437L38.9954 30.6115ZM42.9498 32.3557L38.8501 36.4153L38.8501 36.4153L42.9498 32.3557ZM44.5492 36.3436L50.3179 36.4451L50.3189 36.3837L50.3187 36.3223L44.5492 36.3436ZM43.7821 49.4178L38.0327 48.9358L38.0324 48.9398L43.7821 49.4178ZM43.0864 56.9958L37.3461 56.4159L37.3458 56.4182L43.0864 56.9958ZM42.2752 63.0719L36.5983 62.0422L36.5841 62.1203L36.5721 62.1988L42.2752 63.0719ZM39.8424 66.5708L37.0238 61.5366L37.0237 61.5366L39.8424 66.5708ZM40.9453 92.4439L38.7066 87.1264C38.6799 87.1377 38.6859 87.1324 38.7209 87.1254C38.757 87.1183 38.8044 87.1132 38.8559 87.1143C38.9071 87.1154 38.9407 87.122 38.9506 87.1244C38.959 87.1264 38.9312 87.1208 38.8645 87.0907L36.4932 92.3504L34.1219 97.6101C37.0231 98.9181 40.1779 99.027 43.184 97.7615L40.9453 92.4439ZM36.4932 92.3504L38.7571 87.0436C38.7037 87.0208 38.6884 87.0089 38.6988 87.0159C38.7102 87.0235 38.736 87.0429 38.767 87.0746C38.798 87.1065 38.8204 87.1366 38.8335 87.1572C38.846 87.177 38.841 87.1739 38.8264 87.1364L33.4497 89.2289L28.073 91.3214C29.2133 94.2516 31.3658 96.4357 34.2293 97.6573L36.4932 92.3504ZM33.4497 89.2289L38.8002 87.0701C38.7646 86.9819 38.7513 86.9286 38.7469 86.9078C38.7427 86.8881 38.7453 86.8919 38.7456 86.9142C38.7459 86.937 38.7437 86.9617 38.7397 86.9823C38.7359 87.0024 38.7336 87.0025 38.7429 86.9792L33.3877 84.8323L28.0324 82.6854C26.8702 85.5847 26.9729 88.5961 28.0992 91.3877L33.4497 89.2289ZM33.3877 84.8323L38.7601 86.936C38.7754 86.8968 38.7788 86.8982 38.7608 86.9264C38.742 86.9558 38.7097 86.9988 38.6633 87.0453C38.6168 87.0919 38.5718 87.1261 38.5379 87.1478C38.5052 87.1688 38.4975 87.1687 38.5284 87.1567L36.4359 81.7799L34.3434 76.4032C31.3699 77.5604 29.1727 79.773 28.0153 82.7286L33.3877 84.8323ZM36.4359 81.7799L38.5876 87.1332C42.1076 85.7184 45.2662 83.9931 47.9921 81.9107L44.4895 77.3259L40.9869 72.7412C39.2309 74.0828 37.0205 75.3268 34.2842 76.4266L36.4359 81.7799ZM44.4895 77.3259L47.9921 81.9106C50.8333 79.7401 53.1858 77.0783 55.0424 73.9732L50.0905 71.0123L45.1387 68.0515C44.0092 69.9405 42.6277 71.4877 40.9869 72.7412L44.4895 77.3259ZM50.0905 71.0123L54.9964 74.0489C56.8916 70.987 58.3444 67.4303 59.431 63.4774L53.8677 61.9483L48.3045 60.4192C47.4386 63.5694 46.3734 66.0554 45.1847 67.9758L50.0905 71.0123ZM53.8677 61.9483L59.4309 63.4774C60.5026 59.5785 61.3324 55.0661 61.9486 49.9841L56.221 49.2896L50.4934 48.595C49.9243 53.2881 49.1852 57.2148 48.3045 60.4191L53.8677 61.9483ZM56.221 49.2896L61.9486 49.9841C62.2082 47.8434 62.411 45.5159 62.5605 43.0079L56.8012 42.6647L51.0418 42.3215C50.9037 44.6388 50.7198 46.7279 50.4934 48.595L56.221 49.2896ZM56.8012 42.6647L62.5605 43.0079C62.7101 40.4983 62.762 38.3112 62.691 36.5021L56.9259 36.7285L51.1607 36.9549C51.211 38.2354 51.1798 40.0058 51.0418 42.3215L56.8012 42.6647ZM56.9259 36.7285L62.6954 36.7073C62.6952 36.6686 62.6987 36.6696 62.6924 36.7011C62.686 36.7339 62.6728 36.7809 62.6499 36.8333C62.6271 36.8857 62.6035 36.9234 62.5889 36.9436C62.5752 36.9627 62.5794 36.9524 62.6178 36.9165L58.6789 32.7008L54.74 28.485C52.4089 30.6631 51.1445 33.534 51.1563 36.7498L56.9259 36.7285ZM58.6789 32.7008L62.6178 36.9165C62.6763 36.8619 62.7101 36.8394 62.7164 36.8353C62.7199 36.8331 62.718 36.8345 62.7109 36.8382C62.7037 36.8419 62.693 36.8469 62.6791 36.8523C62.6652 36.8578 62.6502 36.8628 62.6349 36.8671C62.6196 36.8713 62.6061 36.8742 62.5954 36.876C62.5902 36.8769 62.5861 36.8775 62.5831 36.8778C62.5817 36.878 62.5806 36.8781 62.5798 36.8782C62.579 36.8783 62.5787 36.8783 62.5787 36.8783C62.5787 36.8783 62.5791 36.8783 62.58 36.8782C62.5808 36.8782 62.5821 36.8781 62.5839 36.8781C62.5874 36.878 62.5929 36.878 62.6005 36.8781L62.7401 31.1103L62.8797 25.3424C59.7574 25.2669 56.9592 26.4115 54.74 28.485L58.6789 32.7008ZM62.7401 31.1103L62.5832 36.8777C62.6465 36.8794 62.6702 36.8854 62.6626 36.8838C62.6538 36.8819 62.6257 36.8747 62.5867 36.8575C62.5475 36.8402 62.5147 36.8205 62.4924 36.8045C62.4708 36.789 62.4722 36.7864 62.4943 36.8099L66.6945 32.8544L70.8948 28.899C68.7539 26.6256 65.9645 25.4263 62.897 25.3429L62.7401 31.1103ZM66.6945 32.8544L62.5742 36.8931C62.6127 36.9324 62.6243 36.9509 62.6213 36.9465C62.6202 36.9447 62.6167 36.9393 62.6119 36.9304C62.6072 36.9215 62.6022 36.9109 62.5974 36.8994C62.5927 36.8878 62.5892 36.8774 62.5866 36.8688C62.5841 36.8603 62.5832 36.8557 62.5833 36.8559C62.5833 36.8562 62.5846 36.8629 62.5859 36.877C62.5872 36.8912 62.5887 36.9139 62.5888 36.9458L68.3583 36.9245L74.1279 36.9033C74.1165 33.825 72.9787 31.0235 70.8149 28.8158L66.6945 32.8544ZM68.3583 36.9245L62.5891 36.9831C62.606 38.6472 62.5245 40.6597 62.3299 43.0421L68.0803 43.5117L73.8307 43.9812C74.0452 41.3546 74.149 38.9757 74.1276 36.8659L68.3583 36.9245ZM68.0803 43.5117L62.3214 43.1614C62.1783 45.5154 61.9742 47.7796 61.7103 49.9552L67.4379 50.6497L73.1655 51.3442C73.4588 48.9255 73.683 46.4311 73.8392 43.8619L68.0803 43.5117ZM67.4379 50.6497L61.7103 49.9552C60.9067 56.5828 59.6397 62.3373 57.9532 67.2619L63.4115 69.1312L68.8698 71.0005C70.8687 65.1638 72.286 58.5973 73.1655 51.3442L67.4379 50.6497ZM63.4115 69.1312L57.9532 67.2619C56.3457 71.9558 54.0377 75.8855 51.0673 79.1397L55.3286 83.0294L59.5899 86.919C63.7112 82.4038 66.7919 77.0681 68.8698 71.0005L63.4115 69.1312ZM55.3286 83.0294L51.0886 79.1165C48.2534 82.1887 44.2362 84.8947 38.7866 87.0935L40.9453 92.4439L43.1041 97.7944C49.7521 95.1121 55.3238 91.5417 59.5685 86.9422L55.3286 83.0294ZM35.4391 67.3015L36.4895 61.6284C36.4372 61.6187 36.4273 61.6122 36.4487 61.6206C36.4713 61.6295 36.5125 61.6486 36.5623 61.6816C36.6124 61.7146 36.6534 61.75 36.6826 61.7799C36.711 61.809 36.7158 61.8204 36.7026 61.7999L31.8579 64.9331L27.0132 68.0663C28.7354 70.7293 31.3226 72.4069 34.3886 72.9747L35.4391 67.3015ZM31.8579 64.9331L36.7797 61.9225C36.7819 61.926 36.7915 61.9431 36.8013 61.9702C36.8111 61.9973 36.8149 62.0174 36.8157 62.0232C36.818 62.0387 36.7977 61.929 36.8568 61.6465L31.2094 60.4654L25.5621 59.2843C24.9549 62.1875 25.2692 65.2185 26.9361 67.9437L31.8579 64.9331ZM31.2094 60.4654L36.8701 61.5811C37.1654 60.0825 37.4358 58.2737 37.6882 56.1924L31.9606 55.4979L26.233 54.8033C25.9994 56.7298 25.7689 58.2327 25.5488 59.3497L31.2094 60.4654ZM31.9606 55.4979L37.6882 56.1924C37.9423 54.0965 38.1619 51.8579 38.3482 49.4789L32.5962 49.0285L26.8443 48.5781C26.669 50.8172 26.4648 52.8914 26.233 54.8033L31.9606 55.4979ZM32.5962 49.0285L38.3482 49.4789C38.5324 47.1258 38.686 44.8165 38.8087 42.5512L33.0476 42.2392L27.2864 41.9273C27.169 44.0963 27.0216 46.3133 26.8443 48.5781L32.5962 49.0285ZM33.0476 42.2392L38.8087 42.5512C38.9346 40.2255 38.9788 38.1129 38.9311 36.2302L33.1634 36.3764L27.3957 36.5226C27.4337 38.0227 27.4006 39.8186 27.2864 41.9273L33.0476 42.2392ZM33.1634 36.3764L38.9328 36.4161C38.9335 36.3044 38.9433 36.2461 38.9461 36.2314C38.9486 36.2182 38.9455 36.2402 38.9264 36.2852C38.9069 36.3313 38.8793 36.3809 38.8464 36.4266C38.814 36.4716 38.7896 36.4943 38.7873 36.4964L34.9342 32.202L31.0811 27.9077C28.5689 30.1618 27.4157 33.167 27.3939 36.3367L33.1634 36.3764ZM34.9342 32.202L38.8731 36.4178C38.9316 36.3631 38.9653 36.3407 38.9717 36.3366C38.9752 36.3343 38.9733 36.3358 38.9662 36.3394C38.959 36.3431 38.9482 36.3481 38.9343 36.3536C38.9204 36.359 38.9055 36.3641 38.8901 36.3683C38.8748 36.3726 38.8614 36.3754 38.8507 36.3773C38.8455 36.3781 38.8414 36.3787 38.8384 36.3791C38.837 36.3792 38.8358 36.3794 38.8351 36.3794C38.8343 36.3795 38.8339 36.3795 38.8339 36.3795C38.8339 36.3795 38.8344 36.3795 38.8352 36.3795C38.8361 36.3794 38.8374 36.3794 38.8392 36.3793C38.8427 36.3793 38.8482 36.3792 38.8558 36.3794L38.9954 30.6115L39.135 24.8437C36.0127 24.7681 33.2145 25.9128 30.9952 27.9863L34.9342 32.202ZM38.9954 30.6115L38.6595 36.3713C38.7465 36.3764 38.7983 36.3863 38.8216 36.3917C38.8441 36.3969 38.8471 36.3996 38.8376 36.3954C38.8277 36.391 38.8188 36.3857 38.8146 36.3828C38.8108 36.3802 38.823 36.3879 38.8501 36.4153L42.9498 32.3557L47.0495 28.2961C44.9364 26.1621 42.2547 25.0222 39.3313 24.8518L38.9954 30.6115ZM42.9498 32.3557L38.8501 36.4153C38.8641 36.4294 38.8567 36.4242 38.8396 36.3985C38.8222 36.3722 38.8042 36.3389 38.79 36.3035C38.776 36.2684 38.7721 36.2477 38.7724 36.2495C38.773 36.2526 38.7794 36.2884 38.7797 36.3648L44.5492 36.3436L50.3187 36.3223C50.3076 33.3114 49.236 30.5042 47.0495 28.2961L42.9498 32.3557ZM44.5492 36.3436L38.7805 36.2421C38.7572 37.5702 38.6831 39.3613 38.5532 41.6405L44.3134 41.9687L50.0736 42.297C50.2076 39.9463 50.2907 37.9873 50.3179 36.4451L44.5492 36.3436ZM44.3134 41.9687L38.5532 41.6405C38.4246 43.8973 38.2513 46.3286 38.0327 48.9358L43.7821 49.4178L49.5315 49.8999C49.7575 47.2048 49.9384 44.67 50.0736 42.297L44.3134 41.9687ZM43.7821 49.4178L38.0324 48.9398C37.8187 51.5101 37.5899 54.0021 37.3461 56.4159L43.0864 56.9958L48.8267 57.5756C49.0778 55.09 49.3128 52.5301 49.5318 49.8959L43.7821 49.4178ZM43.0864 56.9958L37.3458 56.4182C37.1135 58.7271 36.8615 60.5912 36.5983 62.0422L42.2752 63.0719L47.9522 64.1015C48.2875 62.2527 48.5762 60.0661 48.827 57.5733L43.0864 56.9958ZM42.2752 63.0719L36.5721 62.1988C36.5713 62.2043 36.6012 62.037 36.7511 61.8215C36.9003 61.6069 37.0417 61.5266 37.0238 61.5366L39.8424 66.5708L42.661 71.605C45.585 69.9679 47.4689 67.2724 47.9783 63.945L42.2752 63.0719ZM39.8424 66.5708L37.0237 61.5366C36.8103 61.6561 36.7106 61.6694 36.4895 61.6284L35.4391 67.3015L34.3886 72.9747C37.2718 73.5085 40.1077 73.0346 42.661 71.605L39.8424 66.5708ZM104.059 97.7166L102.39 92.1937L102.37 92.1998L102.35 92.206L104.059 97.7166ZM99.6516 97.2565L96.8795 102.317L96.9078 102.332L96.9363 102.347L99.6516 97.2565ZM97.2504 89.4518L92.1597 86.7365L92.1212 86.8087L92.0848 86.8819L97.2504 89.4518ZM100.647 86.5905L98.9558 81.0745L98.947 81.0772L98.9382 81.0799L100.647 86.5905ZM120.847 77.0629L124.17 81.7795L124.172 81.7778L120.847 77.0629ZM133.942 63.5494L138.858 66.5687L138.864 66.5598L133.942 63.5494ZM134.977 58.6907L129.772 61.1798L129.839 61.3191L129.913 61.4547L134.977 58.6907ZM146.479 52.7951L141.268 55.2713L141.268 55.2713L146.479 52.7951ZM144.163 68.2108L149.149 71.1137L149.157 71.1004L149.165 71.0871L144.163 68.2108ZM128.189 85.8387L124.724 81.2253L124.715 81.2323L124.706 81.2394L128.189 85.8387ZM149.94 54.9258L145.341 58.4098L145.398 58.4852L145.458 58.5586L149.94 54.9258ZM151.247 44.1487L147.763 39.5498L147.725 39.5784L147.688 39.6076L151.247 44.1487ZM162.024 45.4555L157.483 49.0144L162.024 45.4555ZM160.717 56.2326L164.276 60.7737L164.313 60.7445L164.35 60.7148L160.717 56.2326ZM157.689 52.369L161.028 57.0743L161.14 56.9948L161.248 56.9102L157.689 52.369ZM158.16 48.4834L162.702 44.9245L158.16 48.4834ZM154.275 48.0123L150.716 43.4711L150.608 43.5558L150.504 43.6455L154.275 48.0123ZM153.804 51.8979L149.098 55.2368L149.257 55.4608L149.437 55.6688L153.804 51.8979ZM104.059 97.7166L102.35 92.206C102.334 92.2109 102.326 92.2126 102.326 92.2127C102.326 92.2127 102.331 92.2115 102.343 92.2103C102.354 92.2092 102.368 92.2083 102.385 92.2082C102.402 92.2082 102.419 92.2091 102.435 92.2108C102.452 92.2125 102.465 92.2147 102.474 92.2167C102.483 92.2186 102.486 92.2197 102.483 92.2187C102.477 92.2169 102.439 92.2043 102.367 92.1658L99.6516 97.2565L96.9363 102.347C99.6701 103.805 102.728 104.17 105.768 103.227L104.059 97.7166ZM99.6516 97.2565L102.424 92.1965C102.364 92.1639 102.339 92.1436 102.337 92.1417C102.335 92.1405 102.338 92.1425 102.343 92.148C102.349 92.1534 102.356 92.161 102.363 92.1702C102.371 92.1795 102.378 92.1889 102.384 92.1977C102.39 92.2064 102.393 92.2127 102.395 92.2156C102.398 92.2224 102.389 92.2069 102.374 92.1593L96.8636 93.8684L91.353 95.5775C92.2682 98.5284 94.1958 100.846 96.8795 102.317L99.6516 97.2565ZM96.8636 93.8684L102.374 92.1593C102.361 92.1154 102.36 92.0987 102.36 92.1051C102.361 92.1123 102.362 92.1281 102.36 92.1468C102.359 92.1651 102.356 92.1695 102.36 92.1554C102.365 92.1403 102.379 92.0962 102.416 92.0217L97.2504 89.4518L92.0848 86.8819C90.728 89.6091 90.433 92.6113 91.353 95.5775L96.8636 93.8684ZM97.2504 89.4518L102.341 92.1671C102.381 92.092 102.408 92.0561 102.416 92.0469C102.422 92.0386 102.415 92.0484 102.394 92.0662C102.384 92.0745 102.373 92.0828 102.362 92.0904C102.351 92.0981 102.341 92.1038 102.334 92.1077C102.318 92.1162 102.322 92.1117 102.357 92.1011L100.647 86.5905L98.9382 81.0799C95.92 82.0161 93.6085 84.0203 92.1597 86.7365L97.2504 89.4518ZM100.647 86.5905L102.339 92.1065C110.686 89.5468 117.996 86.1292 124.17 81.7795L120.847 77.0629L117.524 72.3463C112.527 75.8666 106.371 78.8007 98.9558 81.0745L100.647 86.5905ZM120.847 77.0629L124.172 81.7778C130.345 77.4239 135.295 72.3702 138.858 66.5687L133.942 63.5494L129.025 60.53C126.409 64.7907 122.629 68.7461 117.522 72.348L120.847 77.0629ZM133.942 63.5494L138.864 66.5598C140.248 64.2964 142.297 60.06 140.042 55.9268L134.977 58.6907L129.913 61.4547C129.663 60.996 129.548 60.5447 129.512 60.1751C129.478 59.8238 129.52 59.5967 129.532 59.5392C129.544 59.4834 129.538 59.5422 129.455 59.7309C129.373 59.9162 129.237 60.1838 129.02 60.5389L133.942 63.5494ZM134.977 58.6907L140.182 56.2017C139.143 54.0293 137.356 52.7576 135.788 52.032C134.239 51.3148 132.527 50.9452 130.882 50.7457L130.188 56.4733L129.493 62.2009C129.964 62.2581 130.318 62.3256 130.572 62.3891C130.697 62.4204 130.789 62.4484 130.852 62.47C130.915 62.4917 130.943 62.5044 130.941 62.5034C130.938 62.5024 130.899 62.4842 130.833 62.4423C130.766 62.4002 130.667 62.3308 130.549 62.2269C130.305 62.0112 130.005 61.6671 129.772 61.1798L134.977 58.6907ZM130.188 56.4733L130.882 50.7457L104.269 47.5187L103.575 53.2463L102.88 58.9739L129.493 62.2009L130.188 56.4733ZM103.575 53.2463L104.269 47.5187C104.246 47.5159 104.254 47.5148 104.283 47.5244C104.313 47.5342 104.349 47.5495 104.383 47.5695C104.4 47.5789 104.413 47.5876 104.422 47.5944C104.431 47.6013 104.436 47.6051 104.435 47.6046C104.434 47.6038 104.408 47.5806 104.361 47.5211L99.8204 51.08L95.2792 54.6389C97.1592 57.0377 99.7648 58.5961 102.88 58.9739L103.575 53.2463ZM99.8204 51.08L104.361 47.5211C104.315 47.4615 104.299 47.4305 104.298 47.4296C104.298 47.4288 104.3 47.4339 104.305 47.4448C104.309 47.4556 104.314 47.4703 104.32 47.4884C104.331 47.5268 104.337 47.5651 104.34 47.5964C104.342 47.6269 104.339 47.634 104.342 47.6111L98.6142 46.9166L92.8866 46.2221C92.5088 49.3376 93.3993 52.2401 95.2792 54.6389L99.8204 51.08ZM98.6142 46.9166L104.342 47.6111C104.345 47.5873 104.348 47.5727 104.349 47.5662C104.35 47.5598 104.351 47.5602 104.349 47.5664C104.347 47.5727 104.343 47.5829 104.337 47.596C104.331 47.6092 104.324 47.6232 104.316 47.6372C104.309 47.6511 104.301 47.6631 104.294 47.6725C104.287 47.6819 104.283 47.6871 104.282 47.6881C104.281 47.6891 104.285 47.6846 104.295 47.6751C104.305 47.6655 104.322 47.6502 104.348 47.63L100.789 43.0889L97.2304 38.5477C94.7879 40.462 93.2638 43.1112 92.8866 46.2221L98.6142 46.9166ZM100.789 43.0889L104.348 47.63C104.408 47.5833 104.439 47.567 104.44 47.5665C104.441 47.5661 104.435 47.5688 104.425 47.5732C104.414 47.5776 104.399 47.5829 104.381 47.5881C104.343 47.5993 104.304 47.6057 104.273 47.608C104.242 47.6103 104.235 47.6075 104.258 47.6103L104.953 41.8827L105.647 36.1551C102.532 35.7773 99.6292 36.6678 97.2304 38.5477L100.789 43.0889ZM104.953 41.8827L104.258 47.6103L131.677 50.9351L132.372 45.2075L133.066 39.4799L105.647 36.1551L104.953 41.8827ZM132.372 45.2075L131.677 50.9351C138.412 51.7518 140.573 53.8095 141.268 55.2713L146.479 52.7951L151.69 50.3188C148.434 43.4656 141.19 40.465 133.066 39.4799L132.372 45.2075ZM146.479 52.7951L141.268 55.2713C142.064 56.9479 142.262 59.9436 139.162 65.3345L144.163 68.2108L149.165 71.0871C153.103 64.2387 154.844 56.9572 151.69 50.3188L146.479 52.7951ZM144.163 68.2108L139.177 65.3079C135.717 71.2509 130.933 76.562 124.724 81.2253L128.189 85.8387L131.654 90.4521C138.976 84.9527 144.842 78.512 149.149 71.1137L144.163 68.2108ZM128.189 85.8387L124.706 81.2394C118.614 85.8527 111.209 89.5287 102.39 92.1937L104.059 97.7166L105.728 103.239C115.648 100.242 124.33 95.9991 131.672 90.438L128.189 85.8387ZM155.099 57.783L155.793 52.0554C155.183 51.9815 154.82 51.7838 154.422 51.2929L149.94 54.9258L145.458 58.5586C147.735 61.3677 150.81 63.0749 154.404 63.5106L155.099 57.783ZM149.94 54.9258L154.539 51.4417C154.157 50.9381 154.052 50.5381 154.126 49.9284L148.399 49.2339L142.671 48.5393C142.235 52.1329 143.158 55.5276 145.341 58.4098L149.94 54.9258ZM148.399 49.2339L154.126 49.9284C154.2 49.3227 154.384 49.0202 154.806 48.6898L151.247 44.1487L147.688 39.6076C144.821 41.8542 143.107 44.9417 142.671 48.5393L148.399 49.2339ZM151.247 44.1487L154.731 48.7476C155.235 48.366 155.635 48.2608 156.244 48.3348L156.939 42.6072L157.633 36.8796C154.04 36.4438 150.645 37.3663 147.763 39.5498L151.247 44.1487ZM156.939 42.6072L156.244 48.3348C156.85 48.4082 157.152 48.5929 157.483 49.0144L162.024 45.4555L166.565 41.8966C164.318 39.03 161.231 37.3158 157.633 36.8796L156.939 42.6072ZM162.024 45.4555L157.483 49.0144C157.813 49.436 157.92 49.7739 157.847 50.3796L163.574 51.0741L169.302 51.7686C169.738 48.171 168.812 44.7632 166.565 41.8966L162.024 45.4555ZM163.574 51.0741L157.847 50.3796C157.773 50.9893 157.575 51.3525 157.084 51.7504L160.717 56.2326L164.35 60.7148C167.159 58.438 168.866 55.3622 169.302 51.7686L163.574 51.0741ZM160.717 56.2326L157.158 51.6915C156.737 52.0218 156.399 52.1289 155.793 52.0554L155.099 57.783L154.404 63.5106C158.002 63.9469 161.409 63.0203 164.276 60.7737L160.717 56.2326ZM155.694 52.871L155 58.5986C157.143 58.8586 159.249 58.3367 161.028 57.0743L157.689 52.369L154.35 47.6637C154.595 47.4899 154.929 47.3193 155.335 47.217C155.74 47.115 156.107 47.1092 156.389 47.1434L155.694 52.871ZM157.689 52.369L161.248 56.9102C163.093 55.4641 164.19 53.4345 164.463 51.1819L158.736 50.4874L153.008 49.7928C153.042 49.5155 153.138 49.1397 153.361 48.7401C153.585 48.3374 153.868 48.0337 154.13 47.8279L157.689 52.369ZM158.736 50.4874L164.463 51.1819C164.744 48.8679 164.079 46.6818 162.702 44.9245L158.16 48.4834L153.619 52.0423C153.444 51.8188 153.242 51.4784 153.113 51.0286C152.983 50.5745 152.965 50.1442 153.008 49.7928L158.736 50.4874ZM158.16 48.4834L162.702 44.9245C161.324 43.1672 159.361 41.9988 157.047 41.7182L156.352 47.4458L155.658 53.1734C155.306 53.1308 154.892 53.0114 154.483 52.7762C154.077 52.5433 153.795 52.2659 153.619 52.0423L158.16 48.4834ZM156.352 47.4458L157.047 41.7182C154.794 41.4451 152.561 42.0251 150.716 43.4711L154.275 48.0123L157.834 52.5534C157.571 52.7592 157.209 52.9614 156.764 53.0826C156.323 53.203 155.935 53.2071 155.658 53.1734L156.352 47.4458ZM154.275 48.0123L150.504 43.6455C148.853 45.0713 147.843 46.9912 147.583 49.135L153.311 49.8295L159.038 50.524C159.004 50.806 158.911 51.1604 158.715 51.5297C158.518 51.8998 158.273 52.1827 158.046 52.379L154.275 48.0123ZM153.311 49.8295L147.583 49.135C147.33 51.2234 147.778 53.3756 149.098 55.2368L153.804 51.8979L158.509 48.559C158.711 48.8432 158.88 49.1974 158.975 49.5951C159.068 49.9857 159.064 50.3114 159.038 50.524L153.311 49.8295ZM153.804 51.8979L149.437 55.6688C150.929 57.396 152.911 58.3454 155 58.5986L155.694 52.871L156.389 47.1434C156.601 47.1692 156.919 47.243 157.276 47.4268C157.639 47.6139 157.943 47.8632 158.17 48.127L153.804 51.8979ZM181.429 108.735L182.581 114.388L181.429 108.735ZM177.148 107.844L180.396 103.076L180.364 103.053L180.331 103.032L177.148 107.844ZM174.762 104.207L180.426 103.11L180.421 103.082L180.416 103.055L174.762 104.207ZM175.571 99.9904L170.803 96.7422L170.781 96.7748L170.759 96.8078L175.571 99.9904ZM179.217 97.5313L178.121 91.8668L178.093 91.8722L178.065 91.878L179.217 97.5313ZM195.728 91.4248L198.67 96.3881L198.687 96.378L198.704 96.3678L195.728 91.4248ZM206.975 80.8859L211.83 84.003L211.861 83.9537L211.892 83.9037L206.975 80.8859ZM207.395 78.0356L202.244 80.6348L202.244 80.6348L207.395 78.0356ZM173.56 71.1803L169.099 74.8392L169.099 74.8392L173.56 71.1803ZM216.33 69.3739L212.436 73.6309L212.485 73.6759L212.535 73.7196L216.33 69.3739ZM219.674 76.7721L213.904 76.7459L213.904 76.7997L213.905 76.8534L219.674 76.7721ZM216.503 86.356L221.378 89.4424L221.389 89.425L221.4 89.4075L216.503 86.356ZM201.982 100.589L198.899 95.7121L198.889 95.7188L198.878 95.7255L201.982 100.589ZM180.156 56.6556L175.615 60.2145L175.615 60.2145L180.156 56.6556ZM181.099 48.8844L184.658 53.4255L184.658 53.4255L181.099 48.8844ZM217.535 53.3027L212.913 56.7551L212.953 56.8088L212.994 56.8616L217.535 53.3027ZM216.593 61.0739L213.034 56.5328L212.981 56.5741L212.93 56.6167L216.593 61.0739ZM181.429 108.735L180.277 103.082C180.246 103.088 180.247 103.085 180.276 103.085C180.306 103.085 180.346 103.088 180.39 103.097C180.434 103.106 180.462 103.117 180.47 103.12C180.477 103.123 180.452 103.114 180.396 103.076L177.148 107.844L173.9 112.612C176.469 114.362 179.475 115.022 182.581 114.388L181.429 108.735ZM177.148 107.844L180.331 103.032C180.309 103.017 180.315 103.019 180.337 103.041C180.36 103.063 180.387 103.095 180.412 103.132C180.436 103.169 180.447 103.195 180.449 103.201C180.451 103.206 180.44 103.179 180.426 103.11L174.762 104.207L169.098 105.304C169.684 108.331 171.33 110.913 173.965 112.656L177.148 107.844ZM174.762 104.207L180.416 103.055C180.405 103.004 180.407 102.989 180.407 103.004C180.407 103.02 180.406 103.053 180.397 103.096C180.389 103.139 180.378 103.173 180.369 103.194C180.361 103.214 180.361 103.207 180.383 103.173L175.571 99.9904L170.759 96.8078C169.055 99.3841 168.496 102.352 169.109 105.359L174.762 104.207ZM175.571 99.9904L180.339 103.239C180.382 103.176 180.409 103.148 180.414 103.142C180.417 103.139 180.416 103.141 180.411 103.145C180.406 103.149 180.398 103.156 180.388 103.162C180.377 103.169 180.367 103.176 180.356 103.182C180.345 103.187 180.337 103.191 180.331 103.193C180.319 103.198 180.329 103.193 180.369 103.185L179.217 97.5313L178.065 91.878C175.014 92.4997 172.523 94.2165 170.803 96.7422L175.571 99.9904ZM179.217 97.5313L180.313 103.196C187.039 101.894 193.179 99.6424 198.67 96.3881L195.728 91.4248L192.787 86.4615C188.552 88.9711 183.685 90.7902 178.121 91.8668L179.217 97.5313ZM195.728 91.4248L198.704 96.3678C204.204 93.0568 208.649 88.958 211.83 84.003L206.975 80.8859L202.12 77.7689C200.043 81.0039 196.99 83.9311 192.753 86.4818L195.728 91.4248ZM206.975 80.8859L211.892 83.9037C213.091 81.9495 214.223 78.76 212.546 75.4364L207.395 78.0356L202.244 80.6348C201.863 79.8809 201.793 79.1015 201.882 78.5014C201.958 77.9839 202.125 77.7576 202.057 77.8681L206.975 80.8859ZM207.395 78.0356L212.546 75.4364C210.718 71.8155 206.854 71.0424 204.923 70.8082L204.229 76.5358L203.534 82.2634C204.038 82.3246 204.064 82.3899 203.833 82.2804C203.568 82.1548 202.781 81.7001 202.244 80.6348L207.395 78.0356ZM204.229 76.5358L204.923 70.8082L178.091 67.5545L177.396 73.2821L176.702 79.0097L203.534 82.2634L204.229 76.5358ZM177.396 73.2821L178.091 67.5545C178.029 67.547 178.002 67.5385 178.001 67.5382C178.001 67.5382 178.015 67.5429 178.036 67.5544C178.057 67.566 178.07 67.5762 178.073 67.5784C178.075 67.58 178.056 67.5649 178.021 67.5214L173.56 71.1803L169.099 74.8392C171.04 77.2065 173.672 78.6423 176.702 79.0097L177.396 73.2821ZM173.56 71.1803L178.021 67.5214C177.987 67.4808 177.984 67.4695 177.995 67.4891C178.006 67.5098 178.025 67.5501 178.041 67.6061C178.058 67.6624 178.067 67.7148 178.07 67.7559C178.073 67.7958 178.069 67.8078 178.072 67.7847L172.345 67.0902L166.617 66.3957C166.238 69.5205 167.136 72.4468 169.099 74.8392L173.56 71.1803ZM172.345 67.0902L178.072 67.7847C178.078 67.738 178.083 67.7308 178.076 67.7533C178.068 67.7769 178.052 67.8161 178.026 67.862C177.999 67.9079 177.972 67.9427 177.953 67.9638C177.935 67.9841 177.935 67.9795 177.968 67.9548L174.511 63.3358L171.054 58.7167C168.531 60.605 166.995 63.2781 166.617 66.3957L172.345 67.0902ZM174.511 63.3358L177.968 67.9548C178.013 67.9211 178.035 67.9108 178.033 67.9119C178.029 67.9134 178.014 67.9203 177.991 67.9264C177.968 67.9326 177.953 67.9338 177.953 67.9338C177.954 67.9337 177.982 67.9319 178.044 67.9394L178.739 62.2118L179.433 56.4842C176.403 56.1168 173.505 56.8821 171.054 58.7167L174.511 63.3358ZM178.739 62.2118L178.044 67.9394L205.683 71.2909L206.378 65.5633L207.072 59.8357L179.433 56.4842L178.739 62.2118ZM206.378 65.5633L205.683 71.2909C209.512 71.7552 211.485 72.7604 212.436 73.6309L216.33 69.3739L220.225 65.1168C216.801 61.9853 212.139 60.4501 207.072 59.8357L206.378 65.5633ZM216.33 69.3739L212.535 73.7196C213.518 74.5773 213.91 75.4486 213.904 76.7459L219.674 76.7721L225.443 76.7982C225.464 72.1475 223.628 68.0866 220.126 65.0281L216.33 69.3739ZM219.674 76.7721L213.905 76.8534C213.925 78.3256 213.396 80.4329 211.606 83.3045L216.503 86.356L221.4 89.4075C223.92 85.3626 225.505 81.0807 225.443 76.6907L219.674 76.7721ZM216.503 86.356L211.628 83.2696C208.568 88.1037 204.365 92.2578 198.899 95.7121L201.982 100.589L205.064 105.466C211.845 101.181 217.323 95.8464 221.378 89.4424L216.503 86.356ZM201.982 100.589L198.878 95.7255C193.447 99.1911 187.267 101.657 180.277 103.082L181.429 108.735L182.581 114.388C190.846 112.704 198.368 109.739 205.085 105.453L201.982 100.589ZM183.846 58.7396L184.541 53.012C184.502 53.0073 184.499 53.0036 184.522 53.011C184.546 53.0187 184.583 53.0334 184.625 53.0571C184.667 53.0808 184.697 53.1043 184.715 53.1193C184.731 53.1337 184.724 53.1305 184.697 53.0967L180.156 56.6556L175.615 60.2145C177.5 62.6196 180.111 64.0986 183.152 64.4672L183.846 58.7396ZM180.156 56.6556L184.697 53.0967C184.671 53.0628 184.67 53.0551 184.68 53.0745C184.69 53.0949 184.706 53.1303 184.718 53.1767C184.731 53.2231 184.737 53.2625 184.739 53.2877C184.74 53.3119 184.738 53.3077 184.742 53.2689L179.015 52.5744L173.287 51.8799C172.918 54.9203 173.73 57.8094 175.615 60.2145L180.156 56.6556ZM179.015 52.5744L184.742 53.2689C184.747 53.2301 184.751 53.2268 184.743 53.2499C184.736 53.2739 184.721 53.3108 184.697 53.3528C184.673 53.3948 184.65 53.4255 184.635 53.4427C184.621 53.4592 184.624 53.4521 184.658 53.4255L181.099 48.8844L177.54 44.3433C175.135 46.2282 173.656 48.8395 173.287 51.8799L179.015 52.5744ZM181.099 48.8844L184.658 53.4255C184.691 53.399 184.699 53.3976 184.68 53.4076C184.659 53.4181 184.624 53.4335 184.578 53.4465C184.531 53.4595 184.492 53.465 184.467 53.4668C184.442 53.4684 184.447 53.4656 184.485 53.4703L185.18 47.7427L185.874 42.0151C182.834 41.6464 179.945 42.4584 177.54 44.3433L181.099 48.8844ZM185.18 47.7427L184.485 53.4703L213.224 56.9551L213.919 51.2275L214.613 45.4999L185.874 42.0151L185.18 47.7427ZM213.919 51.2275L213.224 56.9551C213.263 56.9599 213.262 56.9631 213.23 56.9528C213.197 56.9421 213.146 56.9219 213.088 56.8884C213.029 56.8549 212.981 56.8184 212.946 56.7866C212.911 56.7556 212.902 56.7404 212.913 56.7551L217.535 53.3027L222.158 49.8503C220.298 47.36 217.66 45.8693 214.613 45.4999L213.919 51.2275ZM217.535 53.3027L212.994 56.8616C213.021 56.8955 213.022 56.9032 213.012 56.8837C213.002 56.8634 212.986 56.828 212.973 56.7816C212.96 56.7351 212.955 56.6958 212.953 56.6706C212.951 56.6464 212.954 56.6505 212.949 56.6893L218.677 57.3839L224.405 58.0784C224.773 55.038 223.961 52.1489 222.076 49.7438L217.535 53.3027ZM218.677 57.3839L212.949 56.6893C212.945 56.7281 212.941 56.7315 212.948 56.7084C212.956 56.6844 212.971 56.6474 212.995 56.6054C213.018 56.5635 213.042 56.5328 213.057 56.5155C213.071 56.4991 213.068 56.5062 213.034 56.5328L216.593 61.0739L220.152 65.615C222.557 63.7301 224.036 61.1188 224.405 58.0784L218.677 57.3839ZM216.593 61.0739L212.93 56.6167C212.915 56.6284 212.928 56.6159 212.969 56.594C213.011 56.5716 213.067 56.5477 213.131 56.5291C213.196 56.5106 213.25 56.5029 213.285 56.5005C213.318 56.4982 213.319 56.5016 213.28 56.4969L212.585 62.2245L211.891 67.9521C214.937 68.3215 217.855 67.5046 220.257 65.5311L216.593 61.0739ZM212.585 62.2245L213.28 56.4969L184.541 53.012L183.846 58.7396L183.152 64.4672L211.891 67.9521L212.585 62.2245ZM265.095 118.136L269.636 114.577L269.597 114.527L269.556 114.477L265.095 118.136ZM267.169 86.9204L272.897 87.615L274.433 74.9517L263.909 82.1606L267.169 86.9204ZM257.501 93.0383L260.356 98.052L260.381 98.0373L260.407 98.0223L257.501 93.0383ZM247.636 98.3142L250.1 103.531L250.159 103.504L250.216 103.475L247.636 98.3142ZM240.096 95.4658L234.779 97.7044L234.827 97.8182L234.879 97.9298L240.096 95.4658ZM239.952 91.1336L234.58 89.0299L234.555 89.0925L234.532 89.1558L239.952 91.1336ZM242.945 87.9257L240.487 82.7057L240.481 82.7088L242.945 87.9257ZM250.505 83.8583L247.609 78.8682L247.586 78.8815L247.563 78.895L250.505 83.8583ZM259.187 78.5134L262.329 83.3525L262.355 83.3359L262.38 83.3189L259.187 78.5134ZM267.885 72.4266L271.308 77.0714L271.311 77.0694L267.885 72.4266ZM275.704 66.2331L271.994 61.8144L271.968 61.8362L271.942 61.8582L275.704 66.2331ZM281.509 60.6881L277.294 56.748L277.233 56.8134L277.174 56.8807L281.509 60.6881ZM285.459 58.7866L285.086 53.0291L285.069 53.0302L285.053 53.0314L285.459 58.7866ZM289.605 60.182L285.773 64.4958L285.773 64.4958L289.605 60.182ZM291.506 64.1321L285.749 64.505L285.756 64.6108L285.766 64.7162L291.506 64.1321ZM290.12 68.2043L294.23 72.2527L294.283 72.1992L294.334 72.1444L290.12 68.2043ZM285.236 72.8939L281.349 68.6302L281.315 68.6617L281.281 68.6937L285.236 72.8939ZM279.831 77.5946L276.208 73.1041L274.385 74.5748L274.103 76.9001L279.831 77.5946ZM273.086 119.105L269.629 114.486L269.578 114.525L269.527 114.564L273.086 119.105ZM268.85 120.303L269.544 114.575C269.521 114.572 269.529 114.571 269.558 114.581C269.588 114.591 269.623 114.606 269.658 114.626C269.674 114.635 269.687 114.644 269.697 114.651C269.706 114.658 269.711 114.662 269.71 114.661C269.709 114.66 269.683 114.637 269.636 114.577L265.095 118.136L260.554 121.695C262.434 124.094 265.04 125.653 268.155 126.03L268.85 120.303ZM265.095 118.136L269.556 114.477C269.53 114.446 269.531 114.441 269.544 114.465C269.557 114.49 269.575 114.531 269.59 114.581C269.605 114.632 269.611 114.674 269.612 114.699C269.614 114.722 269.611 114.714 269.617 114.668L263.889 113.973L258.161 113.279C257.783 116.396 258.636 119.359 260.634 121.795L265.095 118.136ZM263.889 113.973L269.617 114.668L272.897 87.615L267.169 86.9204L261.442 86.2259L258.161 113.279L263.889 113.973ZM267.169 86.9204L263.909 82.1606C260.888 84.23 257.783 86.1946 254.594 88.0544L257.501 93.0383L260.407 98.0223C263.836 96.0227 267.177 93.9087 270.43 91.6803L267.169 86.9204ZM257.501 93.0383L254.646 88.0247C251.43 89.856 248.233 91.5655 245.056 93.1537L247.636 98.3142L250.216 103.475C253.586 101.79 256.966 99.9823 260.356 98.052L257.501 93.0383ZM247.636 98.3142L245.172 93.0973C245.136 93.1146 245.133 93.1119 245.162 93.1046C245.192 93.0971 245.239 93.089 245.296 93.0871C245.353 93.0852 245.399 93.0902 245.427 93.0953C245.454 93.1002 245.449 93.1023 245.408 93.0861L243.304 98.4585L241.2 103.831C244.141 104.982 247.238 104.883 250.1 103.531L247.636 98.3142ZM243.304 98.4585L245.408 93.0861C245.348 93.0627 245.321 93.0465 245.317 93.044C245.314 93.042 245.323 93.0474 245.337 93.0605C245.351 93.0736 245.358 93.0829 245.357 93.0816C245.356 93.0796 245.339 93.0564 245.313 93.0018L240.096 95.4658L234.879 97.9298C236.181 100.686 238.367 102.721 241.2 103.831L243.304 98.4585ZM240.096 95.4658L245.414 93.2271C245.381 93.1499 245.369 93.104 245.365 93.087C245.362 93.0711 245.364 93.0747 245.364 93.0933C245.365 93.1122 245.364 93.1303 245.362 93.1422C245.36 93.1535 245.36 93.1443 245.372 93.1114L239.952 91.1336L234.532 89.1558C233.488 92.0176 233.627 94.9681 234.779 97.7044L240.096 95.4658ZM239.952 91.1336L245.324 93.2373C245.348 93.1776 245.364 93.1508 245.366 93.1468C245.369 93.1436 245.363 93.1526 245.35 93.1666C245.337 93.1806 245.328 93.1874 245.329 93.1864C245.331 93.185 245.354 93.1684 245.409 93.1426L242.945 87.9257L240.481 82.7088C237.724 84.0107 235.689 86.1966 234.58 89.0299L239.952 91.1336ZM242.945 87.9257L245.402 93.1457C247.869 91.9844 250.554 90.5363 253.447 88.8216L250.505 83.8583L247.563 78.895C244.899 80.4739 242.544 81.7374 240.487 82.7057L242.945 87.9257ZM250.505 83.8583L253.401 88.8484C256.318 87.1555 259.294 85.3231 262.329 83.3525L259.187 78.5134L256.046 73.6743C253.159 75.5484 250.347 77.2792 247.609 78.8682L250.505 83.8583ZM259.187 78.5134L262.38 83.3189C265.424 81.2967 268.4 79.2142 271.308 77.0714L267.885 72.4266L264.463 67.7818C261.707 69.8124 258.884 71.7878 255.995 73.7079L259.187 78.5134ZM267.885 72.4266L271.311 77.0694C274.294 74.8685 277.015 72.7148 279.465 70.6079L275.704 66.2331L271.942 61.8582C269.742 63.75 267.25 65.7254 264.46 67.7838L267.885 72.4266ZM275.704 66.2331L279.414 70.6517C281.936 68.5337 284.1 66.4811 285.844 64.4956L281.509 60.6881L277.174 56.8807C275.926 58.3015 274.22 59.9455 271.994 61.8144L275.704 66.2331ZM281.509 60.6881L285.724 64.6283C285.775 64.5738 285.807 64.5484 285.817 64.5405C285.827 64.5331 285.824 64.5363 285.811 64.5427C285.798 64.5492 285.788 64.552 285.788 64.552C285.789 64.5518 285.812 64.5456 285.866 64.5418L285.459 58.7866L285.053 53.0314C282.017 53.2458 279.35 54.5492 277.294 56.748L281.509 60.6881ZM285.459 58.7866L285.832 64.5441C285.9 64.5397 285.928 64.5437 285.923 64.5431C285.918 64.5425 285.892 64.5385 285.855 64.5259C285.837 64.5198 285.819 64.5129 285.803 64.5054C285.786 64.4978 285.773 64.4907 285.763 64.485C285.743 64.473 285.747 64.4721 285.773 64.4958L289.605 60.182L293.436 55.8681C291.082 53.7775 288.173 52.8292 285.086 53.0291L285.459 58.7866ZM289.605 60.182L285.773 64.4958C285.789 64.5094 285.797 64.5179 285.8 64.5208C285.802 64.5237 285.8 64.522 285.796 64.5157C285.791 64.5092 285.784 64.4997 285.776 64.4872C285.768 64.4747 285.761 64.4612 285.754 64.4474C285.748 64.4337 285.743 64.4217 285.74 64.4125C285.736 64.4033 285.735 64.3987 285.736 64.3999C285.736 64.4012 285.738 64.4096 285.741 64.4263C285.743 64.4431 285.746 64.469 285.749 64.505L291.506 64.1321L297.264 63.7592C297.065 60.6937 295.773 57.9436 293.436 55.8681L289.605 60.182ZM291.506 64.1321L285.766 64.7162C285.769 64.7388 285.764 64.7185 285.77 64.6641C285.776 64.6081 285.79 64.5363 285.817 64.4581C285.843 64.38 285.874 64.3189 285.899 64.279C285.923 64.2404 285.931 64.2365 285.905 64.2642L290.12 68.2043L294.334 72.1444C296.538 69.7877 297.576 66.7873 297.246 63.548L291.506 64.1321ZM290.12 68.2043L286.009 64.156C284.56 65.6276 283.007 67.1191 281.349 68.6302L285.236 72.8939L289.123 77.1576C290.923 75.5172 292.626 73.8823 294.23 72.2527L290.12 68.2043ZM285.236 72.8939L281.281 68.6937C279.716 70.1676 278.026 71.638 276.208 73.1041L279.831 77.5946L283.453 82.0852C285.484 80.4471 287.398 78.7837 289.192 77.0942L285.236 72.8939ZM279.831 77.5946L274.103 76.9001L269.525 114.656L275.253 115.351L280.98 116.046L285.558 78.2892L279.831 77.5946ZM275.253 115.351L269.525 114.656C269.519 114.703 269.514 114.71 269.522 114.688C269.529 114.664 269.545 114.625 269.571 114.579C269.598 114.533 269.625 114.498 269.644 114.477C269.662 114.457 269.662 114.462 269.629 114.486L273.086 119.105L276.543 123.725C279.066 121.836 280.602 119.163 280.98 116.046L275.253 115.351ZM273.086 119.105L269.527 114.564C269.502 114.585 269.483 114.598 269.471 114.605C269.459 114.613 269.454 114.615 269.455 114.615C269.456 114.614 269.462 114.611 269.473 114.607C269.484 114.603 269.497 114.598 269.513 114.593C269.528 114.589 269.544 114.586 269.558 114.583C269.572 114.581 269.583 114.58 269.589 114.579C269.596 114.579 269.596 114.579 269.589 114.579C269.583 114.579 269.568 114.578 269.544 114.575L268.85 120.303L268.155 126.03C271.266 126.408 274.203 125.561 276.645 123.647L273.086 119.105Z" fill="#1F6306" mask="url(#path-1-outside-1_40001603_10731)"/>
<path d="M5.99902 56.3721C11.2484 56.3721 24.207 56.7426 31.472 57.9579C35.5439 58.6391 42.827 59.9143 57.663 62.9905C67.3985 65.0092 81.8207 66.993 90.292 68.4161C98.7634 69.8391 100.9 70.3949 105.787 71.2369C110.675 72.079 118.248 73.1905 128.947 75.2451C139.646 77.2996 153.24 80.2636 163.351 82.161C173.461 84.0584 179.676 84.7994 183.654 85.1812C195.814 86.348 208.418 87.247 212.252 87.7129C216.841 88.2706 219.999 88.3697 226.755 89.3016C234.262 90.337 244.504 91.1765 249.618 91.8277C256.419 92.6937 264.136 94.5447 266.79 95.1032C269.676 95.7105 272.764 96.2288 278.631 96.7873C287.77 97.1606 294.55 97.5368 296.406 97.8174C297.486 97.9129 298.846 97.9129 300.246 97.9129" stroke="#FF4141" stroke-width="11.5391" stroke-linecap="round"/>
</svg>
